<svg width="672" height="44" viewBox="0 0 672 44" fill="none" xmlns="http://www.w3.org/2000/svg">
<path d="M-4.37115e-08 22L173 22" stroke="#30364D" stroke-opacity="0.74"/>
<path d="M178.482 24.5093V24.1836C178.482 23.0791 178.643 22.0549 178.964 21.1108C179.285 20.1574 179.747 19.3314 180.352 18.6328C180.965 17.9248 181.711 17.3773 182.589 16.9902C183.476 16.5938 184.477 16.3955 185.591 16.3955C186.714 16.3955 187.715 16.5938 188.593 16.9902C189.48 17.3773 190.231 17.9248 190.844 18.6328C191.458 19.3314 191.925 20.1574 192.246 21.1108C192.567 22.0549 192.728 23.0791 192.728 24.1836V24.5093C192.728 25.6138 192.567 26.638 192.246 27.582C191.925 28.526 191.458 29.3521 190.844 30.0601C190.231 30.7586 189.485 31.3062 188.607 31.7026C187.729 32.0897 186.733 32.2832 185.619 32.2832C184.496 32.2832 183.49 32.0897 182.603 31.7026C181.725 31.3062 180.979 30.7586 180.366 30.0601C179.752 29.3521 179.285 28.526 178.964 27.582C178.643 26.638 178.482 25.6138 178.482 24.5093ZM181.895 24.1836V24.5093C181.895 25.1984 181.966 25.8498 182.107 26.4634C182.249 27.077 182.471 27.6151 182.773 28.0776C183.075 28.5402 183.462 28.9036 183.934 29.168C184.406 29.4323 184.968 29.5645 185.619 29.5645C186.252 29.5645 186.799 29.4323 187.262 29.168C187.734 28.9036 188.121 28.5402 188.423 28.0776C188.725 27.6151 188.947 27.077 189.088 26.4634C189.239 25.8498 189.315 25.1984 189.315 24.5093V24.1836C189.315 23.5039 189.239 22.862 189.088 22.2578C188.947 21.6442 188.72 21.1014 188.409 20.6294C188.107 20.1574 187.72 19.7892 187.248 19.5249C186.785 19.2511 186.233 19.1143 185.591 19.1143C184.949 19.1143 184.392 19.2511 183.92 19.5249C183.457 19.7892 183.075 20.1574 182.773 20.6294C182.471 21.1014 182.249 21.6442 182.107 22.2578C181.966 22.862 181.895 23.5039 181.895 24.1836ZM199.015 19.5957V32H195.602V16.6787H198.859L199.015 19.5957ZM203.702 16.5796L203.673 19.7515C203.466 19.7137 203.239 19.6854 202.994 19.6665C202.758 19.6476 202.522 19.6382 202.286 19.6382C201.7 19.6382 201.186 19.7231 200.742 19.8931C200.299 20.0535 199.926 20.2896 199.624 20.6011C199.331 20.9032 199.104 21.2713 198.944 21.7056C198.783 22.1398 198.689 22.626 198.661 23.1641L197.882 23.2207C197.882 22.2578 197.976 21.3657 198.165 20.5444C198.354 19.7231 198.637 19.001 199.015 18.3779C199.402 17.7549 199.883 17.2687 200.459 16.9194C201.044 16.5701 201.719 16.3955 202.484 16.3955C202.692 16.3955 202.913 16.4144 203.149 16.4521C203.395 16.4899 203.579 16.5324 203.702 16.5796ZM219.32 29.5645C219.877 29.5645 220.378 29.4559 220.821 29.2388C221.274 29.0122 221.638 28.7007 221.912 28.3042C222.195 27.9077 222.351 27.4499 222.379 26.9307H225.593C225.574 27.9219 225.282 28.8234 224.715 29.6353C224.149 30.4471 223.398 31.0938 222.464 31.5752C221.529 32.0472 220.496 32.2832 219.363 32.2832C218.192 32.2832 217.173 32.085 216.304 31.6885C215.436 31.2826 214.714 30.7256 214.138 30.0176C213.562 29.3096 213.128 28.493 212.835 27.5679C212.552 26.6427 212.41 25.6515 212.41 24.5942V24.0986C212.41 23.0413 212.552 22.0501 212.835 21.125C213.128 20.1904 213.562 19.3691 214.138 18.6611C214.714 17.9531 215.436 17.4009 216.304 17.0044C217.173 16.5985 218.188 16.3955 219.349 16.3955C220.576 16.3955 221.652 16.641 222.577 17.1318C223.502 17.6133 224.229 18.2882 224.758 19.1567C225.296 20.0158 225.574 21.0164 225.593 22.1587H222.379C222.351 21.5923 222.209 21.0825 221.954 20.6294C221.709 20.1668 221.359 19.7987 220.906 19.5249C220.463 19.2511 219.929 19.1143 219.306 19.1143C218.617 19.1143 218.046 19.2559 217.593 19.5391C217.14 19.8128 216.786 20.1904 216.531 20.6719C216.276 21.1439 216.092 21.6772 215.979 22.272C215.875 22.8573 215.823 23.4661 215.823 24.0986V24.5942C215.823 25.2267 215.875 25.8403 215.979 26.4351C216.082 27.0298 216.262 27.5632 216.517 28.0352C216.781 28.4977 217.14 28.8706 217.593 29.1538C218.046 29.4276 218.622 29.5645 219.32 29.5645ZM231.64 19.5957V32H228.227V16.6787H231.484L231.64 19.5957ZM236.327 16.5796L236.298 19.7515C236.091 19.7137 235.864 19.6854 235.619 19.6665C235.383 19.6476 235.147 19.6382 234.911 19.6382C234.325 19.6382 233.811 19.7231 233.367 19.8931C232.924 20.0535 232.551 20.2896 232.249 20.6011C231.956 20.9032 231.729 21.2713 231.569 21.7056C231.408 22.1398 231.314 22.626 231.286 23.1641L230.507 23.2207C230.507 22.2578 230.601 21.3657 230.79 20.5444C230.979 19.7231 231.262 19.001 231.64 18.3779C232.027 17.7549 232.508 17.2687 233.084 16.9194C233.669 16.5701 234.344 16.3955 235.109 16.3955C235.317 16.3955 235.538 16.4144 235.774 16.4521C236.02 16.4899 236.204 16.5324 236.327 16.5796ZM244.936 32.2832C243.803 32.2832 242.779 32.0991 241.863 31.731C240.957 31.3534 240.183 30.8294 239.541 30.1592C238.909 29.4889 238.422 28.7007 238.083 27.7944C237.743 26.8882 237.573 25.9111 237.573 24.8633V24.2969C237.573 23.098 237.747 22.0124 238.097 21.04C238.446 20.0677 238.932 19.237 239.555 18.5479C240.178 17.8493 240.915 17.3159 241.764 16.9478C242.614 16.5796 243.534 16.3955 244.525 16.3955C245.62 16.3955 246.579 16.5796 247.4 16.9478C248.221 17.3159 248.901 17.8351 249.439 18.5054C249.986 19.1662 250.392 19.9544 250.657 20.8701C250.931 21.7858 251.067 22.7959 251.067 23.9004V25.3589H239.229V22.9092H247.697V22.6401C247.678 22.0265 247.556 21.4507 247.329 20.9126C247.112 20.3745 246.777 19.9403 246.324 19.6099C245.871 19.2795 245.266 19.1143 244.511 19.1143C243.945 19.1143 243.44 19.237 242.996 19.4824C242.562 19.7184 242.198 20.063 241.906 20.5161C241.613 20.9692 241.387 21.5168 241.226 22.1587C241.075 22.7912 241 23.5039 241 24.2969V24.8633C241 25.5335 241.089 26.1566 241.269 26.7324C241.457 27.2988 241.731 27.7944 242.09 28.2192C242.449 28.644 242.883 28.9792 243.393 29.2246C243.902 29.4606 244.483 29.5786 245.134 29.5786C245.956 29.5786 246.687 29.4134 247.329 29.083C247.971 28.7526 248.528 28.2853 249 27.6812L250.798 29.4229C250.468 29.9043 250.038 30.3669 249.51 30.8105C248.981 31.2448 248.334 31.5988 247.57 31.8726C246.815 32.1463 245.937 32.2832 244.936 32.2832ZM262.367 28.9272V21.6206C262.367 21.0731 262.268 20.6011 262.07 20.2046C261.872 19.8081 261.569 19.5013 261.164 19.2842C260.767 19.0671 260.267 18.9585 259.663 18.9585C259.106 18.9585 258.624 19.0529 258.218 19.2417C257.812 19.4305 257.496 19.6854 257.27 20.0063C257.043 20.3273 256.93 20.6908 256.93 21.0967H253.531C253.531 20.4925 253.678 19.9072 253.97 19.3408C254.263 18.7744 254.688 18.2694 255.245 17.8257C255.802 17.382 256.467 17.0327 257.241 16.7778C258.015 16.5229 258.884 16.3955 259.847 16.3955C260.998 16.3955 262.018 16.589 262.905 16.9761C263.802 17.3631 264.505 17.9484 265.015 18.7319C265.534 19.506 265.794 20.4784 265.794 21.6489V28.46C265.794 29.1585 265.841 29.7863 265.936 30.3433C266.039 30.8908 266.186 31.3675 266.375 31.7734V32H262.877C262.716 31.6318 262.589 31.1646 262.495 30.5981C262.41 30.0223 262.367 29.4653 262.367 28.9272ZM262.863 22.6826L262.891 24.7925H260.441C259.809 24.7925 259.252 24.8538 258.771 24.9766C258.289 25.0898 257.888 25.2598 257.567 25.4863C257.246 25.7129 257.005 25.9867 256.845 26.3076C256.684 26.6286 256.604 26.992 256.604 27.3979C256.604 27.8039 256.698 28.1768 256.887 28.5166C257.076 28.847 257.35 29.1066 257.708 29.2954C258.077 29.4842 258.52 29.5786 259.04 29.5786C259.738 29.5786 260.347 29.437 260.866 29.1538C261.395 28.8612 261.81 28.5072 262.112 28.0918C262.414 27.667 262.575 27.2658 262.594 26.8882L263.698 28.4033C263.585 28.7904 263.391 29.2057 263.118 29.6494C262.844 30.0931 262.485 30.5179 262.042 30.9238C261.607 31.3203 261.083 31.646 260.47 31.9009C259.866 32.1558 259.167 32.2832 258.374 32.2832C257.373 32.2832 256.481 32.085 255.698 31.6885C254.914 31.2826 254.301 30.7397 253.857 30.0601C253.413 29.3709 253.191 28.5921 253.191 27.7236C253.191 26.9118 253.342 26.1943 253.645 25.5713C253.956 24.9388 254.409 24.4102 255.004 23.9854C255.608 23.5605 256.344 23.2396 257.213 23.0225C258.081 22.7959 259.073 22.6826 260.187 22.6826H262.863ZM276.386 16.6787V19.1709H267.748V16.6787H276.386ZM270.24 12.9263H273.653V27.7661C273.653 28.2381 273.719 28.6016 273.851 28.8564C273.993 29.1019 274.186 29.2671 274.432 29.3521C274.677 29.437 274.965 29.4795 275.295 29.4795C275.531 29.4795 275.758 29.4653 275.975 29.437C276.192 29.4087 276.367 29.3804 276.499 29.3521L276.513 31.9575C276.23 32.0425 275.9 32.118 275.522 32.1841C275.154 32.2502 274.729 32.2832 274.248 32.2832C273.464 32.2832 272.77 32.1463 272.166 31.8726C271.562 31.5894 271.09 31.1315 270.75 30.499C270.41 29.8665 270.24 29.0264 270.24 27.9785V12.9263ZM285.774 32.2832C284.641 32.2832 283.617 32.0991 282.701 31.731C281.795 31.3534 281.021 30.8294 280.379 30.1592C279.746 29.4889 279.26 28.7007 278.92 27.7944C278.581 26.8882 278.411 25.9111 278.411 24.8633V24.2969C278.411 23.098 278.585 22.0124 278.935 21.04C279.284 20.0677 279.77 19.237 280.393 18.5479C281.016 17.8493 281.752 17.3159 282.602 16.9478C283.452 16.5796 284.372 16.3955 285.363 16.3955C286.458 16.3955 287.417 16.5796 288.238 16.9478C289.059 17.3159 289.739 17.8351 290.277 18.5054C290.824 19.1662 291.23 19.9544 291.495 20.8701C291.768 21.7858 291.905 22.7959 291.905 23.9004V25.3589H280.067V22.9092H288.535V22.6401C288.516 22.0265 288.394 21.4507 288.167 20.9126C287.95 20.3745 287.615 19.9403 287.162 19.6099C286.708 19.2795 286.104 19.1143 285.349 19.1143C284.783 19.1143 284.278 19.237 283.834 19.4824C283.4 19.7184 283.036 20.063 282.744 20.5161C282.451 20.9692 282.224 21.5168 282.064 22.1587C281.913 22.7912 281.837 23.5039 281.837 24.2969V24.8633C281.837 25.5335 281.927 26.1566 282.106 26.7324C282.295 27.2988 282.569 27.7944 282.928 28.2192C283.286 28.644 283.721 28.9792 284.23 29.2246C284.74 29.4606 285.321 29.5786 285.972 29.5786C286.793 29.5786 287.525 29.4134 288.167 29.083C288.809 28.7526 289.366 28.2853 289.838 27.6812L291.636 29.4229C291.306 29.9043 290.876 30.3669 290.348 30.8105C289.819 31.2448 289.172 31.5988 288.408 31.8726C287.653 32.1463 286.775 32.2832 285.774 32.2832ZM310.427 28.9272V21.6206C310.427 21.0731 310.328 20.6011 310.129 20.2046C309.931 19.8081 309.629 19.5013 309.223 19.2842C308.827 19.0671 308.326 18.9585 307.722 18.9585C307.165 18.9585 306.684 19.0529 306.278 19.2417C305.872 19.4305 305.556 19.6854 305.329 20.0063C305.103 20.3273 304.989 20.6908 304.989 21.0967H301.591C301.591 20.4925 301.737 19.9072 302.03 19.3408C302.322 18.7744 302.747 18.2694 303.304 17.8257C303.861 17.382 304.527 17.0327 305.301 16.7778C306.075 16.5229 306.943 16.3955 307.906 16.3955C309.058 16.3955 310.077 16.589 310.965 16.9761C311.862 17.3631 312.565 17.9484 313.075 18.7319C313.594 19.506 313.854 20.4784 313.854 21.6489V28.46C313.854 29.1585 313.901 29.7863 313.995 30.3433C314.099 30.8908 314.245 31.3675 314.434 31.7734V32H310.937C310.776 31.6318 310.649 31.1646 310.554 30.5981C310.469 30.0223 310.427 29.4653 310.427 28.9272ZM310.922 22.6826L310.951 24.7925H308.501C307.868 24.7925 307.312 24.8538 306.83 24.9766C306.349 25.0898 305.947 25.2598 305.626 25.4863C305.306 25.7129 305.065 25.9867 304.904 26.3076C304.744 26.6286 304.664 26.992 304.664 27.3979C304.664 27.8039 304.758 28.1768 304.947 28.5166C305.136 28.847 305.409 29.1066 305.768 29.2954C306.136 29.4842 306.58 29.5786 307.099 29.5786C307.798 29.5786 308.407 29.437 308.926 29.1538C309.454 28.8612 309.87 28.5072 310.172 28.0918C310.474 27.667 310.634 27.2658 310.653 26.8882L311.758 28.4033C311.645 28.7904 311.451 29.2057 311.177 29.6494C310.903 30.0931 310.545 30.5179 310.101 30.9238C309.667 31.3203 309.143 31.646 308.529 31.9009C307.925 32.1558 307.227 32.2832 306.434 32.2832C305.433 32.2832 304.541 32.085 303.757 31.6885C302.974 31.2826 302.36 30.7397 301.917 30.0601C301.473 29.3709 301.251 28.5921 301.251 27.7236C301.251 26.9118 301.402 26.1943 301.704 25.5713C302.016 24.9388 302.469 24.4102 303.063 23.9854C303.668 23.5605 304.404 23.2396 305.272 23.0225C306.141 22.7959 307.132 22.6826 308.246 22.6826H310.922ZM328.028 19.9497V32H324.615V16.6787H327.83L328.028 19.9497ZM327.419 23.7729L326.314 23.7588C326.324 22.6732 326.475 21.6772 326.768 20.771C327.07 19.8647 327.485 19.0859 328.014 18.4346C328.552 17.7832 329.194 17.2829 329.939 16.9336C330.685 16.5749 331.516 16.3955 332.432 16.3955C333.168 16.3955 333.833 16.4993 334.428 16.707C335.032 16.9053 335.547 17.231 335.972 17.6841C336.406 18.1372 336.736 18.7272 336.963 19.4541C337.189 20.1715 337.303 21.0542 337.303 22.1021V32H333.876V22.0879C333.876 21.3516 333.767 20.771 333.55 20.3462C333.343 19.9119 333.036 19.6051 332.63 19.4258C332.233 19.237 331.738 19.1426 331.143 19.1426C330.558 19.1426 330.034 19.2653 329.571 19.5107C329.109 19.7562 328.717 20.0913 328.396 20.5161C328.084 20.9409 327.844 21.4318 327.674 21.9888C327.504 22.5457 327.419 23.1405 327.419 23.7729ZM347.541 32.2832C346.408 32.2832 345.383 32.0991 344.468 31.731C343.562 31.3534 342.787 30.8294 342.146 30.1592C341.513 29.4889 341.027 28.7007 340.687 27.7944C340.347 26.8882 340.177 25.9111 340.177 24.8633V24.2969C340.177 23.098 340.352 22.0124 340.701 21.04C341.05 20.0677 341.537 19.237 342.16 18.5479C342.783 17.8493 343.519 17.3159 344.369 16.9478C345.218 16.5796 346.139 16.3955 347.13 16.3955C348.225 16.3955 349.183 16.5796 350.004 16.9478C350.826 17.3159 351.505 17.8351 352.043 18.5054C352.591 19.1662 352.997 19.9544 353.261 20.8701C353.535 21.7858 353.672 22.7959 353.672 23.9004V25.3589H341.834V22.9092H350.302V22.6401C350.283 22.0265 350.16 21.4507 349.934 20.9126C349.716 20.3745 349.381 19.9403 348.928 19.6099C348.475 19.2795 347.871 19.1143 347.116 19.1143C346.549 19.1143 346.044 19.237 345.601 19.4824C345.166 19.7184 344.803 20.063 344.51 20.5161C344.218 20.9692 343.991 21.5168 343.831 22.1587C343.68 22.7912 343.604 23.5039 343.604 24.2969V24.8633C343.604 25.5335 343.694 26.1566 343.873 26.7324C344.062 27.2988 344.336 27.7944 344.694 28.2192C345.053 28.644 345.487 28.9792 345.997 29.2246C346.507 29.4606 347.087 29.5786 347.739 29.5786C348.56 29.5786 349.292 29.4134 349.934 29.083C350.576 28.7526 351.132 28.2853 351.604 27.6812L353.403 29.4229C353.072 29.9043 352.643 30.3669 352.114 30.8105C351.586 31.2448 350.939 31.5988 350.174 31.8726C349.419 32.1463 348.541 32.2832 347.541 32.2832ZM360.497 28.6016L364.037 16.6787H366.218L365.623 20.2471L362.055 32H360.101L360.497 28.6016ZM358.416 16.6787L361.177 28.6582L361.403 32H359.223L355.074 16.6787H358.416ZM369.531 28.5166L372.208 16.6787H375.535L371.4 32H369.22L369.531 28.5166ZM366.586 16.6787L370.083 28.46L370.522 32H368.568L364.958 20.2329L364.363 16.6787H366.586ZM401.25 21.4648V29.3379C400.957 29.7249 400.5 30.1497 399.876 30.6123C399.263 31.0654 398.446 31.4572 397.427 31.7876C396.407 32.118 395.138 32.2832 393.618 32.2832C392.324 32.2832 391.14 32.0661 390.063 31.6318C388.987 31.1882 388.057 30.5415 387.274 29.6919C386.5 28.8423 385.9 27.8086 385.476 26.5908C385.051 25.3636 384.838 23.9665 384.838 22.3994V20.9692C384.838 19.4116 385.032 18.0239 385.419 16.8062C385.815 15.5789 386.382 14.5405 387.118 13.6909C387.854 12.8413 388.742 12.1994 389.78 11.7651C390.828 11.3215 392.013 11.0996 393.334 11.0996C395.024 11.0996 396.421 11.3828 397.526 11.9492C398.64 12.5062 399.499 13.2803 400.103 14.2715C400.707 15.2627 401.09 16.3955 401.25 17.6699H397.767C397.653 16.9525 397.431 16.3105 397.101 15.7441C396.78 15.1777 396.318 14.734 395.713 14.4131C395.119 14.0827 394.345 13.9175 393.391 13.9175C392.57 13.9175 391.848 14.0732 391.225 14.3848C390.602 14.6963 390.082 15.1541 389.667 15.7583C389.261 16.3625 388.954 17.0988 388.747 17.9673C388.539 18.8358 388.435 19.827 388.435 20.9409V22.3994C388.435 23.5322 388.553 24.5376 388.789 25.4155C389.035 26.2935 389.384 27.0345 389.837 27.6387C390.299 28.2428 390.861 28.7007 391.522 29.0122C392.183 29.3143 392.929 29.4653 393.759 29.4653C394.571 29.4653 395.237 29.3993 395.756 29.2671C396.275 29.1255 396.686 28.9603 396.988 28.7715C397.299 28.5732 397.54 28.3844 397.71 28.2051V24.1128H393.419V21.4648H401.25ZM408.217 10.25V32H404.818V10.25H408.217ZM407.622 23.7729L406.518 23.7588C406.527 22.7015 406.673 21.7244 406.957 20.8276C407.249 19.9308 407.655 19.152 408.174 18.4912C408.703 17.821 409.335 17.3065 410.072 16.9478C410.808 16.5796 411.625 16.3955 412.521 16.3955C413.277 16.3955 413.956 16.4993 414.561 16.707C415.174 16.9147 415.703 17.2498 416.146 17.7124C416.59 18.1655 416.925 18.7603 417.152 19.4966C417.388 20.2235 417.506 21.1108 417.506 22.1587V32H414.079V22.1304C414.079 21.394 413.971 20.8088 413.753 20.3745C413.546 19.9403 413.239 19.6287 412.833 19.4399C412.427 19.2417 411.931 19.1426 411.346 19.1426C410.733 19.1426 410.19 19.2653 409.718 19.5107C409.255 19.7562 408.868 20.0913 408.557 20.5161C408.245 20.9409 408.009 21.4318 407.849 21.9888C407.698 22.5457 407.622 23.1405 407.622 23.7729ZM420.31 24.5093V24.1836C420.31 23.0791 420.47 22.0549 420.791 21.1108C421.112 20.1574 421.575 19.3314 422.179 18.6328C422.792 17.9248 423.538 17.3773 424.416 16.9902C425.303 16.5938 426.304 16.3955 427.418 16.3955C428.541 16.3955 429.542 16.5938 430.42 16.9902C431.307 17.3773 432.058 17.9248 432.671 18.6328C433.285 19.3314 433.752 20.1574 434.073 21.1108C434.394 22.0549 434.555 23.0791 434.555 24.1836V24.5093C434.555 25.6138 434.394 26.638 434.073 27.582C433.752 28.526 433.285 29.3521 432.671 30.0601C432.058 30.7586 431.312 31.3062 430.434 31.7026C429.556 32.0897 428.56 32.2832 427.446 32.2832C426.323 32.2832 425.318 32.0897 424.43 31.7026C423.552 31.3062 422.806 30.7586 422.193 30.0601C421.579 29.3521 421.112 28.526 420.791 27.582C420.47 26.638 420.31 25.6138 420.31 24.5093ZM423.722 24.1836V24.5093C423.722 25.1984 423.793 25.8498 423.935 26.4634C424.076 27.077 424.298 27.6151 424.6 28.0776C424.902 28.5402 425.289 28.9036 425.761 29.168C426.233 29.4323 426.795 29.5645 427.446 29.5645C428.079 29.5645 428.626 29.4323 429.089 29.168C429.561 28.9036 429.948 28.5402 430.25 28.0776C430.552 27.6151 430.774 27.077 430.916 26.4634C431.067 25.8498 431.142 25.1984 431.142 24.5093V24.1836C431.142 23.5039 431.067 22.862 430.916 22.2578C430.774 21.6442 430.547 21.1014 430.236 20.6294C429.934 20.1574 429.547 19.7892 429.075 19.5249C428.612 19.2511 428.06 19.1143 427.418 19.1143C426.776 19.1143 426.219 19.2511 425.747 19.5249C425.285 19.7892 424.902 20.1574 424.6 20.6294C424.298 21.1014 424.076 21.6442 423.935 22.2578C423.793 22.862 423.722 23.5039 423.722 24.1836ZM446.01 27.8511C446.01 27.5112 445.925 27.2044 445.755 26.9307C445.585 26.6475 445.26 26.3926 444.778 26.166C444.306 25.9395 443.608 25.7318 442.683 25.543C441.871 25.3636 441.125 25.1512 440.445 24.9058C439.775 24.6509 439.199 24.3441 438.718 23.9854C438.236 23.6266 437.863 23.2018 437.599 22.7109C437.335 22.2201 437.203 21.6536 437.203 21.0117C437.203 20.3887 437.34 19.7987 437.613 19.2417C437.887 18.6847 438.279 18.1938 438.789 17.769C439.298 17.3442 439.917 17.0091 440.644 16.7637C441.38 16.5182 442.201 16.3955 443.107 16.3955C444.391 16.3955 445.491 16.6126 446.407 17.0469C447.332 17.4717 448.04 18.0522 448.531 18.7886C449.022 19.5155 449.267 20.3368 449.267 21.2524H445.854C445.854 20.8465 445.751 20.4689 445.543 20.1196C445.345 19.7609 445.043 19.473 444.637 19.2559C444.231 19.0293 443.721 18.916 443.107 18.916C442.522 18.916 442.036 19.0104 441.649 19.1992C441.271 19.3786 440.988 19.6146 440.799 19.9072C440.62 20.1999 440.53 20.5208 440.53 20.8701C440.53 21.125 440.577 21.3563 440.672 21.564C440.776 21.7622 440.946 21.9463 441.182 22.1162C441.418 22.2767 441.739 22.4277 442.145 22.5693C442.56 22.7109 443.079 22.8478 443.702 22.98C444.873 23.2254 445.878 23.5417 446.718 23.9287C447.568 24.3063 448.219 24.7972 448.672 25.4014C449.125 25.9961 449.352 26.7513 449.352 27.667C449.352 28.3467 449.206 28.9697 448.913 29.5361C448.63 30.0931 448.215 30.5793 447.667 30.9946C447.119 31.4006 446.463 31.7168 445.699 31.9434C444.944 32.1699 444.094 32.2832 443.15 32.2832C441.762 32.2832 440.587 32.0378 439.624 31.5469C438.661 31.0465 437.93 30.4093 437.429 29.6353C436.938 28.8517 436.693 28.0399 436.693 27.1997H439.992C440.03 27.8322 440.205 28.3372 440.516 28.7148C440.837 29.083 441.234 29.3521 441.706 29.522C442.187 29.6825 442.683 29.7627 443.192 29.7627C443.806 29.7627 444.32 29.6825 444.736 29.522C445.151 29.3521 445.467 29.1255 445.685 28.8423C445.902 28.5496 446.01 28.2192 446.01 27.8511ZM459.363 16.6787V19.1709H450.726V16.6787H459.363ZM453.218 12.9263H456.63V27.7661C456.63 28.2381 456.696 28.6016 456.829 28.8564C456.97 29.1019 457.164 29.2671 457.409 29.3521C457.655 29.437 457.943 29.4795 458.273 29.4795C458.509 29.4795 458.736 29.4653 458.953 29.437C459.17 29.4087 459.344 29.3804 459.477 29.3521L459.491 31.9575C459.208 32.0425 458.877 32.118 458.5 32.1841C458.131 32.2502 457.707 32.2832 457.225 32.2832C456.442 32.2832 455.748 32.1463 455.144 31.8726C454.539 31.5894 454.067 31.1315 453.728 30.499C453.388 29.8665 453.218 29.0264 453.218 27.9785V12.9263ZM473.354 11.3828V32H469.799V11.3828H473.354ZM483.761 32H479.357L479.386 29.1821H483.761C485.036 29.1821 486.102 28.9036 486.961 28.3467C487.83 27.7897 488.481 26.992 488.916 25.9536C489.359 24.9152 489.581 23.6785 489.581 22.2437V21.125C489.581 20.0111 489.454 19.0246 489.199 18.1655C488.953 17.3065 488.585 16.5843 488.094 15.999C487.613 15.4137 487.018 14.9701 486.31 14.668C485.611 14.3659 484.804 14.2148 483.889 14.2148H479.272V11.3828H483.889C485.257 11.3828 486.508 11.6141 487.641 12.0767C488.774 12.5298 489.751 13.1859 490.572 14.0449C491.403 14.904 492.04 15.9329 492.484 17.1318C492.928 18.3307 493.149 19.6712 493.149 21.1533V22.2437C493.149 23.7257 492.928 25.0662 492.484 26.2651C492.04 27.464 491.403 28.493 490.572 29.3521C489.742 30.2017 488.75 30.8577 487.599 31.3203C486.456 31.7734 485.177 32 483.761 32ZM481.326 11.3828V32H477.771V11.3828H481.326Z" fill="#30364D" fill-opacity="0.74"/>
<line x1="499" y1="21.5" x2="672" y2="21.5" stroke="#30364D" stroke-opacity="0.74"/>
</svg>
