<svg width="40" height="37" viewBox="0 0 40 37" fill="none" xmlns="http://www.w3.org/2000/svg">
    <path d="M25.6 4.16719L39.002 26.2058C40.928 29.3711 39.982 33.5356 36.888 35.5062C35.8496 36.1701 34.6391 36.5239 33.402 36.5251H6.596C2.954 36.5251 0 33.504 0 29.7739C0 28.5121 0.346 27.278 0.996 26.2058L14.4 4.16719C16.324 1.00189 20.392 0.032355 23.486 2.00302C24.342 2.54801 25.066 3.28849 25.6 4.16719ZM20 28.6267C20.5304 28.6267 21.0391 28.4186 21.4142 28.0483C21.7893 27.678 22 27.1758 22 26.6521C22 26.1284 21.7893 25.6261 21.4142 25.2558C21.0391 24.8855 20.5304 24.6775 20 24.6775C19.4696 24.6775 18.9609 24.8855 18.5858 25.2558C18.2107 25.6261 18 26.1284 18 26.6521C18 27.1758 18.2107 27.678 18.5858 28.0483C18.9609 28.4186 19.4696 28.6267 20 28.6267ZM20 10.8552C19.4696 10.8552 18.9609 11.0632 18.5858 11.4335C18.2107 11.8039 18 12.3061 18 12.8298V20.7282C18 21.2519 18.2107 21.7542 18.5858 22.1245C18.9609 22.4948 19.4696 22.7028 20 22.7028C20.5304 22.7028 21.0391 22.4948 21.4142 22.1245C21.7893 21.7542 22 21.2519 22 20.7282V12.8298C22 12.3061 21.7893 11.8039 21.4142 11.4335C21.0391 11.0632 20.5304 10.8552 20 10.8552Z" fill="url(#paint0_linear_56_297)" />
    <defs>
        <linearGradient id="paint0_linear_56_297" x1="0" y1="18.7538" x2="39.9999" y2="18.7538" gradientUnits="userSpaceOnUse">
            <stop stop-color="#B279F7" />
            <stop offset="1" stop-color="#6E51E2" />
        </linearGradient>
    </defs>
</svg>
    