<svg width="57" height="28" viewBox="0 0 57 28" fill="none" xmlns="http://www.w3.org/2000/svg">
<path d="M23.4062 1.04688V2.03125L19.4961 11H17.5889L21.499 2.46875H16.4404V1.04688H23.4062ZM31.459 9.57812V11H24.7188V9.7832L27.9521 6.29004C28.2894 5.90723 28.556 5.57454 28.752 5.29199C28.9479 5.00944 29.0869 4.75423 29.1689 4.52637C29.2555 4.29395 29.2988 4.07292 29.2988 3.86328C29.2988 3.55794 29.2441 3.29134 29.1348 3.06348C29.0254 2.83105 28.8659 2.65104 28.6562 2.52344C28.4512 2.39583 28.1982 2.33203 27.8975 2.33203C27.5648 2.33203 27.2799 2.40951 27.043 2.56445C26.8105 2.71484 26.6328 2.92448 26.5098 3.19336C26.3913 3.46224 26.332 3.76986 26.332 4.11621H24.5205C24.5205 3.52832 24.6572 2.99284 24.9307 2.50977C25.2041 2.02214 25.596 1.63249 26.1064 1.34082C26.6169 1.04915 27.223 0.90332 27.9248 0.90332C28.6084 0.90332 29.1872 1.01725 29.6611 1.24512C30.1351 1.46842 30.4951 1.78743 30.7412 2.20215C30.9873 2.61686 31.1104 3.11133 31.1104 3.68555C31.1104 4.00456 31.0579 4.31901 30.9531 4.62891C30.8483 4.9388 30.7002 5.24642 30.5088 5.55176C30.3219 5.85254 30.0986 6.15788 29.8389 6.46777C29.5791 6.77767 29.2897 7.0944 28.9707 7.41797L27.0293 9.57812H31.459ZM34.0771 9.59863H34.207C34.7949 9.59863 35.2917 9.52344 35.6973 9.37305C36.1074 9.22266 36.4378 9.01074 36.6885 8.7373C36.9437 8.45931 37.1283 8.12891 37.2422 7.74609C37.3607 7.35872 37.4199 6.93034 37.4199 6.46094V4.65625C37.4199 4.27344 37.3812 3.93848 37.3037 3.65137C37.2262 3.3597 37.1169 3.11589 36.9756 2.91992C36.8389 2.72396 36.6771 2.57812 36.4902 2.48242C36.3034 2.38216 36.1029 2.33203 35.8887 2.33203C35.6517 2.33203 35.4421 2.38672 35.2598 2.49609C35.0775 2.60547 34.9225 2.75586 34.7949 2.94727C34.6719 3.13411 34.5762 3.35059 34.5078 3.59668C34.444 3.84277 34.4121 4.10254 34.4121 4.37598C34.4121 4.6403 34.4417 4.89323 34.501 5.13477C34.5648 5.3763 34.6582 5.59049 34.7812 5.77734C34.9089 5.96419 35.0684 6.1123 35.2598 6.22168C35.4512 6.3265 35.6745 6.37891 35.9297 6.37891C36.1712 6.37891 36.39 6.33333 36.5859 6.24219C36.7865 6.14648 36.9596 6.02116 37.1055 5.86621C37.2513 5.70671 37.363 5.53125 37.4404 5.33984C37.5225 5.14388 37.568 4.94564 37.5771 4.74512L38.2129 5.01855C38.2129 5.35124 38.1423 5.67936 38.001 6.00293C37.8643 6.3265 37.6706 6.62044 37.4199 6.88477C37.1738 7.14453 36.8867 7.35417 36.5586 7.51367C36.2305 7.66862 35.8773 7.74609 35.499 7.74609C35.0296 7.74609 34.6149 7.65951 34.2549 7.48633C33.8949 7.31315 33.5918 7.07389 33.3457 6.76855C33.1042 6.45866 32.9219 6.10319 32.7988 5.70215C32.6758 5.29655 32.6143 4.86361 32.6143 4.40332C32.6143 3.9248 32.6895 3.47591 32.8398 3.05664C32.9902 2.63281 33.2067 2.26139 33.4893 1.94238C33.7764 1.61882 34.1227 1.36589 34.5283 1.18359C34.9339 0.996745 35.3896 0.90332 35.8955 0.90332C36.4196 0.90332 36.8867 1.00586 37.2969 1.21094C37.707 1.41602 38.0557 1.70085 38.3428 2.06543C38.6299 2.42546 38.8486 2.85156 38.999 3.34375C39.154 3.83594 39.2314 4.3737 39.2314 4.95703V5.59277C39.2314 6.20801 39.1699 6.79134 39.0469 7.34277C38.9238 7.89421 38.7347 8.39779 38.4795 8.85352C38.2243 9.30924 37.8984 9.70345 37.502 10.0361C37.11 10.3688 36.6406 10.6263 36.0938 10.8086C35.5514 10.9863 34.9316 11.0752 34.2344 11.0752H34.0771V9.59863Z" fill="black"/>
<path d="M7.04102 25.5234V27H1.75V25.5234H7.04102ZM2.32422 17.0469V27H0.444336V17.0469H2.32422ZM6.35059 21.1553V22.5977H1.75V21.1553H6.35059ZM7.02051 17.0469V18.5303H1.75V17.0469H7.02051ZM9.625 19.6035L10.9443 21.9551L12.2842 19.6035H14.2461L12.0723 23.2266L14.335 27H12.373L10.958 24.5322L9.53613 27H7.57422L9.83008 23.2266L7.66992 19.6035H9.625ZM18.1904 25.7148C18.4456 25.7148 18.6735 25.6647 18.874 25.5645C19.0745 25.4642 19.234 25.3229 19.3525 25.1406C19.4756 24.9583 19.5417 24.7464 19.5508 24.5049H21.2529C21.2438 25.0062 21.1025 25.4551 20.8291 25.8516C20.5557 26.248 20.1911 26.5625 19.7354 26.7949C19.2842 27.0228 18.7783 27.1367 18.2178 27.1367C17.6481 27.1367 17.1514 27.041 16.7275 26.8496C16.3037 26.6582 15.9505 26.3916 15.668 26.0498C15.39 25.708 15.1803 25.3115 15.0391 24.8604C14.9023 24.4092 14.834 23.9261 14.834 23.4111V23.1924C14.834 22.6774 14.9023 22.1943 15.0391 21.7432C15.1803 21.292 15.39 20.8955 15.668 20.5537C15.9505 20.2119 16.3037 19.9453 16.7275 19.7539C17.1514 19.5625 17.6458 19.4668 18.2109 19.4668C18.8079 19.4668 19.332 19.583 19.7832 19.8154C20.2389 20.0479 20.5944 20.376 20.8496 20.7998C21.1094 21.2236 21.2438 21.7227 21.2529 22.2969H19.5508C19.5417 22.0326 19.4824 21.7956 19.373 21.5859C19.2637 21.3763 19.1087 21.2077 18.9082 21.0801C18.7077 20.9525 18.4639 20.8887 18.1768 20.8887C17.8714 20.8887 17.6162 20.9525 17.4111 21.0801C17.2106 21.2077 17.0534 21.3831 16.9395 21.6064C16.8301 21.8252 16.7526 22.0713 16.707 22.3447C16.666 22.6136 16.6455 22.8962 16.6455 23.1924V23.4111C16.6455 23.7119 16.666 23.999 16.707 24.2725C16.7526 24.5459 16.8301 24.792 16.9395 25.0107C17.0534 25.2249 17.2106 25.3958 17.4111 25.5234C17.6162 25.651 17.876 25.7148 18.1904 25.7148ZM25.7783 27.1367C25.2178 27.1367 24.7142 27.0456 24.2676 26.8633C23.821 26.681 23.4404 26.4281 23.126 26.1045C22.8161 25.7764 22.5768 25.3958 22.4082 24.9629C22.2441 24.5254 22.1621 24.056 22.1621 23.5547V23.2812C22.1621 22.7116 22.2441 22.1943 22.4082 21.7295C22.5723 21.2601 22.8047 20.8568 23.1055 20.5195C23.4062 20.1823 23.7663 19.9225 24.1855 19.7402C24.6048 19.5579 25.0674 19.4668 25.5732 19.4668C26.0973 19.4668 26.5599 19.5557 26.9609 19.7334C27.362 19.9066 27.6969 20.1527 27.9658 20.4717C28.2347 20.7907 28.4375 21.1735 28.5742 21.6201C28.7109 22.0622 28.7793 22.5521 28.7793 23.0898V23.8486H22.9824V22.6045H27.002V22.4678C26.9928 22.1807 26.9382 21.9186 26.8379 21.6816C26.7376 21.4401 26.5827 21.2487 26.373 21.1074C26.1634 20.9616 25.8923 20.8887 25.5596 20.8887C25.2907 20.8887 25.056 20.9479 24.8555 21.0664C24.6595 21.1803 24.4954 21.3444 24.3633 21.5586C24.2357 21.7682 24.14 22.0189 24.0762 22.3105C24.0124 22.6022 23.9805 22.9258 23.9805 23.2812V23.5547C23.9805 23.8646 24.0215 24.1517 24.1035 24.416C24.1901 24.6803 24.3154 24.9105 24.4795 25.1064C24.6481 25.2979 24.8486 25.4482 25.0811 25.5576C25.318 25.6624 25.5869 25.7148 25.8877 25.7148C26.266 25.7148 26.6077 25.6419 26.9131 25.4961C27.223 25.3457 27.4919 25.1247 27.7197 24.833L28.6289 25.7764C28.474 26.0042 28.2643 26.223 28 26.4326C27.7402 26.6423 27.4258 26.8132 27.0566 26.9453C26.6875 27.0729 26.2614 27.1367 25.7783 27.1367ZM31.9033 16.5V27H30.0918V16.5H31.9033ZM35.54 16.5V27H33.7285V16.5H35.54ZM40.585 27.1367C40.0244 27.1367 39.5208 27.0456 39.0742 26.8633C38.6276 26.681 38.2471 26.4281 37.9326 26.1045C37.6227 25.7764 37.3835 25.3958 37.2148 24.9629C37.0508 24.5254 36.9688 24.056 36.9688 23.5547V23.2812C36.9688 22.7116 37.0508 22.1943 37.2148 21.7295C37.3789 21.2601 37.6113 20.8568 37.9121 20.5195C38.2129 20.1823 38.5729 19.9225 38.9922 19.7402C39.4115 19.5579 39.874 19.4668 40.3799 19.4668C40.904 19.4668 41.3665 19.5557 41.7676 19.7334C42.1686 19.9066 42.5036 20.1527 42.7725 20.4717C43.0413 20.7907 43.2441 21.1735 43.3809 21.6201C43.5176 22.0622 43.5859 22.5521 43.5859 23.0898V23.8486H37.7891V22.6045H41.8086V22.4678C41.7995 22.1807 41.7448 21.9186 41.6445 21.6816C41.5443 21.4401 41.3893 21.2487 41.1797 21.1074C40.9701 20.9616 40.6989 20.8887 40.3662 20.8887C40.0973 20.8887 39.8626 20.9479 39.6621 21.0664C39.4661 21.1803 39.3021 21.3444 39.1699 21.5586C39.0423 21.7682 38.9466 22.0189 38.8828 22.3105C38.819 22.6022 38.7871 22.9258 38.7871 23.2812V23.5547C38.7871 23.8646 38.8281 24.1517 38.9102 24.416C38.9967 24.6803 39.1221 24.9105 39.2861 25.1064C39.4548 25.2979 39.6553 25.4482 39.8877 25.5576C40.1247 25.6624 40.3936 25.7148 40.6943 25.7148C41.0726 25.7148 41.4144 25.6419 41.7197 25.4961C42.0296 25.3457 42.2985 25.1247 42.5264 24.833L43.4355 25.7764C43.2806 26.0042 43.071 26.223 42.8066 26.4326C42.5469 26.6423 42.2324 26.8132 41.8633 26.9453C41.4941 27.0729 41.068 27.1367 40.585 27.1367ZM46.5664 21.1826V27H44.7617V19.6035H46.457L46.5664 21.1826ZM46.2793 23.0352H45.7461C45.7507 22.4974 45.8236 22.0098 45.9648 21.5723C46.1061 21.1348 46.3044 20.7588 46.5596 20.4443C46.8193 20.1299 47.127 19.8883 47.4824 19.7197C47.8379 19.5511 48.2344 19.4668 48.6719 19.4668C49.0273 19.4668 49.3486 19.5169 49.6357 19.6172C49.9229 19.7174 50.1689 19.877 50.374 20.0957C50.5837 20.3145 50.7432 20.6016 50.8525 20.957C50.9665 21.3079 51.0234 21.7409 51.0234 22.2559V27H49.2051V22.2422C49.2051 21.9049 49.1549 21.6383 49.0547 21.4424C48.959 21.2464 48.8177 21.1074 48.6309 21.0254C48.4486 20.9434 48.223 20.9023 47.9541 20.9023C47.6761 20.9023 47.4323 20.9593 47.2227 21.0732C47.0176 21.1826 46.8444 21.3353 46.7031 21.5312C46.5664 21.7272 46.4616 21.9528 46.3887 22.208C46.3158 22.4632 46.2793 22.7389 46.2793 23.0352ZM56.1162 19.6035V20.9023H51.8779V19.6035H56.1162ZM53.0127 17.7852H54.8242V24.8672C54.8242 25.0859 54.8538 25.2546 54.9131 25.373C54.9723 25.4915 55.0612 25.5713 55.1797 25.6123C55.2982 25.6533 55.4395 25.6738 55.6035 25.6738C55.722 25.6738 55.8314 25.667 55.9316 25.6533C56.0319 25.6396 56.1162 25.626 56.1846 25.6123L56.1914 26.9658C56.041 27.016 55.8701 27.057 55.6787 27.0889C55.4919 27.1208 55.2799 27.1367 55.043 27.1367C54.6374 27.1367 54.2819 27.0684 53.9766 26.9316C53.6712 26.7904 53.4342 26.5648 53.2656 26.2549C53.097 25.9404 53.0127 25.5257 53.0127 25.0107V17.7852Z" fill="#00AA90"/>
</svg>
