<svg width="42" height="38" viewBox="0 0 42 38" fill="none" xmlns="http://www.w3.org/2000/svg">
<path d="M31.8224 29.8224L39 37M24.7498 32.6492C23.5354 32.8796 22.2822 33 21.001 33C12.0456 33 4.46502 27.1142 1.9165 19C2.6103 16.791 3.67702 14.7472 5.04286 12.9424L24.7498 32.6492ZM16.7574 14.7574C17.8432 13.6716 19.3432 13 21 13C24.3138 13 27 15.6862 27 19C27 20.6568 26.3284 22.1568 25.2426 23.2426L16.7574 14.7574ZM16.7574 14.7574L25.2426 23.2426L16.7574 14.7574ZM16.7574 14.7574L10.1783 8.17832L16.7574 14.7574ZM25.2426 23.2426L31.8224 29.8224L25.2426 23.2426ZM3 1L10.1783 8.17832L3 1ZM10.1783 8.17832C13.298 6.16708 17.0132 5 21.0008 5C29.9562 5 37.5368 10.8858 40.0852 19C38.6714 23.5014 35.709 27.317 31.8224 29.8224L10.1783 8.17832Z" stroke="#969696" stroke-width="2" stroke-linecap="round" stroke-linejoin="round"/>
</svg>
