<svg width="418" height="128" viewBox="0 0 418 128" fill="none" xmlns="http://www.w3.org/2000/svg">
<path d="M139.977 58.7095C139.977 70.5602 130.448 80.1134 118.627 80.1134C106.807 80.1134 97.2781 70.5602 97.2781 58.7095C97.2781 46.8587 106.807 37.3056 118.627 37.3056C130.448 37.3056 139.977 46.9192 139.977 58.7095Z" fill="#4954A0"/>
<path opacity="0.25" d="M132.74 58.7095C132.679 56.291 131.895 53.9329 130.568 51.9377C129.664 50.6679 128.578 49.5796 127.312 48.7331C125.683 47.8262 123.874 47.1611 122.065 46.7379C128.699 48.6122 132.498 55.505 130.629 62.1559C130.508 62.5187 130.388 62.821 130.267 63.1838L123.452 65.5418L122.608 65.3L112.114 68.3231L109.883 72.5555C109.883 72.5555 109.943 74.7926 118.989 73.0997C123.874 72.1927 129.965 69.2301 131.835 64.3326C132.498 62.5187 132.8 60.5839 132.74 58.7095Z" fill="#010101"/>
<path d="M131.051 58.7095C131.051 65.6023 125.503 71.1649 118.627 71.1649C111.752 71.1649 106.204 65.6023 106.204 58.7095C106.204 51.8167 111.752 46.2542 118.627 46.2542C125.503 46.2542 131.051 51.8167 131.051 58.7095Z" fill="url(#paint0_linear_56_92)"/>
<path d="M123.754 70.0765C123.754 70.0765 119.532 72.0113 112.476 72.9787C109.521 73.402 109.581 72.495 110.184 71.3462C111.33 69.1696 110.486 68.1417 109.34 66.9929" fill="url(#paint1_linear_56_92)"/>
<path d="M119.773 56.4723C119.411 59.1932 117.421 61.1885 115.491 60.9466C113.561 60.7047 112.174 58.2258 112.596 55.4445C113.019 52.6632 114.948 50.7284 116.878 50.9702C118.808 51.2121 120.135 53.7515 119.773 56.4723Z" fill="#374C57"/>
<path d="M116.878 51.0307C115.913 50.9098 114.949 51.2726 114.285 51.9981C114.707 51.8772 115.129 51.8167 115.612 51.8772C117.723 52.1795 119.11 54.7794 118.688 57.6816C118.567 58.6491 118.266 59.556 117.723 60.342C118.869 59.3746 119.653 57.984 119.773 56.5329C120.135 53.7516 118.869 51.2726 116.878 51.0307Z" fill="#010101"/>
<path d="M128.699 57.1375C128.518 59.4955 127.071 61.3094 125.442 61.1885C123.814 61.0676 122.668 59.0118 122.849 56.6538C123.03 54.2957 124.477 52.4818 126.106 52.6028C127.734 52.7237 128.88 54.7794 128.699 57.1375Z" fill="#374C57"/>
<path d="M126.106 52.6027C125.322 52.6027 124.538 52.905 124.055 53.5701C124.357 53.4492 124.719 53.3887 125.08 53.3887C126.829 53.5097 128.036 55.6863 127.855 58.1653C127.794 58.9513 127.553 59.7373 127.191 60.4629C128.096 59.556 128.639 58.3467 128.699 57.077C128.88 54.7794 127.734 52.7236 126.106 52.6027Z" fill="#010101"/>
<path d="M52.0464 57.9839V73.1601C47.8851 76.1228 41.3115 78.239 35.8837 78.239C24.0632 78.239 15.0771 69.6533 15.0771 58.2862C15.0771 46.9192 24.2441 38.4544 36.5471 38.4544C42.3367 38.4544 48.4279 40.6915 52.4083 44.2588L46.8599 51.0307C44.0254 48.4308 40.3465 46.9192 36.4868 46.7983C30.094 46.7983 25.209 51.8167 25.209 58.3467C25.209 64.9976 30.1543 69.9556 36.6074 69.9556C39.0197 69.8347 41.3718 69.1696 43.4826 68.0812V57.9839H52.0464Z" fill="#384056"/>
<path d="M84.9147 77.8158V62.6396H68.8123V77.8158H58.9216V38.8172H68.8123V54.8399H84.9147V38.8172H94.8053V77.8158H84.9147Z" fill="#384056"/>
<path d="M174.775 42.6868L171.036 50.4261C166.935 48.0076 161.748 46.3751 158.612 46.3751C156.079 46.3751 154.33 47.3425 154.33 49.2168C154.33 55.9887 174.895 52.1191 174.895 66.2069C174.895 74.0066 168.02 78.1181 159.336 78.1181C152.883 78.0577 146.611 75.881 141.545 71.8904L145.404 64.2721C149.385 67.779 155.416 70.137 159.456 70.137C162.592 70.137 164.522 68.9882 164.522 66.7511C164.522 59.8583 143.957 63.9698 143.957 50.1238C143.957 42.9287 150.109 38.394 159.456 38.394C164.884 38.394 170.191 39.8451 174.775 42.6868Z" fill="#384056"/>
<path d="M198.295 46.7983V77.8158H188.405V46.7983H176.765V38.7567H209.995V46.7983H198.295Z" fill="#384056"/>
<path d="M308.962 101.275C308.962 103.573 307.394 105.024 305.343 105.024C304.378 105.024 303.594 104.722 303.051 104.057V104.903H301.061V94.9268H303.172V98.4336C303.715 97.829 304.439 97.5871 305.343 97.5871C307.394 97.5871 308.962 99.0382 308.962 101.275ZM306.851 101.275C306.851 100.006 306.067 99.2801 305.042 99.2801C304.016 99.2801 303.232 100.006 303.232 101.275C303.232 102.545 304.016 103.271 305.042 103.271C306.067 103.271 306.851 102.545 306.851 101.275Z" fill="#394056"/>
<path d="M317.345 97.6476L314.088 105.326C313.364 107.08 312.399 107.624 311.073 107.624C310.349 107.624 309.505 107.382 309.082 106.959L309.866 105.447C310.168 105.75 310.65 105.931 311.073 105.931C311.676 105.931 311.977 105.689 312.279 105.024V104.964L309.143 97.6476H311.314L313.364 102.545L315.415 97.6476H317.345Z" fill="#394056"/>
<path d="M322.169 95.4709H324.341V103.089H329.045V104.843H322.169V95.4709Z" fill="#394056"/>
<path d="M337.126 101.88H331.638C331.819 102.787 332.603 103.331 333.688 103.331C334.472 103.331 335.015 103.089 335.498 102.606L336.583 103.815C335.92 104.601 334.895 104.964 333.628 104.964C331.155 104.964 329.527 103.392 329.527 101.215C329.527 99.0382 331.155 97.4662 333.387 97.4662C335.498 97.4662 337.126 98.9173 337.126 101.215C337.126 101.457 337.126 101.699 337.126 101.88ZM331.638 100.671H335.196C335.075 99.7638 334.352 99.1592 333.447 99.1592C332.422 99.1592 331.759 99.7033 331.638 100.671Z" fill="#394056"/>
<path d="M345.871 94.9268V104.903H343.881V104.057C343.338 104.661 342.614 105.024 341.649 105.024C339.599 105.024 338.031 103.573 338.031 101.275C338.031 98.9778 339.599 97.5267 341.649 97.5267C342.554 97.5267 343.277 97.829 343.82 98.3731V94.9268H345.871ZM343.82 101.275C343.82 100.006 343.036 99.2801 342.011 99.2801C340.986 99.2801 340.141 100.006 340.141 101.275C340.141 102.545 340.925 103.271 342.011 103.271C343.036 103.271 343.82 102.545 343.82 101.275Z" fill="#394056"/>
<path d="M355.279 97.6476V103.694C355.279 106.415 353.831 107.624 351.238 107.624C349.851 107.624 348.524 107.261 347.68 106.657L348.524 105.145C349.127 105.629 350.153 105.991 351.057 105.991C352.505 105.991 353.168 105.326 353.168 103.996V103.694C352.625 104.298 351.841 104.601 350.876 104.601C348.886 104.601 347.258 103.21 347.258 101.094C347.258 98.9777 348.886 97.5871 350.876 97.5871C351.902 97.5871 352.686 97.9499 353.289 98.615V97.708H355.279V97.6476ZM353.228 101.033C353.228 99.9452 352.444 99.2801 351.359 99.2801C350.273 99.2801 349.429 100.006 349.429 101.033C349.429 102.061 350.213 102.787 351.359 102.787C352.444 102.847 353.228 102.122 353.228 101.033Z" fill="#394056"/>
<path d="M364.265 101.88H358.777C358.958 102.787 359.742 103.331 360.827 103.331C361.611 103.331 362.154 103.089 362.637 102.606L363.722 103.815C363.059 104.601 362.033 104.964 360.767 104.964C358.294 104.964 356.666 103.392 356.666 101.215C356.666 99.0382 358.294 97.4662 360.526 97.4662C362.637 97.4662 364.265 98.9173 364.265 101.215C364.325 101.457 364.265 101.699 364.265 101.88ZM358.777 100.671H362.335C362.214 99.7638 361.491 99.1592 360.586 99.1592C359.621 99.1592 358.897 99.7033 358.777 100.671Z" fill="#394056"/>
<path d="M370.175 97.5872V99.522C369.994 99.522 369.874 99.522 369.693 99.522C368.547 99.522 367.763 100.127 367.763 101.517V104.964H365.652V97.7081H367.642V98.6755C368.185 97.9499 369.09 97.5872 370.175 97.5872Z" fill="#394056"/>
<path d="M370.778 103.996L371.502 102.364C372.286 102.968 373.492 103.331 374.578 103.331C375.844 103.331 376.387 102.908 376.387 102.303C376.387 100.55 370.899 101.759 370.899 98.2522C370.899 96.6802 372.165 95.2896 374.879 95.2896C376.085 95.2896 377.292 95.5919 378.136 96.136L377.473 97.7685C376.628 97.2848 375.724 97.043 374.879 97.043C373.613 97.043 373.07 97.5267 373.07 98.1313C373.07 99.8847 378.558 98.6755 378.558 102.122C378.558 103.694 377.231 105.024 374.578 105.024C373.13 105.085 371.623 104.601 370.778 103.996Z" fill="#394056"/>
<path d="M379.402 101.275C379.402 99.0987 381.091 97.5267 383.443 97.5267C384.951 97.5267 386.157 98.1918 386.7 99.3406L385.071 100.187C384.71 99.5219 384.106 99.2196 383.443 99.2196C382.358 99.2196 381.574 99.9452 381.574 101.215C381.574 102.485 382.418 103.21 383.443 103.21C384.106 103.21 384.649 102.908 385.071 102.243L386.7 103.15C386.157 104.299 385.011 104.964 383.443 104.964C381.091 105.024 379.402 103.452 379.402 101.275Z" fill="#394056"/>
<path d="M387.243 101.275C387.243 99.0987 388.931 97.5267 391.223 97.5267C393.515 97.5267 395.203 99.0987 395.203 101.275C395.203 103.452 393.515 105.024 391.223 105.024C388.931 105.024 387.243 103.452 387.243 101.275ZM393.032 101.275C393.032 100.006 392.248 99.2801 391.223 99.2801C390.198 99.2801 389.353 100.006 389.353 101.275C389.353 102.545 390.137 103.271 391.223 103.271C392.248 103.271 393.032 102.545 393.032 101.275Z" fill="#394056"/>
<path d="M401.053 97.5872V99.522C400.872 99.522 400.752 99.522 400.571 99.522C399.425 99.522 398.641 100.127 398.641 101.517V104.964H396.53V97.7081H398.52V98.6755C399.063 97.9499 399.968 97.5872 401.053 97.5872Z" fill="#394056"/>
<path d="M409.255 101.88H403.767C403.948 102.787 404.732 103.331 405.818 103.331C406.602 103.331 407.144 103.089 407.627 102.606L408.713 103.815C408.049 104.601 407.024 104.964 405.757 104.964C403.285 104.964 401.656 103.392 401.656 101.215C401.656 99.0383 403.285 97.4662 405.516 97.4662C407.627 97.4662 409.255 98.9174 409.255 101.215C409.316 101.457 409.316 101.699 409.255 101.88ZM403.767 100.671H407.325C407.205 99.7638 406.481 99.1592 405.576 99.1592C404.612 99.1592 403.948 99.7034 403.767 100.671Z" fill="#394056"/>
<path d="M218.257 77.453V39.2405C218.257 38.9986 218.378 38.8777 218.619 38.8777H219.343C219.524 38.8777 219.705 38.9986 219.705 39.2405V77.5135C219.705 77.7553 219.584 77.8763 219.343 77.8763H218.619C218.438 77.8158 218.257 77.6949 218.257 77.453Z" fill="#26235D"/>
<path d="M228.269 64.0302C228.269 55.9887 233.696 49.7005 242.381 49.7005C248.532 49.7005 253.237 52.9655 255.227 58.3467V37.9103C255.227 37.7289 255.347 37.5475 255.589 37.5475H256.252C256.493 37.5475 256.614 37.6684 256.614 37.9103V77.453C256.614 77.6344 256.493 77.8158 256.252 77.8158H255.589C255.347 77.8158 255.227 77.6949 255.227 77.453V69.7742C253.237 75.095 248.532 78.4204 242.381 78.4204C233.696 78.4204 228.269 72.0718 228.269 64.0302ZM255.227 64.0302C255.227 56.1701 249.678 50.9098 242.321 50.9098C234.48 50.9098 229.595 56.6538 229.595 64.0302C229.595 71.4067 234.48 77.2112 242.321 77.2112C249.678 77.2112 255.227 71.83 255.227 64.0302Z" fill="#26235D"/>
<path d="M264.152 64.1511C264.152 56.2305 270.304 49.7005 278.868 49.7005C285.381 49.7005 291.593 53.5097 292.136 62.3977C292.136 62.6396 292.015 62.7605 291.774 62.7605H265.6C264.695 70.8625 270.907 77.2716 279.41 77.2716C282.607 77.2716 286.346 76.3647 289.361 73.5229C289.482 73.3415 289.723 73.3415 289.784 73.5229L290.206 74.0066C290.326 74.188 290.326 74.3694 290.145 74.4903C286.949 77.5134 282.908 78.4204 279.41 78.4204C270.244 78.4204 264.152 71.9509 264.152 64.1511ZM290.688 61.5512C289.964 54.2352 284.657 50.8493 278.868 50.8493C271.872 50.8493 266.866 55.6863 265.781 61.5512H290.688Z" fill="#26235D"/>
<path d="M299.312 77.453V50.6074C299.312 50.4261 299.433 50.2447 299.674 50.2447H300.338C300.579 50.2447 300.699 50.3656 300.699 50.6074V57.0165C302.991 51.4539 308.178 49.7005 311.193 49.7005C316.802 49.7005 323.014 52.1795 323.014 61.8536V77.453C323.014 77.6344 322.893 77.8158 322.652 77.8158H321.988C321.747 77.8158 321.627 77.6948 321.627 77.453V61.8536C321.627 53.1469 316.139 50.9098 311.133 50.9098C307.695 50.9098 300.88 53.5701 300.639 63.0023V77.5134C300.639 77.7553 300.519 77.8762 300.277 77.8762H299.614C299.433 77.8158 299.312 77.6948 299.312 77.453Z" fill="#26235D"/>
<path d="M332.904 69.4719V51.5144H328.2C327.959 51.5144 327.838 51.3935 327.838 51.1516V50.6075C327.838 50.3656 327.959 50.2447 328.2 50.2447H332.904L333.266 41.2962C333.266 41.1148 333.447 40.9334 333.628 40.9334H333.93C334.171 40.9334 334.291 41.0543 334.291 41.2962V50.2447H343.157C343.398 50.2447 343.519 50.3656 343.519 50.6075V51.1516C343.519 51.3935 343.398 51.5144 343.157 51.5144H334.231V69.4719C334.231 76.0624 337.307 77.2112 340.081 77.2112C343.398 77.2112 345.449 74.974 345.449 72.0718C345.449 72.0718 345.449 71.5277 345.328 71.0439C345.268 70.7416 345.388 70.6812 345.629 70.6812H346.233C346.413 70.6812 346.594 70.8021 346.594 70.9835C346.775 71.5881 346.775 72.0718 346.775 72.0718C346.775 75.6391 344.303 78.4204 340.081 78.4204C336.583 78.4204 332.904 77.0902 332.904 69.4719Z" fill="#26235D"/>
<path d="M351.902 40.2078C351.902 39.18 352.384 38.6358 353.168 38.6358C353.952 38.6358 354.435 39.18 354.435 40.2078C354.435 41.2357 353.952 41.7799 353.168 41.7799C352.384 41.7799 351.902 41.2357 351.902 40.2078ZM352.565 77.453V50.6075C352.565 50.4261 352.686 50.2447 352.927 50.2447H353.59C353.831 50.2447 353.952 50.3656 353.952 50.6075V77.453C353.952 77.6344 353.831 77.8158 353.59 77.8158H352.927C352.686 77.8158 352.565 77.6949 352.565 77.453Z" fill="#26235D"/>
<path d="M364.928 69.4719V51.5144H360.224C359.983 51.5144 359.862 51.3935 359.862 51.1516V50.6075C359.862 50.3656 359.983 50.2447 360.224 50.2447H364.928L365.29 41.2962C365.29 41.1148 365.471 40.9334 365.652 40.9334H365.953C366.195 40.9334 366.315 41.0543 366.315 41.2962V50.2447H375.241C375.482 50.2447 375.603 50.3656 375.603 50.6075V51.1516C375.603 51.3935 375.482 51.5144 375.241 51.5144H366.315V69.4719C366.315 76.0624 369.391 77.2112 372.165 77.2112C375.482 77.2112 377.533 74.974 377.533 72.0718C377.533 72.0718 377.533 71.5277 377.412 71.0439C377.352 70.7416 377.472 70.6812 377.714 70.6812H378.317C378.498 70.6812 378.679 70.8021 378.679 70.9835C378.86 71.5881 378.86 72.0718 378.86 72.0718C378.86 75.6391 376.387 78.4204 372.165 78.4204C368.667 78.4204 364.928 77.0902 364.928 69.4719Z" fill="#26235D"/>
<path d="M388.207 89.8479L392.791 78.6623L380.729 50.6075C380.609 50.3052 380.789 50.2447 381.031 50.2447H381.815C381.996 50.2447 382.177 50.3656 382.177 50.547L393.515 77.1507L404.551 50.547C404.611 50.3052 404.792 50.2447 404.913 50.2447H405.697C405.938 50.2447 406.059 50.3656 405.999 50.6075L389.474 89.9084C389.414 90.1502 389.233 90.2107 389.112 90.2107H388.509C388.268 90.2711 388.087 90.1502 388.207 89.8479Z" fill="#26235D"/>
<defs>
<linearGradient id="paint0_linear_56_92" x1="106.672" y1="52.2561" x2="122.582" y2="60.8199" gradientUnits="userSpaceOnUse">
<stop offset="0.16" stop-color="#D5EFFB"/>
<stop offset="0.52" stop-color="white"/>
</linearGradient>
<linearGradient id="paint1_linear_56_92" x1="100.958" y1="62.862" x2="116.867" y2="71.4319" gradientUnits="userSpaceOnUse">
<stop offset="0.16" stop-color="#D5EFFB"/>
<stop offset="0.52" stop-color="white"/>
</linearGradient>
</defs>
</svg>
