<svg width="1104" height="133" viewBox="0 0 1104 133" fill="none" xmlns="http://www.w3.org/2000/svg">
<rect width="406" height="65" transform="translate(698)" fill="white"/>
<path d="M1064.94 27.9437L1063.17 29.5345L1060 26.6815V41.5H1057.5V26.6815L1054.33 29.5345L1052.56 27.9437L1058.75 22.375L1064.94 27.9437ZM1077.44 37.0562L1071.25 42.625L1065.06 37.0562L1066.83 35.4655L1070 38.3185L1070 23.5H1072.5V38.3185L1075.67 35.4655L1077.44 37.0562V37.0562Z" fill="#969696"/>
<path d="M0 64H694V133H0V64Z" fill="#F8F8FE"/>
<line x1="698" y1="64.5" x2="1104" y2="64.4999" stroke="#E3E8EE"/>
<path d="M716.643 40L723.893 32.5L716.643 25V40Z" fill="#969696"/>
<path d="M745.501 25.7812H747.689L751.8 36.748L755.902 25.7812H758.089L752.66 40H750.921L745.501 25.7812ZM744.505 25.7812H746.585L746.947 35.2734V40H744.505V25.7812ZM757.005 25.7812H759.095V40H756.644V35.2734L757.005 25.7812ZM767.728 37.8809V32.8418C767.728 32.4642 767.66 32.1387 767.523 31.8652C767.386 31.5918 767.178 31.3802 766.898 31.2305C766.625 31.0807 766.279 31.0059 765.863 31.0059C765.479 31.0059 765.147 31.071 764.867 31.2012C764.587 31.3314 764.369 31.5072 764.212 31.7285C764.056 31.9499 763.978 32.2005 763.978 32.4805H761.634C761.634 32.0638 761.735 31.6602 761.937 31.2695C762.139 30.8789 762.432 30.5306 762.816 30.2246C763.2 29.9186 763.659 29.6777 764.193 29.502C764.727 29.3262 765.326 29.2383 765.99 29.2383C766.784 29.2383 767.487 29.3717 768.099 29.6387C768.718 29.9056 769.203 30.3092 769.554 30.8496C769.912 31.3835 770.091 32.054 770.091 32.8613V37.5586C770.091 38.0404 770.124 38.4733 770.189 38.8574C770.261 39.235 770.361 39.5638 770.492 39.8438V40H768.08C767.969 39.7461 767.881 39.4238 767.816 39.0332C767.757 38.6361 767.728 38.252 767.728 37.8809ZM768.07 33.5742L768.089 35.0293H766.4C765.964 35.0293 765.58 35.0716 765.248 35.1562C764.916 35.2344 764.639 35.3516 764.417 35.5078C764.196 35.6641 764.03 35.8529 763.919 36.0742C763.809 36.2956 763.753 36.5462 763.753 36.8262C763.753 37.1061 763.819 37.3633 763.949 37.5977C764.079 37.8255 764.268 38.0046 764.515 38.1348C764.769 38.265 765.075 38.3301 765.433 38.3301C765.915 38.3301 766.335 38.2324 766.693 38.0371C767.057 37.8353 767.344 37.5911 767.552 37.3047C767.761 37.0117 767.871 36.735 767.884 36.4746L768.646 37.5195C768.568 37.7865 768.434 38.0729 768.246 38.3789C768.057 38.6849 767.809 38.9779 767.503 39.2578C767.204 39.5312 766.843 39.7559 766.419 39.9316C766.003 40.1074 765.521 40.1953 764.974 40.1953C764.284 40.1953 763.669 40.0586 763.128 39.7852C762.588 39.5052 762.165 39.1309 761.859 38.6621C761.553 38.1868 761.4 37.6497 761.4 37.0508C761.4 36.4909 761.504 35.9961 761.712 35.5664C761.927 35.1302 762.24 34.7656 762.65 34.4727C763.067 34.1797 763.574 33.9583 764.173 33.8086C764.772 33.6523 765.456 33.5742 766.224 33.5742H768.07ZM774.916 31.4453V40H772.562V29.4336H774.808L774.916 31.4453ZM778.148 29.3652L778.128 31.5527C777.985 31.5267 777.829 31.5072 777.66 31.4941C777.497 31.4811 777.334 31.4746 777.171 31.4746C776.768 31.4746 776.413 31.5332 776.107 31.6504C775.801 31.7611 775.544 31.9238 775.335 32.1387C775.134 32.347 774.977 32.6009 774.867 32.9004C774.756 33.1999 774.691 33.5352 774.671 33.9062L774.134 33.9453C774.134 33.2812 774.199 32.666 774.33 32.0996C774.46 31.5332 774.655 31.0352 774.916 30.6055C775.182 30.1758 775.514 29.8405 775.912 29.5996C776.315 29.3587 776.781 29.2383 777.308 29.2383C777.451 29.2383 777.604 29.2513 777.767 29.2773C777.936 29.3034 778.063 29.3327 778.148 29.3652ZM781.996 25V40H779.632V25H781.996ZM788.558 29.4336L783.958 34.5312L781.439 37.1094L780.824 35.1172L782.728 32.7637L785.716 29.4336H788.558ZM786.224 40L782.796 35.0391L784.281 33.3887L788.949 40H786.224ZM794.515 40.1953C793.734 40.1953 793.028 40.0684 792.396 39.8145C791.771 39.554 791.237 39.1927 790.794 38.7305C790.358 38.2682 790.023 37.7246 789.789 37.0996C789.554 36.4746 789.437 35.8008 789.437 35.0781V34.6875C789.437 33.8607 789.557 33.112 789.798 32.4414C790.039 31.7708 790.375 31.1979 790.804 30.7227C791.234 30.2409 791.742 29.873 792.328 29.6191C792.914 29.3652 793.548 29.2383 794.232 29.2383C794.987 29.2383 795.648 29.3652 796.214 29.6191C796.781 29.873 797.25 30.2311 797.621 30.6934C797.998 31.1491 798.278 31.6927 798.46 32.3242C798.649 32.9557 798.744 33.6523 798.744 34.4141V35.4199H790.58V33.7305H796.419V33.5449C796.406 33.1217 796.322 32.7246 796.166 32.3535C796.016 31.9824 795.785 31.6829 795.472 31.4551C795.16 31.2272 794.743 31.1133 794.222 31.1133C793.832 31.1133 793.483 31.1979 793.177 31.3672C792.878 31.5299 792.627 31.7676 792.425 32.0801C792.223 32.3926 792.067 32.7702 791.957 33.2129C791.852 33.6491 791.8 34.1406 791.8 34.6875V35.0781C791.8 35.5404 791.862 35.9701 791.986 36.3672C792.116 36.7578 792.305 37.0996 792.552 37.3926C792.8 37.6855 793.099 37.9167 793.451 38.0859C793.802 38.2487 794.203 38.3301 794.652 38.3301C795.218 38.3301 795.723 38.2161 796.166 37.9883C796.608 37.7604 796.992 37.4382 797.318 37.0215L798.558 38.2227C798.33 38.5547 798.034 38.8737 797.669 39.1797C797.305 39.4792 796.859 39.7233 796.332 39.9121C795.811 40.1009 795.205 40.1953 794.515 40.1953ZM805.423 29.4336V31.1523H799.466V29.4336H805.423ZM801.185 26.8457H803.539V37.0801C803.539 37.4056 803.584 37.6562 803.675 37.832C803.773 38.0013 803.906 38.1152 804.076 38.1738C804.245 38.2324 804.444 38.2617 804.671 38.2617C804.834 38.2617 804.99 38.252 805.14 38.2324C805.29 38.2129 805.41 38.1934 805.501 38.1738L805.511 39.9707C805.316 40.0293 805.088 40.0814 804.828 40.127C804.574 40.1725 804.281 40.1953 803.949 40.1953C803.408 40.1953 802.93 40.1009 802.513 39.9121C802.097 39.7168 801.771 39.401 801.537 38.9648C801.302 38.5286 801.185 37.9492 801.185 37.2266V26.8457ZM820.853 35.3711H823.294C823.216 36.3021 822.956 37.1322 822.513 37.8613C822.07 38.584 821.449 39.1536 820.648 39.5703C819.847 39.987 818.874 40.1953 817.728 40.1953C816.849 40.1953 816.058 40.0391 815.355 39.7266C814.652 39.4076 814.05 38.9583 813.548 38.3789C813.047 37.793 812.663 37.0866 812.396 36.2598C812.136 35.4329 812.005 34.5085 812.005 33.4863V32.3047C812.005 31.2826 812.139 30.3581 812.406 29.5312C812.679 28.7044 813.07 27.998 813.578 27.4121C814.085 26.8197 814.694 26.3672 815.404 26.0547C816.12 25.7422 816.924 25.5859 817.816 25.5859C818.949 25.5859 819.906 25.7943 820.687 26.2109C821.468 26.6276 822.074 27.2038 822.503 27.9395C822.94 28.6751 823.207 29.5182 823.304 30.4688H820.863C820.798 29.8568 820.654 29.3327 820.433 28.8965C820.218 28.4603 819.899 28.1283 819.476 27.9004C819.053 27.666 818.5 27.5488 817.816 27.5488C817.256 27.5488 816.768 27.653 816.351 27.8613C815.934 28.0697 815.586 28.3757 815.306 28.7793C815.026 29.1829 814.815 29.681 814.671 30.2734C814.535 30.8594 814.466 31.5299 814.466 32.2852V33.4863C814.466 34.2025 814.528 34.8535 814.652 35.4395C814.782 36.0189 814.977 36.5169 815.238 36.9336C815.505 37.3503 815.843 37.6725 816.253 37.9004C816.664 38.1283 817.155 38.2422 817.728 38.2422C818.425 38.2422 818.988 38.1315 819.417 37.9102C819.854 37.6888 820.182 37.3665 820.404 36.9434C820.632 36.5137 820.781 35.9896 820.853 35.3711ZM831.244 37.8809V32.8418C831.244 32.4642 831.175 32.1387 831.039 31.8652C830.902 31.5918 830.694 31.3802 830.414 31.2305C830.14 31.0807 829.795 31.0059 829.378 31.0059C828.994 31.0059 828.662 31.071 828.382 31.2012C828.102 31.3314 827.884 31.5072 827.728 31.7285C827.572 31.9499 827.494 32.2005 827.494 32.4805H825.15C825.15 32.0638 825.251 31.6602 825.453 31.2695C825.654 30.8789 825.947 30.5306 826.332 30.2246C826.716 29.9186 827.175 29.6777 827.708 29.502C828.242 29.3262 828.841 29.2383 829.505 29.2383C830.3 29.2383 831.003 29.3717 831.615 29.6387C832.233 29.9056 832.718 30.3092 833.07 30.8496C833.428 31.3835 833.607 32.054 833.607 32.8613V37.5586C833.607 38.0404 833.639 38.4733 833.705 38.8574C833.776 39.235 833.877 39.5638 834.007 39.8438V40H831.595C831.485 39.7461 831.397 39.4238 831.332 39.0332C831.273 38.6361 831.244 38.252 831.244 37.8809ZM831.585 33.5742L831.605 35.0293H829.916C829.479 35.0293 829.095 35.0716 828.763 35.1562C828.431 35.2344 828.154 35.3516 827.933 35.5078C827.712 35.6641 827.546 35.8529 827.435 36.0742C827.324 36.2956 827.269 36.5462 827.269 36.8262C827.269 37.1061 827.334 37.3633 827.464 37.5977C827.595 37.8255 827.783 38.0046 828.031 38.1348C828.285 38.265 828.591 38.3301 828.949 38.3301C829.431 38.3301 829.85 38.2324 830.208 38.0371C830.573 37.8353 830.86 37.5911 831.068 37.3047C831.276 37.0117 831.387 36.735 831.4 36.4746L832.162 37.5195C832.083 37.7865 831.95 38.0729 831.761 38.3789C831.572 38.6849 831.325 38.9779 831.019 39.2578C830.72 39.5312 830.358 39.7559 829.935 39.9316C829.518 40.1074 829.037 40.1953 828.49 40.1953C827.8 40.1953 827.184 40.0586 826.644 39.7852C826.104 39.5052 825.681 39.1309 825.375 38.6621C825.069 38.1868 824.916 37.6497 824.916 37.0508C824.916 36.4909 825.02 35.9961 825.228 35.5664C825.443 35.1302 825.755 34.7656 826.166 34.4727C826.582 34.1797 827.09 33.9583 827.689 33.8086C828.288 33.6523 828.972 33.5742 829.74 33.5742H831.585ZM838.431 31.4648V44.0625H836.078V29.4336H838.246L838.431 31.4648ZM845.316 34.6191V34.8242C845.316 35.5924 845.225 36.3053 845.042 36.9629C844.867 37.6139 844.603 38.1836 844.251 38.6719C843.906 39.1536 843.48 39.528 842.972 39.7949C842.464 40.0618 841.878 40.1953 841.214 40.1953C840.557 40.1953 839.981 40.0749 839.486 39.834C838.998 39.5866 838.584 39.2383 838.246 38.7891C837.907 38.3398 837.634 37.8125 837.425 37.207C837.223 36.5951 837.08 35.9245 836.996 35.1953V34.4043C837.08 33.6296 837.223 32.9264 837.425 32.2949C837.634 31.6634 837.907 31.1198 838.246 30.6641C838.584 30.2083 838.998 29.8568 839.486 29.6094C839.974 29.362 840.544 29.2383 841.195 29.2383C841.859 29.2383 842.448 29.3685 842.962 29.6289C843.477 29.8828 843.91 30.2474 844.261 30.7227C844.613 31.1914 844.876 31.7578 845.052 32.4219C845.228 33.0794 845.316 33.8118 845.316 34.6191ZM842.962 34.8242V34.6191C842.962 34.1309 842.917 33.6784 842.826 33.2617C842.735 32.8385 842.591 32.4674 842.396 32.1484C842.201 31.8294 841.95 31.582 841.644 31.4062C841.345 31.224 840.983 31.1328 840.56 31.1328C840.143 31.1328 839.785 31.2044 839.486 31.3477C839.186 31.4844 838.936 31.6764 838.734 31.9238C838.532 32.1712 838.376 32.4609 838.265 32.793C838.154 33.1185 838.076 33.4733 838.031 33.8574V35.752C838.109 36.2207 838.242 36.6504 838.431 37.041C838.62 37.4316 838.887 37.7441 839.232 37.9785C839.583 38.2064 840.033 38.3203 840.58 38.3203C841.003 38.3203 841.364 38.2292 841.664 38.0469C841.963 37.8646 842.207 37.6139 842.396 37.2949C842.591 36.9694 842.735 36.5951 842.826 36.1719C842.917 35.7487 842.962 35.2995 842.962 34.8242Z" fill="#969696"/>
</svg>
