<svg width="406" height="68" viewBox="0 0 406 68" fill="none" xmlns="http://www.w3.org/2000/svg">
<rect width="406" height="68" fill="white"/>
<g clip-path="url(#clip0_42_555)">
<path d="M40.7196 34.7657C38.9165 41.9979 31.5914 46.3993 24.3584 44.5958C17.1283 42.7927 12.7269 35.4673 14.5308 28.2355C16.3331 21.0025 23.6581 16.6006 30.889 18.4037C38.1216 20.2068 42.5226 27.5331 40.7196 34.7657Z" fill="#F7931A"/>
<path d="M33.5773 29.5767C33.8461 27.7803 32.4783 26.8146 30.6082 26.1704L31.2148 23.7371L29.7336 23.3679L29.143 25.7372C28.7536 25.6401 28.3537 25.5486 27.9563 25.4579L28.5511 23.073L27.0708 22.7039L26.4637 25.1364C26.1414 25.063 25.825 24.9905 25.5178 24.9141L25.5195 24.9065L23.4768 24.3965L23.0828 25.9785C23.0828 25.9785 24.1818 26.2303 24.1586 26.246C24.7585 26.3957 24.8669 26.7927 24.8487 27.1074L24.1577 29.8796C24.1991 29.8901 24.2526 29.9053 24.3117 29.9289C24.2623 29.9167 24.2096 29.9032 24.1552 29.8901L23.1866 33.7735C23.1131 33.9557 22.9271 34.2291 22.5078 34.1253C22.5225 34.1468 21.4311 33.8566 21.4311 33.8566L20.6958 35.5521L22.6233 36.0326C22.9819 36.1225 23.3334 36.2165 23.6793 36.3051L23.0663 38.7664L24.5458 39.1355L25.1529 36.7004C25.5571 36.8101 25.9494 36.9114 26.3333 37.0067L25.7283 39.4304L27.2096 39.7995L27.8225 37.343C30.3483 37.8209 32.2476 37.6281 33.047 35.3437C33.6912 33.5043 33.015 32.4433 31.6861 31.7514C32.6538 31.5282 33.3828 30.8916 33.5773 29.5767ZM30.1931 34.3223C29.7353 36.1617 26.6383 35.1673 25.6343 34.918L26.4476 31.6573C27.4517 31.9079 30.6715 32.4041 30.1931 34.3223ZM30.6512 29.5501C30.2336 31.2232 27.6559 30.3732 26.8197 30.1647L27.5572 27.2074C28.3933 27.4158 31.0862 27.8048 30.6512 29.5501Z" fill="white"/>
</g>
<path d="M101.984 32.0146H98.7412L98.7236 30.6523H101.668C102.154 30.6523 102.579 30.5703 102.942 30.4062C103.306 30.2422 103.587 30.0078 103.786 29.7031C103.991 29.3926 104.094 29.0234 104.094 28.5957C104.094 28.127 104.003 27.7461 103.821 27.4531C103.646 27.1543 103.373 26.9375 103.004 26.8027C102.641 26.6621 102.178 26.5918 101.615 26.5918H99.1191V38H97.4229V25.2031H101.615C102.271 25.2031 102.857 25.2705 103.373 25.4053C103.889 25.5342 104.325 25.7393 104.683 26.0205C105.046 26.2959 105.321 26.6475 105.509 27.0752C105.696 27.5029 105.79 28.0156 105.79 28.6133C105.79 29.1406 105.655 29.6182 105.386 30.0459C105.116 30.4678 104.741 30.8135 104.261 31.083C103.786 31.3525 103.229 31.5254 102.591 31.6016L101.984 32.0146ZM101.905 38H98.0732L99.0312 36.6201H101.905C102.444 36.6201 102.901 36.5264 103.276 36.3389C103.657 36.1514 103.947 35.8877 104.146 35.5479C104.346 35.2021 104.445 34.7949 104.445 34.3262C104.445 33.8516 104.36 33.4414 104.19 33.0957C104.021 32.75 103.754 32.4834 103.391 32.2959C103.027 32.1084 102.559 32.0146 101.984 32.0146H99.5674L99.585 30.6523H102.89L103.25 31.1445C103.865 31.1973 104.387 31.373 104.814 31.6719C105.242 31.9648 105.567 32.3398 105.79 32.7969C106.019 33.2539 106.133 33.7578 106.133 34.3086C106.133 35.1055 105.957 35.7793 105.605 36.3301C105.26 36.875 104.771 37.291 104.138 37.5781C103.505 37.8594 102.761 38 101.905 38ZM113.12 25.2031V38H111.45V25.2031H113.12ZM117.233 25.2031V26.5918H107.346V25.2031H117.233ZM126.611 33.9307H128.299C128.211 34.7393 127.979 35.4629 127.604 36.1016C127.229 36.7402 126.699 37.2471 126.014 37.6221C125.328 37.9912 124.473 38.1758 123.447 38.1758C122.697 38.1758 122.015 38.0352 121.399 37.7539C120.79 37.4727 120.266 37.0742 119.826 36.5586C119.387 36.0371 119.047 35.4131 118.807 34.6865C118.572 33.9541 118.455 33.1396 118.455 32.2432V30.9688C118.455 30.0723 118.572 29.2607 118.807 28.5342C119.047 27.8018 119.39 27.1748 119.835 26.6533C120.286 26.1318 120.828 25.7305 121.461 25.4492C122.094 25.168 122.806 25.0273 123.597 25.0273C124.563 25.0273 125.381 25.209 126.049 25.5723C126.717 25.9355 127.235 26.4395 127.604 27.084C127.979 27.7227 128.211 28.4639 128.299 29.3076H126.611C126.529 28.71 126.377 28.1973 126.154 27.7695C125.932 27.3359 125.615 27.002 125.205 26.7676C124.795 26.5332 124.259 26.416 123.597 26.416C123.028 26.416 122.527 26.5244 122.094 26.7412C121.666 26.958 121.306 27.2656 121.013 27.6641C120.726 28.0625 120.509 28.54 120.362 29.0967C120.216 29.6533 120.143 30.2715 120.143 30.9512V32.2432C120.143 32.8701 120.207 33.459 120.336 34.0098C120.471 34.5605 120.673 35.0439 120.942 35.46C121.212 35.876 121.555 36.2041 121.971 36.4443C122.387 36.6787 122.879 36.7959 123.447 36.7959C124.168 36.7959 124.742 36.6816 125.17 36.4531C125.598 36.2246 125.92 35.8965 126.137 35.4688C126.359 35.041 126.518 34.5283 126.611 33.9307Z" fill="#30364D"/>
<path d="M189.049 23.6289V26.3096H187.73V23.6289H189.049ZM188.891 37.9814V40.3281H187.581V37.9814H188.891ZM190.648 35.2041C190.648 34.8525 190.569 34.5361 190.411 34.2549C190.253 33.9736 189.992 33.7158 189.629 33.4814C189.266 33.2471 188.779 33.0303 188.17 32.8311C187.432 32.6025 186.793 32.3242 186.254 31.9961C185.721 31.668 185.308 31.2607 185.015 30.7744C184.728 30.2881 184.584 29.6992 184.584 29.0078C184.584 28.2871 184.739 27.666 185.05 27.1445C185.36 26.623 185.8 26.2217 186.368 25.9404C186.937 25.6592 187.604 25.5186 188.372 25.5186C188.97 25.5186 189.503 25.6094 189.972 25.791C190.44 25.9668 190.836 26.2305 191.158 26.582C191.486 26.9336 191.735 27.3643 191.905 27.874C192.081 28.3838 192.169 28.9727 192.169 29.6406H190.552C190.552 29.248 190.505 28.8877 190.411 28.5596C190.317 28.2314 190.177 27.9473 189.989 27.707C189.802 27.4609 189.573 27.2734 189.304 27.1445C189.034 27.0098 188.724 26.9424 188.372 26.9424C187.88 26.9424 187.473 27.0273 187.15 27.1973C186.834 27.3672 186.6 27.6074 186.447 27.918C186.295 28.2227 186.219 28.5771 186.219 28.9814C186.219 29.3564 186.295 29.6846 186.447 29.9658C186.6 30.2471 186.857 30.502 187.221 30.7305C187.59 30.9531 188.097 31.1729 188.741 31.3896C189.497 31.6299 190.139 31.9141 190.666 32.2422C191.193 32.5645 191.595 32.9629 191.87 33.4375C192.146 33.9062 192.283 34.4893 192.283 35.1865C192.283 35.9424 192.113 36.5811 191.773 37.1025C191.434 37.6182 190.956 38.0107 190.341 38.2803C189.726 38.5498 189.005 38.6846 188.179 38.6846C187.681 38.6846 187.188 38.6172 186.702 38.4824C186.216 38.3477 185.776 38.1279 185.384 37.8232C184.991 37.5127 184.678 37.1055 184.443 36.6016C184.209 36.0918 184.092 35.4678 184.092 34.7295H185.727C185.727 35.2275 185.797 35.6406 185.938 35.9688C186.084 36.291 186.277 36.5488 186.518 36.7422C186.758 36.9297 187.021 37.0645 187.309 37.1465C187.602 37.2227 187.892 37.2607 188.179 37.2607C188.706 37.2607 189.151 37.1787 189.515 37.0146C189.884 36.8447 190.165 36.6045 190.358 36.2939C190.552 35.9834 190.648 35.6201 190.648 35.2041ZM207.163 37.1641V38.5H198.787V37.3311L202.979 32.6641C203.495 32.0898 203.894 31.6035 204.175 31.2051C204.462 30.8008 204.661 30.4404 204.772 30.124C204.89 29.8018 204.948 29.4736 204.948 29.1396C204.948 28.7178 204.86 28.3369 204.685 27.9971C204.515 27.6514 204.263 27.376 203.929 27.1709C203.595 26.9658 203.19 26.8633 202.716 26.8633C202.147 26.8633 201.673 26.9746 201.292 27.1973C200.917 27.4141 200.636 27.7188 200.448 28.1113C200.261 28.5039 200.167 28.9551 200.167 29.4648H198.541C198.541 28.7441 198.699 28.085 199.016 27.4873C199.332 26.8896 199.801 26.415 200.422 26.0635C201.043 25.7061 201.808 25.5273 202.716 25.5273C203.524 25.5273 204.216 25.6709 204.79 25.958C205.364 26.2393 205.804 26.6377 206.108 27.1533C206.419 27.6631 206.574 28.2607 206.574 28.9463C206.574 29.3213 206.51 29.7021 206.381 30.0889C206.258 30.4697 206.085 30.8506 205.862 31.2314C205.646 31.6123 205.391 31.9873 205.098 32.3564C204.811 32.7256 204.503 33.0889 204.175 33.4463L200.747 37.1641H207.163ZM210.521 37.1377H210.688C211.625 37.1377 212.387 37.0059 212.973 36.7422C213.559 36.4785 214.01 36.124 214.326 35.6787C214.643 35.2334 214.859 34.7324 214.977 34.1758C215.094 33.6133 215.152 33.0361 215.152 32.4443V30.4844C215.152 29.9043 215.085 29.3887 214.95 28.9375C214.821 28.4863 214.64 28.1084 214.405 27.8037C214.177 27.499 213.916 27.2676 213.623 27.1094C213.33 26.9512 213.02 26.8721 212.691 26.8721C212.316 26.8721 211.979 26.9482 211.681 27.1006C211.388 27.2471 211.139 27.4551 210.934 27.7246C210.734 27.9941 210.582 28.3105 210.477 28.6738C210.371 29.0371 210.318 29.4326 210.318 29.8604C210.318 30.2412 210.365 30.6104 210.459 30.9678C210.553 31.3252 210.696 31.6475 210.89 31.9346C211.083 32.2217 211.323 32.4502 211.61 32.6201C211.903 32.7842 212.246 32.8662 212.639 32.8662C213.002 32.8662 213.342 32.7959 213.658 32.6553C213.98 32.5088 214.265 32.3125 214.511 32.0664C214.763 31.8145 214.962 31.5303 215.108 31.2139C215.261 30.8975 215.349 30.5664 215.372 30.2207H216.146C216.146 30.707 216.049 31.1875 215.855 31.6621C215.668 32.1309 215.404 32.5586 215.064 32.9453C214.725 33.332 214.326 33.6426 213.869 33.877C213.412 34.1055 212.914 34.2197 212.375 34.2197C211.742 34.2197 211.194 34.0967 210.731 33.8506C210.269 33.6045 209.888 33.2764 209.589 32.8662C209.296 32.4561 209.076 31.999 208.93 31.4951C208.789 30.9854 208.719 30.4697 208.719 29.9482C208.719 29.3389 208.804 28.7676 208.974 28.2344C209.144 27.7012 209.396 27.2324 209.729 26.8281C210.063 26.418 210.477 26.0986 210.969 25.8701C211.467 25.6416 212.041 25.5273 212.691 25.5273C213.424 25.5273 214.048 25.6738 214.563 25.9668C215.079 26.2598 215.498 26.6523 215.82 27.1445C216.148 27.6367 216.389 28.1904 216.541 28.8057C216.693 29.4209 216.77 30.0537 216.77 30.7041V31.293C216.77 31.9551 216.726 32.6289 216.638 33.3145C216.556 33.9941 216.395 34.6445 216.154 35.2656C215.92 35.8867 215.577 36.4434 215.126 36.9355C214.675 37.4219 214.086 37.8086 213.359 38.0957C212.639 38.377 211.748 38.5176 210.688 38.5176H210.521V37.1377ZM225.269 25.6855H225.409V27.0654H225.269C224.407 27.0654 223.687 27.2061 223.106 27.4873C222.526 27.7627 222.066 28.1348 221.727 28.6035C221.387 29.0664 221.141 29.5879 220.988 30.168C220.842 30.748 220.769 31.3369 220.769 31.9346V33.8154C220.769 34.3838 220.836 34.8877 220.971 35.3271C221.105 35.7607 221.29 36.127 221.524 36.4258C221.759 36.7246 222.022 36.9502 222.315 37.1025C222.614 37.2549 222.925 37.3311 223.247 37.3311C223.622 37.3311 223.956 37.2607 224.249 37.1201C224.542 36.9736 224.788 36.7715 224.987 36.5137C225.192 36.25 225.348 35.9395 225.453 35.582C225.559 35.2246 225.611 34.832 225.611 34.4043C225.611 34.0234 225.564 33.6572 225.471 33.3057C225.377 32.9482 225.233 32.6318 225.04 32.3564C224.847 32.0752 224.604 31.8555 224.311 31.6973C224.023 31.5332 223.681 31.4512 223.282 31.4512C222.831 31.4512 222.409 31.5625 222.017 31.7852C221.63 32.002 221.311 32.2891 221.059 32.6465C220.812 32.998 220.672 33.3818 220.637 33.7979L219.775 33.7891C219.857 33.1328 220.01 32.5732 220.232 32.1104C220.461 31.6416 220.742 31.2607 221.076 30.9678C221.416 30.6689 221.794 30.4521 222.21 30.3174C222.632 30.1768 223.077 30.1064 223.546 30.1064C224.185 30.1064 224.735 30.2266 225.198 30.4668C225.661 30.707 226.042 31.0293 226.341 31.4336C226.64 31.832 226.859 32.2832 227 32.7871C227.146 33.2852 227.22 33.7979 227.22 34.3252C227.22 34.9287 227.135 35.4941 226.965 36.0215C226.795 36.5488 226.54 37.0117 226.2 37.4102C225.866 37.8086 225.453 38.1191 224.961 38.3418C224.469 38.5645 223.897 38.6758 223.247 38.6758C222.556 38.6758 221.952 38.5352 221.437 38.2539C220.921 37.9668 220.493 37.5859 220.153 37.1113C219.813 36.6367 219.559 36.1094 219.389 35.5293C219.219 34.9492 219.134 34.3604 219.134 33.7627V32.998C219.134 32.0957 219.225 31.2109 219.406 30.3438C219.588 29.4766 219.901 28.6914 220.347 27.9883C220.798 27.2852 221.422 26.7256 222.219 26.3096C223.016 25.8936 224.032 25.6855 225.269 25.6855ZM230.771 37.1377H230.938C231.875 37.1377 232.637 37.0059 233.223 36.7422C233.809 36.4785 234.26 36.124 234.576 35.6787C234.893 35.2334 235.109 34.7324 235.227 34.1758C235.344 33.6133 235.402 33.0361 235.402 32.4443V30.4844C235.402 29.9043 235.335 29.3887 235.2 28.9375C235.071 28.4863 234.89 28.1084 234.655 27.8037C234.427 27.499 234.166 27.2676 233.873 27.1094C233.58 26.9512 233.27 26.8721 232.941 26.8721C232.566 26.8721 232.229 26.9482 231.931 27.1006C231.638 27.2471 231.389 27.4551 231.184 27.7246C230.984 27.9941 230.832 28.3105 230.727 28.6738C230.621 29.0371 230.568 29.4326 230.568 29.8604C230.568 30.2412 230.615 30.6104 230.709 30.9678C230.803 31.3252 230.946 31.6475 231.14 31.9346C231.333 32.2217 231.573 32.4502 231.86 32.6201C232.153 32.7842 232.496 32.8662 232.889 32.8662C233.252 32.8662 233.592 32.7959 233.908 32.6553C234.23 32.5088 234.515 32.3125 234.761 32.0664C235.013 31.8145 235.212 31.5303 235.358 31.2139C235.511 30.8975 235.599 30.5664 235.622 30.2207H236.396C236.396 30.707 236.299 31.1875 236.105 31.6621C235.918 32.1309 235.654 32.5586 235.314 32.9453C234.975 33.332 234.576 33.6426 234.119 33.877C233.662 34.1055 233.164 34.2197 232.625 34.2197C231.992 34.2197 231.444 34.0967 230.981 33.8506C230.519 33.6045 230.138 33.2764 229.839 32.8662C229.546 32.4561 229.326 31.999 229.18 31.4951C229.039 30.9854 228.969 30.4697 228.969 29.9482C228.969 29.3389 229.054 28.7676 229.224 28.2344C229.394 27.7012 229.646 27.2324 229.979 26.8281C230.313 26.418 230.727 26.0986 231.219 25.8701C231.717 25.6416 232.291 25.5273 232.941 25.5273C233.674 25.5273 234.298 25.6738 234.813 25.9668C235.329 26.2598 235.748 26.6523 236.07 27.1445C236.398 27.6367 236.639 28.1904 236.791 28.8057C236.943 29.4209 237.02 30.0537 237.02 30.7041V31.293C237.02 31.9551 236.976 32.6289 236.888 33.3145C236.806 33.9941 236.645 34.6445 236.404 35.2656C236.17 35.8867 235.827 36.4434 235.376 36.9355C234.925 37.4219 234.336 37.8086 233.609 38.0957C232.889 38.377 231.998 38.5176 230.938 38.5176H230.771V37.1377ZM247.347 35.0371C247.347 35.8164 247.165 36.4785 246.802 37.0234C246.444 37.5625 245.958 37.9727 245.343 38.2539C244.733 38.5352 244.045 38.6758 243.277 38.6758C242.51 38.6758 241.818 38.5352 241.203 38.2539C240.588 37.9727 240.102 37.5625 239.744 37.0234C239.387 36.4785 239.208 35.8164 239.208 35.0371C239.208 34.5273 239.305 34.0615 239.498 33.6396C239.697 33.2119 239.976 32.8398 240.333 32.5234C240.696 32.207 241.124 31.9639 241.616 31.7939C242.114 31.6182 242.662 31.5303 243.26 31.5303C244.045 31.5303 244.745 31.6826 245.36 31.9873C245.976 32.2861 246.459 32.6992 246.811 33.2266C247.168 33.7539 247.347 34.3574 247.347 35.0371ZM245.712 35.002C245.712 34.5273 245.609 34.1084 245.404 33.7451C245.199 33.376 244.912 33.0889 244.543 32.8838C244.174 32.6787 243.746 32.5762 243.26 32.5762C242.762 32.5762 242.331 32.6787 241.968 32.8838C241.61 33.0889 241.332 33.376 241.133 33.7451C240.934 34.1084 240.834 34.5273 240.834 35.002C240.834 35.4941 240.931 35.916 241.124 36.2676C241.323 36.6133 241.604 36.8799 241.968 37.0674C242.337 37.249 242.773 37.3398 243.277 37.3398C243.781 37.3398 244.215 37.249 244.578 37.0674C244.941 36.8799 245.22 36.6133 245.413 36.2676C245.612 35.916 245.712 35.4941 245.712 35.002ZM247.048 29.0342C247.048 29.6553 246.884 30.2148 246.556 30.7129C246.228 31.2109 245.779 31.6035 245.211 31.8906C244.643 32.1777 243.998 32.3213 243.277 32.3213C242.545 32.3213 241.892 32.1777 241.317 31.8906C240.749 31.6035 240.304 31.2109 239.981 30.7129C239.659 30.2148 239.498 29.6553 239.498 29.0342C239.498 28.29 239.659 27.6572 239.981 27.1357C240.31 26.6143 240.758 26.2158 241.326 25.9404C241.895 25.665 242.542 25.5273 243.269 25.5273C244.001 25.5273 244.651 25.665 245.22 25.9404C245.788 26.2158 246.233 26.6143 246.556 27.1357C246.884 27.6572 247.048 28.29 247.048 29.0342ZM245.422 29.0605C245.422 28.6328 245.331 28.2549 245.149 27.9268C244.968 27.5986 244.716 27.3408 244.394 27.1533C244.071 26.96 243.696 26.8633 243.269 26.8633C242.841 26.8633 242.466 26.9541 242.144 27.1357C241.827 27.3115 241.578 27.5635 241.396 27.8916C241.221 28.2197 241.133 28.6094 241.133 29.0605C241.133 29.5 241.221 29.8838 241.396 30.2119C241.578 30.54 241.83 30.7949 242.152 30.9766C242.475 31.1582 242.85 31.249 243.277 31.249C243.705 31.249 244.077 31.1582 244.394 30.9766C244.716 30.7949 244.968 30.54 245.149 30.2119C245.331 29.8838 245.422 29.5 245.422 29.0605Z" fill="#30364D"/>
<path d="M329.582 30.1357V31.665H320.811V30.1357H329.582ZM326.014 26.4004V35.7168H324.388V26.4004H326.014ZM340.05 32.6934V34.0293H330.804V33.0713L336.534 24.2031H337.861L336.438 26.7695L332.649 32.6934H340.05ZM338.266 24.2031V37H336.64V24.2031H338.266ZM341.729 36.1387C341.729 35.8633 341.813 35.6318 341.983 35.4443C342.159 35.251 342.411 35.1543 342.739 35.1543C343.067 35.1543 343.316 35.251 343.486 35.4443C343.662 35.6318 343.75 35.8633 343.75 36.1387C343.75 36.4082 343.662 36.6367 343.486 36.8242C343.316 37.0117 343.067 37.1055 342.739 37.1055C342.411 37.1055 342.159 37.0117 341.983 36.8242C341.813 36.6367 341.729 36.4082 341.729 36.1387ZM348.329 30.9092L347.028 30.5752L347.67 24.2031H354.235V25.7061H349.05L348.663 29.1865C348.897 29.0518 349.193 28.9258 349.551 28.8086C349.914 28.6914 350.33 28.6328 350.799 28.6328C351.391 28.6328 351.921 28.7354 352.39 28.9404C352.858 29.1396 353.257 29.4268 353.585 29.8018C353.919 30.1768 354.174 30.6279 354.35 31.1553C354.525 31.6826 354.613 32.2715 354.613 32.9219C354.613 33.5371 354.528 34.1025 354.358 34.6182C354.194 35.1338 353.945 35.585 353.611 35.9717C353.277 36.3525 352.855 36.6484 352.346 36.8594C351.842 37.0703 351.247 37.1758 350.562 37.1758C350.046 37.1758 349.557 37.1055 349.094 36.9648C348.637 36.8184 348.227 36.5986 347.863 36.3057C347.506 36.0068 347.213 35.6377 346.984 35.1982C346.762 34.7529 346.621 34.2314 346.562 33.6338H348.109C348.18 34.1143 348.32 34.5186 348.531 34.8467C348.742 35.1748 349.018 35.4238 349.357 35.5938C349.703 35.7578 350.104 35.8398 350.562 35.8398C350.948 35.8398 351.291 35.7725 351.59 35.6377C351.889 35.5029 352.141 35.3096 352.346 35.0576C352.551 34.8057 352.706 34.501 352.812 34.1436C352.923 33.7861 352.979 33.3848 352.979 32.9395C352.979 32.5352 352.923 32.1602 352.812 31.8145C352.7 31.4688 352.533 31.167 352.311 30.9092C352.094 30.6514 351.827 30.4521 351.511 30.3115C351.194 30.165 350.831 30.0918 350.421 30.0918C349.876 30.0918 349.463 30.165 349.182 30.3115C348.906 30.458 348.622 30.6572 348.329 30.9092ZM362.638 24.1855H362.778V25.5654H362.638C361.776 25.5654 361.056 25.7061 360.476 25.9873C359.896 26.2627 359.436 26.6348 359.096 27.1035C358.756 27.5664 358.51 28.0879 358.357 28.668C358.211 29.248 358.138 29.8369 358.138 30.4346V32.3154C358.138 32.8838 358.205 33.3877 358.34 33.8271C358.475 34.2607 358.659 34.627 358.894 34.9258C359.128 35.2246 359.392 35.4502 359.685 35.6025C359.983 35.7549 360.294 35.8311 360.616 35.8311C360.991 35.8311 361.325 35.7607 361.618 35.6201C361.911 35.4736 362.157 35.2715 362.356 35.0137C362.562 34.75 362.717 34.4395 362.822 34.082C362.928 33.7246 362.98 33.332 362.98 32.9043C362.98 32.5234 362.934 32.1572 362.84 31.8057C362.746 31.4482 362.603 31.1318 362.409 30.8564C362.216 30.5752 361.973 30.3555 361.68 30.1973C361.393 30.0332 361.05 29.9512 360.651 29.9512C360.2 29.9512 359.778 30.0625 359.386 30.2852C358.999 30.502 358.68 30.7891 358.428 31.1465C358.182 31.498 358.041 31.8818 358.006 32.2979L357.145 32.2891C357.227 31.6328 357.379 31.0732 357.602 30.6104C357.83 30.1416 358.111 29.7607 358.445 29.4678C358.785 29.1689 359.163 28.9521 359.579 28.8174C360.001 28.6768 360.446 28.6064 360.915 28.6064C361.554 28.6064 362.104 28.7266 362.567 28.9668C363.03 29.207 363.411 29.5293 363.71 29.9336C364.009 30.332 364.229 30.7832 364.369 31.2871C364.516 31.7852 364.589 32.2979 364.589 32.8252C364.589 33.4287 364.504 33.9941 364.334 34.5215C364.164 35.0488 363.909 35.5117 363.569 35.9102C363.235 36.3086 362.822 36.6191 362.33 36.8418C361.838 37.0645 361.267 37.1758 360.616 37.1758C359.925 37.1758 359.321 37.0352 358.806 36.7539C358.29 36.4668 357.862 36.0859 357.522 35.6113C357.183 35.1367 356.928 34.6094 356.758 34.0293C356.588 33.4492 356.503 32.8604 356.503 32.2627V31.498C356.503 30.5957 356.594 29.7109 356.775 28.8438C356.957 27.9766 357.271 27.1914 357.716 26.4883C358.167 25.7852 358.791 25.2256 359.588 24.8096C360.385 24.3936 361.401 24.1855 362.638 24.1855Z" fill="#44C208"/>
<path d="M381.375 36.9167V24.0833" stroke="#44C208" stroke-width="2" stroke-linecap="round" stroke-linejoin="round"/>
<path d="M384.542 27.75L381.375 24.0833" stroke="#44C208" stroke-width="2" stroke-linecap="round" stroke-linejoin="round"/>
<path d="M378.208 27.75L381.375 24.0833" stroke="#44C208" stroke-width="2" stroke-linecap="round" stroke-linejoin="round"/>
<line x1="4.4622e-08" y1="67.5" x2="406" y2="67.5" stroke="#E3E8EE"/>
<defs>
<clipPath id="clip0_42_555">
<rect width="27" height="27" fill="white" transform="translate(14.125 18)"/>
</clipPath>
</defs>
</svg>
