<svg width="406" height="68" viewBox="0 0 406 68" fill="none" xmlns="http://www.w3.org/2000/svg">
<rect width="406" height="68" fill="#F8F8FE"/>
<path d="M42.6729 35.1286C40.6695 43.1644 32.5305 48.0548 24.4938 46.0509C16.4604 44.0476 11.57 35.9081 13.5742 27.873C15.5767 19.8363 23.7157 14.9455 31.7499 16.9489C39.7861 18.9522 44.6762 27.0926 42.6726 35.1287L42.6728 35.1286H42.6729Z" fill="#50AF95"/>
<path fill-rule="evenodd" clip-rule="evenodd" d="M30.0231 33.2006C29.9171 33.2085 29.3691 33.2412 28.1467 33.2412C27.1745 33.2412 26.4842 33.2121 26.242 33.2006C22.4847 33.0353 19.6802 32.3812 19.6802 31.5981C19.6802 30.815 22.4847 30.1618 26.242 29.9939V32.5492C26.4877 32.5668 27.1913 32.6084 28.1635 32.6084C29.3302 32.6084 29.9144 32.5598 30.0196 32.55V29.9957C33.769 30.1627 36.5673 30.8168 36.5673 31.5981C36.5673 32.3795 33.7698 33.0335 30.0196 33.1997L30.0231 33.2006ZM30.0231 29.7314V27.4448H35.2556V23.958H21.0095V27.4448H26.2411V29.7305C21.9888 29.9259 18.791 30.7682 18.791 31.7775C18.791 32.7869 21.9888 33.6284 26.2411 33.8246V41.1518H30.0223V33.8219C34.2648 33.6266 37.4573 32.7851 37.4573 31.7767C37.4573 30.7682 34.2675 29.9267 30.0223 29.7305L30.0231 29.7314Z" fill="white"/>
<path d="M102.266 25.2031H103.953V33.8604C103.953 34.8213 103.739 35.6211 103.312 36.2598C102.884 36.8984 102.315 37.3789 101.606 37.7012C100.903 38.0176 100.139 38.1758 99.3125 38.1758C98.4453 38.1758 97.6602 38.0176 96.957 37.7012C96.2598 37.3789 95.7061 36.8984 95.2959 36.2598C94.8916 35.6211 94.6895 34.8213 94.6895 33.8604V25.2031H96.3682V33.8604C96.3682 34.5283 96.4912 35.0791 96.7373 35.5127C96.9834 35.9463 97.3262 36.2686 97.7656 36.4795C98.2109 36.6904 98.7266 36.7959 99.3125 36.7959C99.9043 36.7959 100.42 36.6904 100.859 36.4795C101.305 36.2686 101.65 35.9463 101.896 35.5127C102.143 35.0791 102.266 34.5283 102.266 33.8604V25.2031ZM113.437 34.7656C113.437 34.4668 113.39 34.2031 113.296 33.9746C113.208 33.7402 113.05 33.5293 112.821 33.3418C112.599 33.1543 112.288 32.9756 111.89 32.8057C111.497 32.6357 110.999 32.4629 110.396 32.2871C109.763 32.0996 109.191 31.8916 108.682 31.6631C108.172 31.4287 107.735 31.1621 107.372 30.8633C107.009 30.5645 106.73 30.2217 106.537 29.835C106.344 29.4482 106.247 29.0059 106.247 28.5078C106.247 28.0098 106.35 27.5498 106.555 27.1279C106.76 26.7061 107.053 26.3398 107.434 26.0293C107.82 25.7129 108.28 25.4668 108.813 25.291C109.347 25.1152 109.941 25.0273 110.598 25.0273C111.559 25.0273 112.373 25.2119 113.041 25.5811C113.715 25.9443 114.228 26.4219 114.579 27.0137C114.931 27.5996 115.106 28.2266 115.106 28.8945H113.419C113.419 28.4141 113.316 27.9893 113.111 27.6201C112.906 27.2451 112.596 26.9521 112.18 26.7412C111.764 26.5244 111.236 26.416 110.598 26.416C109.994 26.416 109.496 26.5068 109.104 26.6885C108.711 26.8701 108.418 27.1162 108.225 27.4268C108.037 27.7373 107.943 28.0918 107.943 28.4902C107.943 28.7598 107.999 29.0059 108.11 29.2285C108.228 29.4453 108.406 29.6475 108.646 29.835C108.893 30.0225 109.203 30.1953 109.578 30.3535C109.959 30.5117 110.413 30.6641 110.94 30.8105C111.667 31.0156 112.294 31.2441 112.821 31.4961C113.349 31.748 113.782 32.0322 114.122 32.3486C114.468 32.6592 114.723 33.0137 114.887 33.4121C115.057 33.8047 115.142 34.25 115.142 34.748C115.142 35.2695 115.036 35.7412 114.825 36.1631C114.614 36.585 114.312 36.9453 113.92 37.2441C113.527 37.543 113.056 37.7744 112.505 37.9385C111.96 38.0967 111.351 38.1758 110.677 38.1758C110.085 38.1758 109.502 38.0938 108.928 37.9297C108.359 37.7656 107.841 37.5195 107.372 37.1914C106.909 36.8633 106.537 36.459 106.256 35.9785C105.98 35.4922 105.843 34.9297 105.843 34.291H107.53C107.53 34.7305 107.615 35.1084 107.785 35.4248C107.955 35.7354 108.187 35.9932 108.479 36.1982C108.778 36.4033 109.115 36.5557 109.49 36.6553C109.871 36.749 110.267 36.7959 110.677 36.7959C111.269 36.7959 111.77 36.7139 112.18 36.5498C112.59 36.3857 112.9 36.1514 113.111 35.8467C113.328 35.542 113.437 35.1816 113.437 34.7656ZM120.767 38H118.095L118.112 36.6201H120.767C121.681 36.6201 122.442 36.4297 123.052 36.0488C123.661 35.6621 124.118 35.123 124.423 34.4316C124.733 33.7344 124.889 32.9199 124.889 31.9883V31.2061C124.889 30.4736 124.801 29.8232 124.625 29.2549C124.449 28.6807 124.191 28.1973 123.852 27.8047C123.512 27.4062 123.096 27.1045 122.604 26.8994C122.117 26.6943 121.558 26.5918 120.925 26.5918H118.042V25.2031H120.925C121.763 25.2031 122.527 25.3438 123.219 25.625C123.91 25.9004 124.505 26.3018 125.003 26.8291C125.507 27.3506 125.894 27.9834 126.163 28.7275C126.433 29.4658 126.567 30.2979 126.567 31.2236V31.9883C126.567 32.9141 126.433 33.749 126.163 34.4932C125.894 35.2314 125.504 35.8613 124.994 36.3828C124.49 36.9043 123.881 37.3057 123.166 37.5869C122.457 37.8623 121.657 38 120.767 38ZM119 25.2031V38H117.304V25.2031H119ZM133.599 25.2031V38H131.929V25.2031H133.599ZM137.712 25.2031V26.5918H127.824V25.2031H137.712Z" fill="#30364D"/>
<path d="M189.924 24.1289V26.8096H188.605V24.1289H189.924ZM189.766 38.4814V40.8281H188.456V38.4814H189.766ZM191.523 35.7041C191.523 35.3525 191.444 35.0361 191.286 34.7549C191.128 34.4736 190.867 34.2158 190.504 33.9814C190.141 33.7471 189.654 33.5303 189.045 33.3311C188.307 33.1025 187.668 32.8242 187.129 32.4961C186.596 32.168 186.183 31.7607 185.89 31.2744C185.603 30.7881 185.459 30.1992 185.459 29.5078C185.459 28.7871 185.614 28.166 185.925 27.6445C186.235 27.123 186.675 26.7217 187.243 26.4404C187.812 26.1592 188.479 26.0186 189.247 26.0186C189.845 26.0186 190.378 26.1094 190.847 26.291C191.315 26.4668 191.711 26.7305 192.033 27.082C192.361 27.4336 192.61 27.8643 192.78 28.374C192.956 28.8838 193.044 29.4727 193.044 30.1406H191.427C191.427 29.748 191.38 29.3877 191.286 29.0596C191.192 28.7314 191.052 28.4473 190.864 28.207C190.677 27.9609 190.448 27.7734 190.179 27.6445C189.909 27.5098 189.599 27.4424 189.247 27.4424C188.755 27.4424 188.348 27.5273 188.025 27.6973C187.709 27.8672 187.475 28.1074 187.322 28.418C187.17 28.7227 187.094 29.0771 187.094 29.4814C187.094 29.8564 187.17 30.1846 187.322 30.4658C187.475 30.7471 187.732 31.002 188.096 31.2305C188.465 31.4531 188.972 31.6729 189.616 31.8896C190.372 32.1299 191.014 32.4141 191.541 32.7422C192.068 33.0645 192.47 33.4629 192.745 33.9375C193.021 34.4062 193.158 34.9893 193.158 35.6865C193.158 36.4424 192.988 37.0811 192.648 37.6025C192.309 38.1182 191.831 38.5107 191.216 38.7803C190.601 39.0498 189.88 39.1846 189.054 39.1846C188.556 39.1846 188.063 39.1172 187.577 38.9824C187.091 38.8477 186.651 38.6279 186.259 38.3232C185.866 38.0127 185.553 37.6055 185.318 37.1016C185.084 36.5918 184.967 35.9678 184.967 35.2295H186.602C186.602 35.7275 186.672 36.1406 186.812 36.4688C186.959 36.791 187.152 37.0488 187.393 37.2422C187.633 37.4297 187.896 37.5645 188.184 37.6465C188.477 37.7227 188.767 37.7607 189.054 37.7607C189.581 37.7607 190.026 37.6787 190.39 37.5146C190.759 37.3447 191.04 37.1045 191.233 36.7939C191.427 36.4834 191.523 36.1201 191.523 35.7041ZM207.687 31.582V33.5332C207.687 34.582 207.593 35.4668 207.405 36.1875C207.218 36.9082 206.948 37.4883 206.597 37.9277C206.245 38.3672 205.82 38.6865 205.322 38.8857C204.83 39.0791 204.273 39.1758 203.652 39.1758C203.16 39.1758 202.706 39.1143 202.29 38.9912C201.874 38.8682 201.499 38.6719 201.165 38.4023C200.837 38.127 200.556 37.7695 200.321 37.3301C200.087 36.8906 199.908 36.3574 199.785 35.7305C199.662 35.1035 199.601 34.3711 199.601 33.5332V31.582C199.601 30.5332 199.694 29.6543 199.882 28.9453C200.075 28.2363 200.348 27.668 200.699 27.2402C201.051 26.8066 201.473 26.4961 201.965 26.3086C202.463 26.1211 203.02 26.0273 203.635 26.0273C204.133 26.0273 204.59 26.0889 205.006 26.2119C205.428 26.3291 205.803 26.5195 206.131 26.7832C206.459 27.041 206.737 27.3867 206.966 27.8203C207.2 28.248 207.379 28.7725 207.502 29.3936C207.625 30.0146 207.687 30.7441 207.687 31.582ZM206.052 33.7969V31.3096C206.052 30.7354 206.017 30.2314 205.946 29.7979C205.882 29.3584 205.785 28.9834 205.656 28.6729C205.527 28.3623 205.363 28.1104 205.164 27.917C204.971 27.7236 204.745 27.583 204.487 27.4951C204.235 27.4014 203.951 27.3545 203.635 27.3545C203.248 27.3545 202.905 27.4277 202.606 27.5742C202.308 27.7148 202.056 27.9404 201.851 28.251C201.651 28.5615 201.499 28.9688 201.394 29.4727C201.288 29.9766 201.235 30.5889 201.235 31.3096V33.7969C201.235 34.3711 201.268 34.8779 201.332 35.3174C201.402 35.7568 201.505 36.1377 201.64 36.46C201.774 36.7764 201.938 37.0371 202.132 37.2422C202.325 37.4473 202.548 37.5996 202.8 37.6992C203.058 37.793 203.342 37.8398 203.652 37.8398C204.051 37.8398 204.399 37.7637 204.698 37.6113C204.997 37.459 205.246 37.2217 205.445 36.8994C205.65 36.5713 205.803 36.1523 205.902 35.6426C206.002 35.127 206.052 34.5117 206.052 33.7969ZM209.98 38.1387C209.98 37.8633 210.065 37.6318 210.235 37.4443C210.411 37.251 210.663 37.1543 210.991 37.1543C211.319 37.1543 211.568 37.251 211.738 37.4443C211.914 37.6318 212.002 37.8633 212.002 38.1387C212.002 38.4082 211.914 38.6367 211.738 38.8242C211.568 39.0117 211.319 39.1055 210.991 39.1055C210.663 39.1055 210.411 39.0117 210.235 38.8242C210.065 38.6367 209.98 38.4082 209.98 38.1387ZM216.142 37.6377H216.309C217.246 37.6377 218.008 37.5059 218.594 37.2422C219.18 36.9785 219.631 36.624 219.947 36.1787C220.264 35.7334 220.48 35.2324 220.598 34.6758C220.715 34.1133 220.773 33.5361 220.773 32.9443V30.9844C220.773 30.4043 220.706 29.8887 220.571 29.4375C220.442 28.9863 220.261 28.6084 220.026 28.3037C219.798 27.999 219.537 27.7676 219.244 27.6094C218.951 27.4512 218.641 27.3721 218.312 27.3721C217.938 27.3721 217.601 27.4482 217.302 27.6006C217.009 27.7471 216.76 27.9551 216.555 28.2246C216.355 28.4941 216.203 28.8105 216.098 29.1738C215.992 29.5371 215.939 29.9326 215.939 30.3604C215.939 30.7412 215.986 31.1104 216.08 31.4678C216.174 31.8252 216.317 32.1475 216.511 32.4346C216.704 32.7217 216.944 32.9502 217.231 33.1201C217.524 33.2842 217.867 33.3662 218.26 33.3662C218.623 33.3662 218.963 33.2959 219.279 33.1553C219.602 33.0088 219.886 32.8125 220.132 32.5664C220.384 32.3145 220.583 32.0303 220.729 31.7139C220.882 31.3975 220.97 31.0664 220.993 30.7207H221.767C221.767 31.207 221.67 31.6875 221.477 32.1621C221.289 32.6309 221.025 33.0586 220.686 33.4453C220.346 33.832 219.947 34.1426 219.49 34.377C219.033 34.6055 218.535 34.7197 217.996 34.7197C217.363 34.7197 216.815 34.5967 216.353 34.3506C215.89 34.1045 215.509 33.7764 215.21 33.3662C214.917 32.9561 214.697 32.499 214.551 31.9951C214.41 31.4854 214.34 30.9697 214.34 30.4482C214.34 29.8389 214.425 29.2676 214.595 28.7344C214.765 28.2012 215.017 27.7324 215.351 27.3281C215.685 26.918 216.098 26.5986 216.59 26.3701C217.088 26.1416 217.662 26.0273 218.312 26.0273C219.045 26.0273 219.669 26.1738 220.185 26.4668C220.7 26.7598 221.119 27.1523 221.441 27.6445C221.77 28.1367 222.01 28.6904 222.162 29.3057C222.314 29.9209 222.391 30.5537 222.391 31.2041V31.793C222.391 32.4551 222.347 33.1289 222.259 33.8145C222.177 34.4941 222.016 35.1445 221.775 35.7656C221.541 36.3867 221.198 36.9434 220.747 37.4355C220.296 37.9219 219.707 38.3086 218.98 38.5957C218.26 38.877 217.369 39.0176 216.309 39.0176H216.142V37.6377ZM232.92 26.2031V27.1172L227.62 39H225.906L231.197 27.5391H224.271V26.2031H232.92Z" fill="#30364D"/>
<path d="M325.748 30.8916V32.2275H321.459V30.8916H325.748ZM332.507 24.1328V37H330.881V26.1631L327.603 27.3584V25.8906L332.252 24.1328H332.507ZM337.49 36.1387C337.49 35.8633 337.575 35.6318 337.745 35.4443C337.921 35.251 338.173 35.1543 338.501 35.1543C338.829 35.1543 339.078 35.251 339.248 35.4443C339.424 35.6318 339.512 35.8633 339.512 36.1387C339.512 36.4082 339.424 36.6367 339.248 36.8242C339.078 37.0117 338.829 37.1055 338.501 37.1055C338.173 37.1055 337.921 37.0117 337.745 36.8242C337.575 36.6367 337.49 36.4082 337.49 36.1387ZM343.651 35.6377H343.818C344.756 35.6377 345.518 35.5059 346.104 35.2422C346.689 34.9785 347.141 34.624 347.457 34.1787C347.773 33.7334 347.99 33.2324 348.107 32.6758C348.225 32.1133 348.283 31.5361 348.283 30.9443V28.9844C348.283 28.4043 348.216 27.8887 348.081 27.4375C347.952 26.9863 347.771 26.6084 347.536 26.3037C347.308 25.999 347.047 25.7676 346.754 25.6094C346.461 25.4512 346.15 25.3721 345.822 25.3721C345.447 25.3721 345.11 25.4482 344.812 25.6006C344.519 25.7471 344.27 25.9551 344.064 26.2246C343.865 26.4941 343.713 26.8105 343.607 27.1738C343.502 27.5371 343.449 27.9326 343.449 28.3604C343.449 28.7412 343.496 29.1104 343.59 29.4678C343.684 29.8252 343.827 30.1475 344.021 30.4346C344.214 30.7217 344.454 30.9502 344.741 31.1201C345.034 31.2842 345.377 31.3662 345.77 31.3662C346.133 31.3662 346.473 31.2959 346.789 31.1553C347.111 31.0088 347.396 30.8125 347.642 30.5664C347.894 30.3145 348.093 30.0303 348.239 29.7139C348.392 29.3975 348.479 29.0664 348.503 28.7207H349.276C349.276 29.207 349.18 29.6875 348.986 30.1621C348.799 30.6309 348.535 31.0586 348.195 31.4453C347.855 31.832 347.457 32.1426 347 32.377C346.543 32.6055 346.045 32.7197 345.506 32.7197C344.873 32.7197 344.325 32.5967 343.862 32.3506C343.399 32.1045 343.019 31.7764 342.72 31.3662C342.427 30.9561 342.207 30.499 342.061 29.9951C341.92 29.4854 341.85 28.9697 341.85 28.4482C341.85 27.8389 341.935 27.2676 342.104 26.7344C342.274 26.2012 342.526 25.7324 342.86 25.3281C343.194 24.918 343.607 24.5986 344.1 24.3701C344.598 24.1416 345.172 24.0273 345.822 24.0273C346.555 24.0273 347.179 24.1738 347.694 24.4668C348.21 24.7598 348.629 25.1523 348.951 25.6445C349.279 26.1367 349.52 26.6904 349.672 27.3057C349.824 27.9209 349.9 28.5537 349.9 29.2041V29.793C349.9 30.4551 349.856 31.1289 349.769 31.8145C349.687 32.4941 349.525 33.1445 349.285 33.7656C349.051 34.3867 348.708 34.9434 348.257 35.4355C347.806 35.9219 347.217 36.3086 346.49 36.5957C345.77 36.877 344.879 37.0176 343.818 37.0176H343.651V35.6377ZM360.43 24.2031V25.1172L355.13 37H353.416L358.707 25.5391H351.781V24.2031H360.43ZM362.144 27.3408V26.6641C362.144 26.1777 362.249 25.7354 362.46 25.3369C362.671 24.9385 362.973 24.6191 363.365 24.3789C363.758 24.1387 364.224 24.0186 364.763 24.0186C365.313 24.0186 365.782 24.1387 366.169 24.3789C366.562 24.6191 366.863 24.9385 367.074 25.3369C367.285 25.7354 367.391 26.1777 367.391 26.6641V27.3408C367.391 27.8154 367.285 28.252 367.074 28.6504C366.869 29.0488 366.57 29.3682 366.178 29.6084C365.791 29.8486 365.325 29.9688 364.78 29.9688C364.235 29.9688 363.764 29.8486 363.365 29.6084C362.973 29.3682 362.671 29.0488 362.46 28.6504C362.249 28.252 362.144 27.8154 362.144 27.3408ZM363.365 26.6641V27.3408C363.365 27.6104 363.415 27.8652 363.515 28.1055C363.62 28.3457 363.778 28.542 363.989 28.6943C364.2 28.8408 364.464 28.9141 364.78 28.9141C365.097 28.9141 365.357 28.8408 365.562 28.6943C365.768 28.542 365.92 28.3457 366.02 28.1055C366.119 27.8652 366.169 27.6104 366.169 27.3408V26.6641C366.169 26.3887 366.116 26.1309 366.011 25.8906C365.911 25.6445 365.756 25.4482 365.545 25.3018C365.34 25.1494 365.079 25.0732 364.763 25.0732C364.452 25.0732 364.191 25.1494 363.98 25.3018C363.775 25.4482 363.62 25.6445 363.515 25.8906C363.415 26.1309 363.365 26.3887 363.365 26.6641ZM368.375 34.5479V33.8623C368.375 33.3818 368.48 32.9424 368.691 32.5439C368.902 32.1455 369.204 31.8262 369.597 31.5859C369.989 31.3457 370.455 31.2256 370.994 31.2256C371.545 31.2256 372.014 31.3457 372.4 31.5859C372.793 31.8262 373.095 32.1455 373.306 32.5439C373.517 32.9424 373.622 33.3818 373.622 33.8623V34.5479C373.622 35.0283 373.517 35.4678 373.306 35.8662C373.101 36.2646 372.802 36.584 372.409 36.8242C372.022 37.0645 371.557 37.1846 371.012 37.1846C370.467 37.1846 369.998 37.0645 369.605 36.8242C369.213 36.584 368.908 36.2646 368.691 35.8662C368.48 35.4678 368.375 35.0283 368.375 34.5479ZM369.597 33.8623V34.5479C369.597 34.8174 369.646 35.0752 369.746 35.3213C369.852 35.5615 370.01 35.7578 370.221 35.9102C370.432 36.0566 370.695 36.1299 371.012 36.1299C371.328 36.1299 371.589 36.0566 371.794 35.9102C372.005 35.7578 372.16 35.5615 372.26 35.3213C372.359 35.0811 372.409 34.8232 372.409 34.5479V33.8623C372.409 33.5869 372.356 33.3291 372.251 33.0889C372.151 32.8486 371.996 32.6553 371.785 32.5088C371.58 32.3564 371.316 32.2803 370.994 32.2803C370.684 32.2803 370.423 32.3564 370.212 32.5088C370.007 32.6553 369.852 32.8486 369.746 33.0889C369.646 33.3291 369.597 33.5869 369.597 33.8623ZM371.398 26.0225L365.149 36.0244L364.235 35.4443L370.484 25.4424L371.398 26.0225Z" fill="#DE3434"/>
<path d="M382.375 24.0833V36.9166" stroke="#DE3434" stroke-width="2" stroke-linecap="round" stroke-linejoin="round"/>
<path d="M385.542 33.25L382.375 36.9167" stroke="#DE3434" stroke-width="2" stroke-linecap="round" stroke-linejoin="round"/>
<path d="M379.208 33.25L382.375 36.9167" stroke="#DE3434" stroke-width="2" stroke-linecap="round" stroke-linejoin="round"/>
<line x1="4.4622e-08" y1="67.5" x2="406" y2="67.5" stroke="#E3E8EE"/>
</svg>
