<svg width="406" height="68" viewBox="0 0 406 68" fill="none" xmlns="http://www.w3.org/2000/svg">
<rect width="406" height="68" fill="white"/>
<circle cx="25.3125" cy="31.5" r="15" fill="#EDF0F4"/>
<path d="M25.2717 22.5L25.1523 22.9053V34.6657L25.2717 34.7848L30.7306 31.558L25.2717 22.5Z" fill="#343434"/>
<path d="M25.2716 22.5L19.8125 31.558L25.2716 34.7848V29.0766V22.5Z" fill="#8C8C8C"/>
<path d="M25.2714 35.8184L25.2041 35.9004V40.0896L25.2714 40.2859L30.7336 32.5932L25.2714 35.8184Z" fill="#3C3C3B"/>
<path d="M25.2716 40.2859V35.8184L19.8125 32.5932L25.2716 40.2859Z" fill="#8C8C8C"/>
<path d="M25.2715 34.7848L30.7304 31.558L25.2715 29.0766V34.7848Z" fill="#141414"/>
<path d="M19.8125 31.558L25.2716 34.7848V29.0766L19.8125 31.558Z" fill="#393939"/>
<path d="M103.932 36.6201V38H97.1553V36.6201H103.932ZM97.498 25.2031V38H95.8018V25.2031H97.498ZM103.035 30.7051V32.085H97.1553V30.7051H103.035ZM103.844 25.2031V26.5918H97.1553V25.2031H103.844ZM110.937 25.2031V38H109.267V25.2031H110.937ZM115.05 25.2031V26.5918H105.162V25.2031H115.05ZM125.307 30.7051V32.085H118.381V30.7051H125.307ZM118.645 25.2031V38H116.948V25.2031H118.645ZM126.783 25.2031V38H125.096V25.2031H126.783Z" fill="#30364D"/>
<path d="M188.236 23.6289V26.3096H186.918V23.6289H188.236ZM188.078 37.9814V40.3281H186.769V37.9814H188.078ZM189.836 35.2041C189.836 34.8525 189.757 34.5361 189.599 34.2549C189.44 33.9736 189.18 33.7158 188.816 33.4814C188.453 33.2471 187.967 33.0303 187.357 32.8311C186.619 32.6025 185.98 32.3242 185.441 31.9961C184.908 31.668 184.495 31.2607 184.202 30.7744C183.915 30.2881 183.771 29.6992 183.771 29.0078C183.771 28.2871 183.927 27.666 184.237 27.1445C184.548 26.623 184.987 26.2217 185.556 25.9404C186.124 25.6592 186.792 25.5186 187.56 25.5186C188.157 25.5186 188.69 25.6094 189.159 25.791C189.628 25.9668 190.023 26.2305 190.346 26.582C190.674 26.9336 190.923 27.3643 191.093 27.874C191.269 28.3838 191.356 28.9727 191.356 29.6406H189.739C189.739 29.248 189.692 28.8877 189.599 28.5596C189.505 28.2314 189.364 27.9473 189.177 27.707C188.989 27.4609 188.761 27.2734 188.491 27.1445C188.222 27.0098 187.911 26.9424 187.56 26.9424C187.067 26.9424 186.66 27.0273 186.338 27.1973C186.021 27.3672 185.787 27.6074 185.635 27.918C185.482 28.2227 185.406 28.5771 185.406 28.9814C185.406 29.3564 185.482 29.6846 185.635 29.9658C185.787 30.2471 186.045 30.502 186.408 30.7305C186.777 30.9531 187.284 31.1729 187.929 31.3896C188.685 31.6299 189.326 31.9141 189.854 32.2422C190.381 32.5645 190.782 32.9629 191.058 33.4375C191.333 33.9062 191.471 34.4893 191.471 35.1865C191.471 35.9424 191.301 36.5811 190.961 37.1025C190.621 37.6182 190.144 38.0107 189.528 38.2803C188.913 38.5498 188.192 38.6846 187.366 38.6846C186.868 38.6846 186.376 38.6172 185.89 38.4824C185.403 38.3477 184.964 38.1279 184.571 37.8232C184.179 37.5127 183.865 37.1055 183.631 36.6016C183.396 36.0918 183.279 35.4678 183.279 34.7295H184.914C184.914 35.2275 184.984 35.6406 185.125 35.9688C185.271 36.291 185.465 36.5488 185.705 36.7422C185.945 36.9297 186.209 37.0645 186.496 37.1465C186.789 37.2227 187.079 37.2607 187.366 37.2607C187.894 37.2607 188.339 37.1787 188.702 37.0146C189.071 36.8447 189.353 36.6045 189.546 36.2939C189.739 35.9834 189.836 35.6201 189.836 35.2041ZM203.31 25.6328V38.5H201.684V27.6631L198.405 28.8584V27.3906L203.055 25.6328H203.31ZM209.708 37.1377H209.875C210.812 37.1377 211.574 37.0059 212.16 36.7422C212.746 36.4785 213.197 36.124 213.514 35.6787C213.83 35.2334 214.047 34.7324 214.164 34.1758C214.281 33.6133 214.34 33.0361 214.34 32.4443V30.4844C214.34 29.9043 214.272 29.3887 214.138 28.9375C214.009 28.4863 213.827 28.1084 213.593 27.8037C213.364 27.499 213.104 27.2676 212.811 27.1094C212.518 26.9512 212.207 26.8721 211.879 26.8721C211.504 26.8721 211.167 26.9482 210.868 27.1006C210.575 27.2471 210.326 27.4551 210.121 27.7246C209.922 27.9941 209.77 28.3105 209.664 28.6738C209.559 29.0371 209.506 29.4326 209.506 29.8604C209.506 30.2412 209.553 30.6104 209.646 30.9678C209.74 31.3252 209.884 31.6475 210.077 31.9346C210.271 32.2217 210.511 32.4502 210.798 32.6201C211.091 32.7842 211.434 32.8662 211.826 32.8662C212.189 32.8662 212.529 32.7959 212.846 32.6553C213.168 32.5088 213.452 32.3125 213.698 32.0664C213.95 31.8145 214.149 31.5303 214.296 31.2139C214.448 30.8975 214.536 30.5664 214.56 30.2207H215.333C215.333 30.707 215.236 31.1875 215.043 31.6621C214.855 32.1309 214.592 32.5586 214.252 32.9453C213.912 33.332 213.514 33.6426 213.057 33.877C212.6 34.1055 212.102 34.2197 211.562 34.2197C210.93 34.2197 210.382 34.0967 209.919 33.8506C209.456 33.6045 209.075 33.2764 208.776 32.8662C208.483 32.4561 208.264 31.999 208.117 31.4951C207.977 30.9854 207.906 30.4697 207.906 29.9482C207.906 29.3389 207.991 28.7676 208.161 28.2344C208.331 27.7012 208.583 27.2324 208.917 26.8281C209.251 26.418 209.664 26.0986 210.156 25.8701C210.654 25.6416 211.229 25.5273 211.879 25.5273C212.611 25.5273 213.235 25.6738 213.751 25.9668C214.267 26.2598 214.686 26.6523 215.008 27.1445C215.336 27.6367 215.576 28.1904 215.729 28.8057C215.881 29.4209 215.957 30.0537 215.957 30.7041V31.293C215.957 31.9551 215.913 32.6289 215.825 33.3145C215.743 33.9941 215.582 34.6445 215.342 35.2656C215.107 35.8867 214.765 36.4434 214.313 36.9355C213.862 37.4219 213.273 37.8086 212.547 38.0957C211.826 38.377 210.936 38.5176 209.875 38.5176H209.708V37.1377ZM226.486 25.7031V26.6172L221.187 38.5H219.473L224.764 27.0391H217.838V25.7031H226.486ZM236.611 25.7031V26.6172L231.312 38.5H229.598L234.889 27.0391H227.963V25.7031H236.611ZM238.668 37.6387C238.668 37.3633 238.753 37.1318 238.923 36.9443C239.099 36.751 239.351 36.6543 239.679 36.6543C240.007 36.6543 240.256 36.751 240.426 36.9443C240.602 37.1318 240.689 37.3633 240.689 37.6387C240.689 37.9082 240.602 38.1367 240.426 38.3242C240.256 38.5117 240.007 38.6055 239.679 38.6055C239.351 38.6055 239.099 38.5117 238.923 38.3242C238.753 38.1367 238.668 37.9082 238.668 37.6387ZM251.28 35.0371C251.28 35.8164 251.099 36.4785 250.735 37.0234C250.378 37.5625 249.892 37.9727 249.276 38.2539C248.667 38.5352 247.979 38.6758 247.211 38.6758C246.443 38.6758 245.752 38.5352 245.137 38.2539C244.521 37.9727 244.035 37.5625 243.678 37.0234C243.32 36.4785 243.142 35.8164 243.142 35.0371C243.142 34.5273 243.238 34.0615 243.432 33.6396C243.631 33.2119 243.909 32.8398 244.267 32.5234C244.63 32.207 245.058 31.9639 245.55 31.7939C246.048 31.6182 246.596 31.5303 247.193 31.5303C247.979 31.5303 248.679 31.6826 249.294 31.9873C249.909 32.2861 250.393 32.6992 250.744 33.2266C251.102 33.7539 251.28 34.3574 251.28 35.0371ZM249.646 35.002C249.646 34.5273 249.543 34.1084 249.338 33.7451C249.133 33.376 248.846 33.0889 248.477 32.8838C248.107 32.6787 247.68 32.5762 247.193 32.5762C246.695 32.5762 246.265 32.6787 245.901 32.8838C245.544 33.0889 245.266 33.376 245.066 33.7451C244.867 34.1084 244.768 34.5273 244.768 35.002C244.768 35.4941 244.864 35.916 245.058 36.2676C245.257 36.6133 245.538 36.8799 245.901 37.0674C246.271 37.249 246.707 37.3398 247.211 37.3398C247.715 37.3398 248.148 37.249 248.512 37.0674C248.875 36.8799 249.153 36.6133 249.347 36.2676C249.546 35.916 249.646 35.4941 249.646 35.002ZM250.981 29.0342C250.981 29.6553 250.817 30.2148 250.489 30.7129C250.161 31.2109 249.713 31.6035 249.145 31.8906C248.576 32.1777 247.932 32.3213 247.211 32.3213C246.479 32.3213 245.825 32.1777 245.251 31.8906C244.683 31.6035 244.237 31.2109 243.915 30.7129C243.593 30.2148 243.432 29.6553 243.432 29.0342C243.432 28.29 243.593 27.6572 243.915 27.1357C244.243 26.6143 244.691 26.2158 245.26 25.9404C245.828 25.665 246.476 25.5273 247.202 25.5273C247.935 25.5273 248.585 25.665 249.153 25.9404C249.722 26.2158 250.167 26.6143 250.489 27.1357C250.817 27.6572 250.981 28.29 250.981 29.0342ZM249.355 29.0605C249.355 28.6328 249.265 28.2549 249.083 27.9268C248.901 27.5986 248.649 27.3408 248.327 27.1533C248.005 26.96 247.63 26.8633 247.202 26.8633C246.774 26.8633 246.399 26.9541 246.077 27.1357C245.761 27.3115 245.512 27.5635 245.33 27.8916C245.154 28.2197 245.066 28.6094 245.066 29.0605C245.066 29.5 245.154 29.8838 245.33 30.2119C245.512 30.54 245.764 30.7949 246.086 30.9766C246.408 31.1582 246.783 31.249 247.211 31.249C247.639 31.249 248.011 31.1582 248.327 30.9766C248.649 30.7949 248.901 30.54 249.083 30.2119C249.265 29.8838 249.355 29.5 249.355 29.0605ZM261.607 25.7031V26.6172L256.308 38.5H254.594L259.885 27.0391H252.959V25.7031H261.607Z" fill="#30364D"/>
<path d="M328.77 30.1357V31.665H319.998V30.1357H328.77ZM325.201 26.4004V35.7168H323.575V26.4004H325.201ZM335.933 24.1328V37H334.307V26.1631L331.028 27.3584V25.8906L335.678 24.1328H335.933ZM340.916 36.1387C340.916 35.8633 341.001 35.6318 341.171 35.4443C341.347 35.251 341.599 35.1543 341.927 35.1543C342.255 35.1543 342.504 35.251 342.674 35.4443C342.85 35.6318 342.938 35.8633 342.938 36.1387C342.938 36.4082 342.85 36.6367 342.674 36.8242C342.504 37.0117 342.255 37.1055 341.927 37.1055C341.599 37.1055 341.347 37.0117 341.171 36.8242C341.001 36.6367 340.916 36.4082 340.916 36.1387ZM347.517 30.9092L346.216 30.5752L346.857 24.2031H353.423V25.7061H348.237L347.851 29.1865C348.085 29.0518 348.381 28.9258 348.738 28.8086C349.102 28.6914 349.518 28.6328 349.986 28.6328C350.578 28.6328 351.108 28.7354 351.577 28.9404C352.046 29.1396 352.444 29.4268 352.772 29.8018C353.106 30.1768 353.361 30.6279 353.537 31.1553C353.713 31.6826 353.801 32.2715 353.801 32.9219C353.801 33.5371 353.716 34.1025 353.546 34.6182C353.382 35.1338 353.133 35.585 352.799 35.9717C352.465 36.3525 352.043 36.6484 351.533 36.8594C351.029 37.0703 350.435 37.1758 349.749 37.1758C349.233 37.1758 348.744 37.1055 348.281 36.9648C347.824 36.8184 347.414 36.5986 347.051 36.3057C346.693 36.0068 346.4 35.6377 346.172 35.1982C345.949 34.7529 345.809 34.2314 345.75 33.6338H347.297C347.367 34.1143 347.508 34.5186 347.719 34.8467C347.93 35.1748 348.205 35.4238 348.545 35.5938C348.891 35.7578 349.292 35.8398 349.749 35.8398C350.136 35.8398 350.479 35.7725 350.777 35.6377C351.076 35.5029 351.328 35.3096 351.533 35.0576C351.738 34.8057 351.894 34.501 351.999 34.1436C352.11 33.7861 352.166 33.3848 352.166 32.9395C352.166 32.5352 352.11 32.1602 351.999 31.8145C351.888 31.4688 351.721 31.167 351.498 30.9092C351.281 30.6514 351.015 30.4521 350.698 30.3115C350.382 30.165 350.019 30.0918 349.608 30.0918C349.063 30.0918 348.65 30.165 348.369 30.3115C348.094 30.458 347.81 30.6572 347.517 30.9092ZM361.825 24.1855H361.966V25.5654H361.825C360.964 25.5654 360.243 25.7061 359.663 25.9873C359.083 26.2627 358.623 26.6348 358.283 27.1035C357.943 27.5664 357.697 28.0879 357.545 28.668C357.398 29.248 357.325 29.8369 357.325 30.4346V32.3154C357.325 32.8838 357.393 33.3877 357.527 33.8271C357.662 34.2607 357.847 34.627 358.081 34.9258C358.315 35.2246 358.579 35.4502 358.872 35.6025C359.171 35.7549 359.481 35.8311 359.804 35.8311C360.179 35.8311 360.513 35.7607 360.806 35.6201C361.099 35.4736 361.345 35.2715 361.544 35.0137C361.749 34.75 361.904 34.4395 362.01 34.082C362.115 33.7246 362.168 33.332 362.168 32.9043C362.168 32.5234 362.121 32.1572 362.027 31.8057C361.934 31.4482 361.79 31.1318 361.597 30.8564C361.403 30.5752 361.16 30.3555 360.867 30.1973C360.58 30.0332 360.237 29.9512 359.839 29.9512C359.388 29.9512 358.966 30.0625 358.573 30.2852C358.187 30.502 357.867 30.7891 357.615 31.1465C357.369 31.498 357.229 31.8818 357.193 32.2979L356.332 32.2891C356.414 31.6328 356.566 31.0732 356.789 30.6104C357.018 30.1416 357.299 29.7607 357.633 29.4678C357.973 29.1689 358.351 28.9521 358.767 28.8174C359.188 28.6768 359.634 28.6064 360.103 28.6064C360.741 28.6064 361.292 28.7266 361.755 28.9668C362.218 29.207 362.599 29.5293 362.897 29.9336C363.196 30.332 363.416 30.7832 363.557 31.2871C363.703 31.7852 363.776 32.2979 363.776 32.8252C363.776 33.4287 363.691 33.9941 363.521 34.5215C363.352 35.0488 363.097 35.5117 362.757 35.9102C362.423 36.3086 362.01 36.6191 361.518 36.8418C361.025 37.0645 360.454 37.1758 359.804 37.1758C359.112 37.1758 358.509 37.0352 357.993 36.7539C357.478 36.4668 357.05 36.0859 356.71 35.6113C356.37 35.1367 356.115 34.6094 355.945 34.0293C355.775 33.4492 355.69 32.8604 355.69 32.2627V31.498C355.69 30.5957 355.781 29.7109 355.963 28.8438C356.145 27.9766 356.458 27.1914 356.903 26.4883C357.354 25.7852 357.979 25.2256 358.775 24.8096C359.572 24.3936 360.589 24.1855 361.825 24.1855ZM365.569 27.3408V26.6641C365.569 26.1777 365.675 25.7354 365.886 25.3369C366.097 24.9385 366.398 24.6191 366.791 24.3789C367.184 24.1387 367.649 24.0186 368.188 24.0186C368.739 24.0186 369.208 24.1387 369.595 24.3789C369.987 24.6191 370.289 24.9385 370.5 25.3369C370.711 25.7354 370.816 26.1777 370.816 26.6641V27.3408C370.816 27.8154 370.711 28.252 370.5 28.6504C370.295 29.0488 369.996 29.3682 369.604 29.6084C369.217 29.8486 368.751 29.9688 368.206 29.9688C367.661 29.9688 367.189 29.8486 366.791 29.6084C366.398 29.3682 366.097 29.0488 365.886 28.6504C365.675 28.252 365.569 27.8154 365.569 27.3408ZM366.791 26.6641V27.3408C366.791 27.6104 366.841 27.8652 366.94 28.1055C367.046 28.3457 367.204 28.542 367.415 28.6943C367.626 28.8408 367.89 28.9141 368.206 28.9141C368.522 28.9141 368.783 28.8408 368.988 28.6943C369.193 28.542 369.346 28.3457 369.445 28.1055C369.545 27.8652 369.595 27.6104 369.595 27.3408V26.6641C369.595 26.3887 369.542 26.1309 369.437 25.8906C369.337 25.6445 369.182 25.4482 368.971 25.3018C368.766 25.1494 368.505 25.0732 368.188 25.0732C367.878 25.0732 367.617 25.1494 367.406 25.3018C367.201 25.4482 367.046 25.6445 366.94 25.8906C366.841 26.1309 366.791 26.3887 366.791 26.6641ZM371.801 34.5479V33.8623C371.801 33.3818 371.906 32.9424 372.117 32.5439C372.328 32.1455 372.63 31.8262 373.022 31.5859C373.415 31.3457 373.881 31.2256 374.42 31.2256C374.971 31.2256 375.439 31.3457 375.826 31.5859C376.219 31.8262 376.521 32.1455 376.731 32.5439C376.942 32.9424 377.048 33.3818 377.048 33.8623V34.5479C377.048 35.0283 376.942 35.4678 376.731 35.8662C376.526 36.2646 376.228 36.584 375.835 36.8242C375.448 37.0645 374.982 37.1846 374.438 37.1846C373.893 37.1846 373.424 37.0645 373.031 36.8242C372.639 36.584 372.334 36.2646 372.117 35.8662C371.906 35.4678 371.801 35.0283 371.801 34.5479ZM373.022 33.8623V34.5479C373.022 34.8174 373.072 35.0752 373.172 35.3213C373.277 35.5615 373.436 35.7578 373.646 35.9102C373.857 36.0566 374.121 36.1299 374.438 36.1299C374.754 36.1299 375.015 36.0566 375.22 35.9102C375.431 35.7578 375.586 35.5615 375.686 35.3213C375.785 35.0811 375.835 34.8232 375.835 34.5479V33.8623C375.835 33.5869 375.782 33.3291 375.677 33.0889C375.577 32.8486 375.422 32.6553 375.211 32.5088C375.006 32.3564 374.742 32.2803 374.42 32.2803C374.109 32.2803 373.849 32.3564 373.638 32.5088C373.433 32.6553 373.277 32.8486 373.172 33.0889C373.072 33.3291 373.022 33.5869 373.022 33.8623ZM374.824 26.0225L368.575 36.0244L367.661 35.4443L373.91 25.4424L374.824 26.0225Z" fill="#44C208"/>
<path d="M385.188 35.4167V22.5834" stroke="#44C208" stroke-width="2" stroke-linecap="round" stroke-linejoin="round"/>
<path d="M388.354 26.25L385.188 22.5833" stroke="#44C208" stroke-width="2" stroke-linecap="round" stroke-linejoin="round"/>
<path d="M382.021 26.25L385.188 22.5833" stroke="#44C208" stroke-width="2" stroke-linecap="round" stroke-linejoin="round"/>
<line x1="4.4622e-08" y1="67.5" x2="406" y2="67.5" stroke="#E3E8EE"/>
</svg>
