<svg width="406" height="68" viewBox="0 0 406 68" fill="none" xmlns="http://www.w3.org/2000/svg">
<rect width="406" height="68" fill="#F8F8FE"/>
<path d="M40.8637 35.1286C38.8601 43.1644 30.7202 48.0548 22.6826 46.0509C14.6483 44.0476 9.75731 35.9081 11.7618 27.873C13.7645 19.8363 21.9044 14.9455 29.9395 16.9489C37.9766 18.9522 42.8673 27.0926 40.8635 35.1287L40.8636 35.1286H40.8637Z" fill="#23292F"/>
<path d="M33.6906 22.75H36.718L30.4179 28.9872C28.1363 31.2448 24.4373 31.2448 22.1541 28.9872L15.8516 22.75H18.8813L23.6678 27.488C25.1189 28.918 27.4494 28.918 28.9005 27.488L33.6906 22.75Z" fill="white"/>
<path d="M18.8424 40.0938H15.813L22.154 33.8181C24.4355 31.5606 28.1346 31.5606 30.4177 33.8181L36.7587 40.0938H33.7314L28.9041 35.3173C27.453 33.8873 25.1224 33.8873 23.6713 35.3173L18.8424 40.0938Z" fill="white"/>
<path d="M98.1641 25.2031L101.24 30.1074L104.316 25.2031H106.294L102.251 31.54L106.391 38H104.396L101.24 32.999L98.085 38H96.0898L100.229 31.54L96.1865 25.2031H98.1641ZM108.351 25.2031H112.587C113.548 25.2031 114.359 25.3496 115.021 25.6426C115.689 25.9355 116.196 26.3691 116.542 26.9434C116.894 27.5117 117.069 28.2119 117.069 29.0439C117.069 29.6299 116.949 30.166 116.709 30.6523C116.475 31.1328 116.135 31.543 115.689 31.8828C115.25 32.2168 114.723 32.4658 114.107 32.6299L113.633 32.8145H109.651L109.634 31.4346H112.64C113.249 31.4346 113.756 31.3291 114.16 31.1182C114.564 30.9014 114.869 30.6113 115.074 30.248C115.279 29.8848 115.382 29.4834 115.382 29.0439C115.382 28.5518 115.285 28.1211 115.092 27.752C114.898 27.3828 114.594 27.0986 114.178 26.8994C113.768 26.6943 113.237 26.5918 112.587 26.5918H110.047V38H108.351V25.2031ZM115.83 38L112.719 32.1992L114.485 32.1904L117.641 37.8945V38H115.83ZM124.162 32.9814H120.743V31.6016H124.162C124.824 31.6016 125.36 31.4961 125.771 31.2852C126.181 31.0742 126.479 30.7812 126.667 30.4062C126.86 30.0312 126.957 29.6035 126.957 29.123C126.957 28.6836 126.86 28.2705 126.667 27.8838C126.479 27.4971 126.181 27.1865 125.771 26.9521C125.36 26.7119 124.824 26.5918 124.162 26.5918H121.139V38H119.442V25.2031H124.162C125.129 25.2031 125.946 25.3701 126.614 25.7041C127.282 26.0381 127.789 26.501 128.135 27.0928C128.48 27.6787 128.653 28.3496 128.653 29.1055C128.653 29.9258 128.48 30.626 128.135 31.2061C127.789 31.7861 127.282 32.2285 126.614 32.5332C125.946 32.832 125.129 32.9814 124.162 32.9814Z" fill="#30364D"/>
<path d="M189.236 23.6289V26.3096H187.918V23.6289H189.236ZM189.078 37.9814V40.3281H187.769V37.9814H189.078ZM190.836 35.2041C190.836 34.8525 190.757 34.5361 190.599 34.2549C190.44 33.9736 190.18 33.7158 189.816 33.4814C189.453 33.2471 188.967 33.0303 188.357 32.8311C187.619 32.6025 186.98 32.3242 186.441 31.9961C185.908 31.668 185.495 31.2607 185.202 30.7744C184.915 30.2881 184.771 29.6992 184.771 29.0078C184.771 28.2871 184.927 27.666 185.237 27.1445C185.548 26.623 185.987 26.2217 186.556 25.9404C187.124 25.6592 187.792 25.5186 188.56 25.5186C189.157 25.5186 189.69 25.6094 190.159 25.791C190.628 25.9668 191.023 26.2305 191.346 26.582C191.674 26.9336 191.923 27.3643 192.093 27.874C192.269 28.3838 192.356 28.9727 192.356 29.6406H190.739C190.739 29.248 190.692 28.8877 190.599 28.5596C190.505 28.2314 190.364 27.9473 190.177 27.707C189.989 27.4609 189.761 27.2734 189.491 27.1445C189.222 27.0098 188.911 26.9424 188.56 26.9424C188.067 26.9424 187.66 27.0273 187.338 27.1973C187.021 27.3672 186.787 27.6074 186.635 27.918C186.482 28.2227 186.406 28.5771 186.406 28.9814C186.406 29.3564 186.482 29.6846 186.635 29.9658C186.787 30.2471 187.045 30.502 187.408 30.7305C187.777 30.9531 188.284 31.1729 188.929 31.3896C189.685 31.6299 190.326 31.9141 190.854 32.2422C191.381 32.5645 191.782 32.9629 192.058 33.4375C192.333 33.9062 192.471 34.4893 192.471 35.1865C192.471 35.9424 192.301 36.5811 191.961 37.1025C191.621 37.6182 191.144 38.0107 190.528 38.2803C189.913 38.5498 189.192 38.6846 188.366 38.6846C187.868 38.6846 187.376 38.6172 186.89 38.4824C186.403 38.3477 185.964 38.1279 185.571 37.8232C185.179 37.5127 184.865 37.1055 184.631 36.6016C184.396 36.0918 184.279 35.4678 184.279 34.7295H185.914C185.914 35.2275 185.984 35.6406 186.125 35.9688C186.271 36.291 186.465 36.5488 186.705 36.7422C186.945 36.9297 187.209 37.0645 187.496 37.1465C187.789 37.2227 188.079 37.2607 188.366 37.2607C188.894 37.2607 189.339 37.1787 189.702 37.0146C190.071 36.8447 190.353 36.6045 190.546 36.2939C190.739 35.9834 190.836 35.6201 190.836 35.2041ZM206.999 31.082V33.0332C206.999 34.082 206.905 34.9668 206.718 35.6875C206.53 36.4082 206.261 36.9883 205.909 37.4277C205.558 37.8672 205.133 38.1865 204.635 38.3857C204.143 38.5791 203.586 38.6758 202.965 38.6758C202.473 38.6758 202.019 38.6143 201.603 38.4912C201.187 38.3682 200.812 38.1719 200.478 37.9023C200.149 37.627 199.868 37.2695 199.634 36.8301C199.399 36.3906 199.221 35.8574 199.098 35.2305C198.975 34.6035 198.913 33.8711 198.913 33.0332V31.082C198.913 30.0332 199.007 29.1543 199.194 28.4453C199.388 27.7363 199.66 27.168 200.012 26.7402C200.363 26.3066 200.785 25.9961 201.277 25.8086C201.775 25.6211 202.332 25.5273 202.947 25.5273C203.445 25.5273 203.902 25.5889 204.318 25.7119C204.74 25.8291 205.115 26.0195 205.443 26.2832C205.771 26.541 206.05 26.8867 206.278 27.3203C206.513 27.748 206.691 28.2725 206.814 28.8936C206.938 29.5146 206.999 30.2441 206.999 31.082ZM205.364 33.2969V30.8096C205.364 30.2354 205.329 29.7314 205.259 29.2979C205.194 28.8584 205.098 28.4834 204.969 28.1729C204.84 27.8623 204.676 27.6104 204.477 27.417C204.283 27.2236 204.058 27.083 203.8 26.9951C203.548 26.9014 203.264 26.8545 202.947 26.8545C202.561 26.8545 202.218 26.9277 201.919 27.0742C201.62 27.2148 201.368 27.4404 201.163 27.751C200.964 28.0615 200.812 28.4688 200.706 28.9727C200.601 29.4766 200.548 30.0889 200.548 30.8096V33.2969C200.548 33.8711 200.58 34.3779 200.645 34.8174C200.715 35.2568 200.817 35.6377 200.952 35.96C201.087 36.2764 201.251 36.5371 201.444 36.7422C201.638 36.9473 201.86 37.0996 202.112 37.1992C202.37 37.293 202.654 37.3398 202.965 37.3398C203.363 37.3398 203.712 37.2637 204.011 37.1113C204.31 36.959 204.559 36.7217 204.758 36.3994C204.963 36.0713 205.115 35.6523 205.215 35.1426C205.314 34.627 205.364 34.0117 205.364 33.2969ZM209.293 37.6387C209.293 37.3633 209.378 37.1318 209.548 36.9443C209.724 36.751 209.976 36.6543 210.304 36.6543C210.632 36.6543 210.881 36.751 211.051 36.9443C211.227 37.1318 211.314 37.3633 211.314 37.6387C211.314 37.9082 211.227 38.1367 211.051 38.3242C210.881 38.5117 210.632 38.6055 210.304 38.6055C209.976 38.6055 209.724 38.5117 209.548 38.3242C209.378 38.1367 209.293 37.9082 209.293 37.6387ZM222.485 34.1934V35.5293H213.239V34.5713L218.97 25.7031H220.297L218.873 28.2695L215.085 34.1934H222.485ZM220.701 25.7031V38.5H219.075V25.7031H220.701ZM229.306 25.6328V38.5H227.68V27.6631L224.401 28.8584V27.3906L229.051 25.6328H229.306ZM236.46 31.3018H237.62C238.188 31.3018 238.657 31.208 239.026 31.0205C239.401 30.8271 239.68 30.5664 239.861 30.2383C240.049 29.9043 240.143 29.5293 240.143 29.1133C240.143 28.6211 240.061 28.208 239.896 27.874C239.732 27.54 239.486 27.2881 239.158 27.1182C238.83 26.9482 238.414 26.8633 237.91 26.8633C237.453 26.8633 237.049 26.9541 236.697 27.1357C236.352 27.3115 236.079 27.5635 235.88 27.8916C235.687 28.2197 235.59 28.6064 235.59 29.0518H233.964C233.964 28.4014 234.128 27.8096 234.456 27.2764C234.784 26.7432 235.244 26.3184 235.836 26.002C236.434 25.6855 237.125 25.5273 237.91 25.5273C238.684 25.5273 239.36 25.665 239.94 25.9404C240.521 26.21 240.972 26.6143 241.294 27.1533C241.616 27.6865 241.777 28.3516 241.777 29.1484C241.777 29.4707 241.701 29.8164 241.549 30.1855C241.402 30.5488 241.171 30.8887 240.854 31.2051C240.544 31.5215 240.14 31.7822 239.642 31.9873C239.144 32.1865 238.546 32.2861 237.849 32.2861H236.46V31.3018ZM236.46 32.6377V31.6621H237.849C238.663 31.6621 239.337 31.7588 239.87 31.9521C240.403 32.1455 240.822 32.4033 241.127 32.7256C241.438 33.0479 241.654 33.4023 241.777 33.7891C241.906 34.1699 241.971 34.5508 241.971 34.9316C241.971 35.5293 241.868 36.0596 241.663 36.5225C241.464 36.9854 241.18 37.3779 240.811 37.7002C240.447 38.0225 240.02 38.2656 239.527 38.4297C239.035 38.5938 238.499 38.6758 237.919 38.6758C237.362 38.6758 236.838 38.5967 236.346 38.4385C235.859 38.2803 235.429 38.0518 235.054 37.7529C234.679 37.4482 234.386 37.0762 234.175 36.6367C233.964 36.1914 233.858 35.6846 233.858 35.1162H235.484C235.484 35.5615 235.581 35.9512 235.774 36.2852C235.974 36.6191 236.255 36.8799 236.618 37.0674C236.987 37.249 237.421 37.3398 237.919 37.3398C238.417 37.3398 238.845 37.2549 239.202 37.085C239.565 36.9092 239.844 36.6455 240.037 36.2939C240.236 35.9424 240.336 35.5 240.336 34.9668C240.336 34.4336 240.225 33.9971 240.002 33.6572C239.779 33.3115 239.463 33.0566 239.053 32.8926C238.648 32.7227 238.171 32.6377 237.62 32.6377H236.46ZM252.482 25.7031V26.6172L247.183 38.5H245.469L250.76 27.0391H243.834V25.7031H252.482Z" fill="#30364D"/>
<path d="M329.77 30.1357V31.665H320.998V30.1357H329.77ZM326.201 26.4004V35.7168H324.575V26.4004H326.201ZM336.933 24.1328V37H335.307V26.1631L332.028 27.3584V25.8906L336.678 24.1328H336.933ZM341.916 36.1387C341.916 35.8633 342.001 35.6318 342.171 35.4443C342.347 35.251 342.599 35.1543 342.927 35.1543C343.255 35.1543 343.504 35.251 343.674 35.4443C343.85 35.6318 343.938 35.8633 343.938 36.1387C343.938 36.4082 343.85 36.6367 343.674 36.8242C343.504 37.0117 343.255 37.1055 342.927 37.1055C342.599 37.1055 342.347 37.0117 342.171 36.8242C342.001 36.6367 341.916 36.4082 341.916 36.1387ZM348.833 29.8018H349.993C350.562 29.8018 351.03 29.708 351.399 29.5205C351.774 29.3271 352.053 29.0664 352.234 28.7383C352.422 28.4043 352.516 28.0293 352.516 27.6133C352.516 27.1211 352.434 26.708 352.27 26.374C352.105 26.04 351.859 25.7881 351.531 25.6182C351.203 25.4482 350.787 25.3633 350.283 25.3633C349.826 25.3633 349.422 25.4541 349.07 25.6357C348.725 25.8115 348.452 26.0635 348.253 26.3916C348.06 26.7197 347.963 27.1064 347.963 27.5518H346.337C346.337 26.9014 346.501 26.3096 346.829 25.7764C347.157 25.2432 347.617 24.8184 348.209 24.502C348.807 24.1855 349.498 24.0273 350.283 24.0273C351.057 24.0273 351.733 24.165 352.313 24.4404C352.894 24.71 353.345 25.1143 353.667 25.6533C353.989 26.1865 354.15 26.8516 354.15 27.6484C354.15 27.9707 354.074 28.3164 353.922 28.6855C353.775 29.0488 353.544 29.3887 353.228 29.7051C352.917 30.0215 352.513 30.2822 352.015 30.4873C351.517 30.6865 350.919 30.7861 350.222 30.7861H348.833V29.8018ZM348.833 31.1377V30.1621H350.222C351.036 30.1621 351.71 30.2588 352.243 30.4521C352.776 30.6455 353.195 30.9033 353.5 31.2256C353.811 31.5479 354.027 31.9023 354.15 32.2891C354.279 32.6699 354.344 33.0508 354.344 33.4316C354.344 34.0293 354.241 34.5596 354.036 35.0225C353.837 35.4854 353.553 35.8779 353.184 36.2002C352.82 36.5225 352.393 36.7656 351.9 36.9297C351.408 37.0938 350.872 37.1758 350.292 37.1758C349.735 37.1758 349.211 37.0967 348.719 36.9385C348.232 36.7803 347.802 36.5518 347.427 36.2529C347.052 35.9482 346.759 35.5762 346.548 35.1367C346.337 34.6914 346.231 34.1846 346.231 33.6162H347.857C347.857 34.0615 347.954 34.4512 348.147 34.7852C348.347 35.1191 348.628 35.3799 348.991 35.5674C349.36 35.749 349.794 35.8398 350.292 35.8398C350.79 35.8398 351.218 35.7549 351.575 35.585C351.938 35.4092 352.217 35.1455 352.41 34.7939C352.609 34.4424 352.709 34 352.709 33.4668C352.709 32.9336 352.598 32.4971 352.375 32.1572C352.152 31.8115 351.836 31.5566 351.426 31.3926C351.021 31.2227 350.544 31.1377 349.993 31.1377H348.833ZM365.233 32.6934V34.0293H355.987V33.0713L361.718 24.2031H363.045L361.621 26.7695L357.833 32.6934H365.233ZM363.449 24.2031V37H361.823V24.2031H363.449ZM366.569 27.3408V26.6641C366.569 26.1777 366.675 25.7354 366.886 25.3369C367.097 24.9385 367.398 24.6191 367.791 24.3789C368.184 24.1387 368.649 24.0186 369.188 24.0186C369.739 24.0186 370.208 24.1387 370.595 24.3789C370.987 24.6191 371.289 24.9385 371.5 25.3369C371.711 25.7354 371.816 26.1777 371.816 26.6641V27.3408C371.816 27.8154 371.711 28.252 371.5 28.6504C371.295 29.0488 370.996 29.3682 370.604 29.6084C370.217 29.8486 369.751 29.9688 369.206 29.9688C368.661 29.9688 368.189 29.8486 367.791 29.6084C367.398 29.3682 367.097 29.0488 366.886 28.6504C366.675 28.252 366.569 27.8154 366.569 27.3408ZM367.791 26.6641V27.3408C367.791 27.6104 367.841 27.8652 367.94 28.1055C368.046 28.3457 368.204 28.542 368.415 28.6943C368.626 28.8408 368.89 28.9141 369.206 28.9141C369.522 28.9141 369.783 28.8408 369.988 28.6943C370.193 28.542 370.346 28.3457 370.445 28.1055C370.545 27.8652 370.595 27.6104 370.595 27.3408V26.6641C370.595 26.3887 370.542 26.1309 370.437 25.8906C370.337 25.6445 370.182 25.4482 369.971 25.3018C369.766 25.1494 369.505 25.0732 369.188 25.0732C368.878 25.0732 368.617 25.1494 368.406 25.3018C368.201 25.4482 368.046 25.6445 367.94 25.8906C367.841 26.1309 367.791 26.3887 367.791 26.6641ZM372.801 34.5479V33.8623C372.801 33.3818 372.906 32.9424 373.117 32.5439C373.328 32.1455 373.63 31.8262 374.022 31.5859C374.415 31.3457 374.881 31.2256 375.42 31.2256C375.971 31.2256 376.439 31.3457 376.826 31.5859C377.219 31.8262 377.521 32.1455 377.731 32.5439C377.942 32.9424 378.048 33.3818 378.048 33.8623V34.5479C378.048 35.0283 377.942 35.4678 377.731 35.8662C377.526 36.2646 377.228 36.584 376.835 36.8242C376.448 37.0645 375.982 37.1846 375.438 37.1846C374.893 37.1846 374.424 37.0645 374.031 36.8242C373.639 36.584 373.334 36.2646 373.117 35.8662C372.906 35.4678 372.801 35.0283 372.801 34.5479ZM374.022 33.8623V34.5479C374.022 34.8174 374.072 35.0752 374.172 35.3213C374.277 35.5615 374.436 35.7578 374.646 35.9102C374.857 36.0566 375.121 36.1299 375.438 36.1299C375.754 36.1299 376.015 36.0566 376.22 35.9102C376.431 35.7578 376.586 35.5615 376.686 35.3213C376.785 35.0811 376.835 34.8232 376.835 34.5479V33.8623C376.835 33.5869 376.782 33.3291 376.677 33.0889C376.577 32.8486 376.422 32.6553 376.211 32.5088C376.006 32.3564 375.742 32.2803 375.42 32.2803C375.109 32.2803 374.849 32.3564 374.638 32.5088C374.433 32.6553 374.277 32.8486 374.172 33.0889C374.072 33.3291 374.022 33.5869 374.022 33.8623ZM375.824 26.0225L369.575 36.0244L368.661 35.4443L374.91 25.4424L375.824 26.0225Z" fill="#44C208"/>
<path d="M382.688 37.4167V24.5834" stroke="#44C208" stroke-width="2" stroke-linecap="round" stroke-linejoin="round"/>
<path d="M386.354 28.25L382.688 24.5833" stroke="#44C208" stroke-width="2" stroke-linecap="round" stroke-linejoin="round"/>
<path d="M379.021 28.25L382.688 24.5833" stroke="#44C208" stroke-width="2" stroke-linecap="round" stroke-linejoin="round"/>
<line x1="4.4622e-08" y1="67.5" x2="406" y2="67.5" stroke="#E3E8EE"/>
</svg>
