<svg width="406" height="68" viewBox="0 0 406 68" fill="none" xmlns="http://www.w3.org/2000/svg">
<rect width="406" height="68" fill="white"/>
<circle cx="27.125" cy="31.5" r="15" fill="#EDF0F4"/>
<path d="M27.1895 21.5C23.0187 21.5168 19.6418 24.8937 19.625 29.0645C19.625 29.8998 19.7598 30.7295 20.0239 31.5217C20.2209 32.061 20.8057 32.3514 21.3546 32.1846C21.8851 31.9812 22.1667 31.4012 21.9976 30.8587C21.7734 30.2413 21.6737 29.5863 21.7032 28.9305C21.7942 25.9181 24.3096 23.5495 27.322 23.6404C30.3344 23.7314 32.703 26.2468 32.612 29.2592C32.5267 32.0793 30.3056 34.3698 27.4887 34.5413C27.4887 34.5413 26.4269 34.6059 25.8987 34.6705C25.7041 34.6984 25.511 34.7367 25.3203 34.7854C25.2932 34.8133 25.2493 34.8133 25.2214 34.7862L25.2206 34.7854C25.2015 34.7607 25.2015 34.7256 25.2206 34.7008L25.385 33.8041L26.3822 29.319C26.5018 28.759 26.1452 28.2077 25.5852 28.088C25.0252 27.9684 24.4739 28.325 24.3542 28.885C24.3542 28.885 21.9824 39.8632 21.9824 39.963C21.8468 40.4967 22.1691 41.0392 22.7028 41.1748C22.7084 41.1764 22.7148 41.178 22.7204 41.1788H22.7754C23.3083 41.3168 23.8524 40.9961 23.9896 40.4632C23.992 40.4544 23.9944 40.4456 23.996 40.4361C23.9944 40.4193 23.9944 40.4025 23.996 40.3866C24.0255 40.2574 24.3247 38.7966 24.3247 38.7966C24.5513 37.6941 25.44 36.8492 26.5521 36.6785C26.7811 36.6434 27.7432 36.5788 27.7432 36.5788C31.898 36.1648 34.9304 32.4607 34.5155 28.3058C34.1374 24.5164 30.9981 21.5989 27.1895 21.5Z" fill="#1E1E1E"/>
<path d="M27.6481 38.9418C26.966 38.7998 26.2991 39.2378 26.1571 39.9191C26.1555 39.9255 26.1547 39.9319 26.1531 39.9383C26.0055 40.6156 26.4347 41.2849 27.1128 41.4325C27.1136 41.4325 27.1144 41.4325 27.1152 41.4333H27.1503C27.814 41.5936 28.4818 41.1852 28.6413 40.5222C28.6429 40.5174 28.6437 40.5119 28.6453 40.5071V40.4377C28.7626 39.7532 28.3254 39.0966 27.6481 38.9418Z" fill="#E6007A"/>
<path d="M101.374 38H98.7021L98.7197 36.6201H101.374C102.288 36.6201 103.05 36.4297 103.659 36.0488C104.269 35.6621 104.726 35.123 105.03 34.4316C105.341 33.7344 105.496 32.9199 105.496 31.9883V31.2061C105.496 30.4736 105.408 29.8232 105.232 29.2549C105.057 28.6807 104.799 28.1973 104.459 27.8047C104.119 27.4062 103.703 27.1045 103.211 26.8994C102.725 26.6943 102.165 26.5918 101.532 26.5918H98.6494V25.2031H101.532C102.37 25.2031 103.135 25.3438 103.826 25.625C104.518 25.9004 105.112 26.3018 105.61 26.8291C106.114 27.3506 106.501 27.9834 106.771 28.7275C107.04 29.4658 107.175 30.2979 107.175 31.2236V31.9883C107.175 32.9141 107.04 33.749 106.771 34.4932C106.501 35.2314 106.111 35.8613 105.602 36.3828C105.098 36.9043 104.488 37.3057 103.773 37.5869C103.064 37.8623 102.265 38 101.374 38ZM99.6074 25.2031V38H97.9111V25.2031H99.6074ZM119.576 31.1973V32.0059C119.576 32.9668 119.456 33.8281 119.216 34.5898C118.976 35.3516 118.63 35.999 118.179 36.5322C117.728 37.0654 117.186 37.4727 116.553 37.7539C115.926 38.0352 115.223 38.1758 114.443 38.1758C113.688 38.1758 112.993 38.0352 112.36 37.7539C111.733 37.4727 111.188 37.0654 110.726 36.5322C110.269 35.999 109.914 35.3516 109.662 34.5898C109.41 33.8281 109.284 32.9668 109.284 32.0059V31.1973C109.284 30.2363 109.407 29.3779 109.653 28.6221C109.905 27.8604 110.26 27.2129 110.717 26.6797C111.174 26.1406 111.716 25.7305 112.343 25.4492C112.976 25.168 113.67 25.0273 114.426 25.0273C115.205 25.0273 115.908 25.168 116.535 25.4492C117.168 25.7305 117.71 26.1406 118.161 26.6797C118.618 27.2129 118.967 27.8604 119.207 28.6221C119.453 29.3779 119.576 30.2363 119.576 31.1973ZM117.897 32.0059V31.1797C117.897 30.418 117.818 29.7441 117.66 29.1582C117.508 28.5723 117.282 28.0801 116.983 27.6816C116.685 27.2832 116.318 26.9814 115.885 26.7764C115.457 26.5713 114.971 26.4688 114.426 26.4688C113.898 26.4688 113.421 26.5713 112.993 26.7764C112.571 26.9814 112.208 27.2832 111.903 27.6816C111.604 28.0801 111.373 28.5723 111.209 29.1582C111.045 29.7441 110.963 30.418 110.963 31.1797V32.0059C110.963 32.7734 111.045 33.4531 111.209 34.0449C111.373 34.6309 111.607 35.126 111.912 35.5303C112.223 35.9287 112.589 36.2305 113.011 36.4355C113.438 36.6406 113.916 36.7432 114.443 36.7432C114.994 36.7432 115.483 36.6406 115.911 36.4355C116.339 36.2305 116.699 35.9287 116.992 35.5303C117.291 35.126 117.517 34.6309 117.669 34.0449C117.821 33.4531 117.897 32.7734 117.897 32.0059ZM126.599 25.2031V38H124.929V25.2031H126.599ZM130.712 25.2031V26.5918H120.824V25.2031H130.712Z" fill="#30364D"/>
<path d="M191.049 23.6289V26.3096H189.73V23.6289H191.049ZM190.891 37.9814V40.3281H189.581V37.9814H190.891ZM192.648 35.2041C192.648 34.8525 192.569 34.5361 192.411 34.2549C192.253 33.9736 191.992 33.7158 191.629 33.4814C191.266 33.2471 190.779 33.0303 190.17 32.8311C189.432 32.6025 188.793 32.3242 188.254 31.9961C187.721 31.668 187.308 31.2607 187.015 30.7744C186.728 30.2881 186.584 29.6992 186.584 29.0078C186.584 28.2871 186.739 27.666 187.05 27.1445C187.36 26.623 187.8 26.2217 188.368 25.9404C188.937 25.6592 189.604 25.5186 190.372 25.5186C190.97 25.5186 191.503 25.6094 191.972 25.791C192.44 25.9668 192.836 26.2305 193.158 26.582C193.486 26.9336 193.735 27.3643 193.905 27.874C194.081 28.3838 194.169 28.9727 194.169 29.6406H192.552C192.552 29.248 192.505 28.8877 192.411 28.5596C192.317 28.2314 192.177 27.9473 191.989 27.707C191.802 27.4609 191.573 27.2734 191.304 27.1445C191.034 27.0098 190.724 26.9424 190.372 26.9424C189.88 26.9424 189.473 27.0273 189.15 27.1973C188.834 27.3672 188.6 27.6074 188.447 27.918C188.295 28.2227 188.219 28.5771 188.219 28.9814C188.219 29.3564 188.295 29.6846 188.447 29.9658C188.6 30.2471 188.857 30.502 189.221 30.7305C189.59 30.9531 190.097 31.1729 190.741 31.3896C191.497 31.6299 192.139 31.9141 192.666 32.2422C193.193 32.5645 193.595 32.9629 193.87 33.4375C194.146 33.9062 194.283 34.4893 194.283 35.1865C194.283 35.9424 194.113 36.5811 193.773 37.1025C193.434 37.6182 192.956 38.0107 192.341 38.2803C191.726 38.5498 191.005 38.6846 190.179 38.6846C189.681 38.6846 189.188 38.6172 188.702 38.4824C188.216 38.3477 187.776 38.1279 187.384 37.8232C186.991 37.5127 186.678 37.1055 186.443 36.6016C186.209 36.0918 186.092 35.4678 186.092 34.7295H187.727C187.727 35.2275 187.797 35.6406 187.938 35.9688C188.084 36.291 188.277 36.5488 188.518 36.7422C188.758 36.9297 189.021 37.0645 189.309 37.1465C189.602 37.2227 189.892 37.2607 190.179 37.2607C190.706 37.2607 191.151 37.1787 191.515 37.0146C191.884 36.8447 192.165 36.6045 192.358 36.2939C192.552 35.9834 192.648 35.6201 192.648 35.2041ZM202.396 37.1377H202.562C203.5 37.1377 204.262 37.0059 204.848 36.7422C205.434 36.4785 205.885 36.124 206.201 35.6787C206.518 35.2334 206.734 34.7324 206.852 34.1758C206.969 33.6133 207.027 33.0361 207.027 32.4443V30.4844C207.027 29.9043 206.96 29.3887 206.825 28.9375C206.696 28.4863 206.515 28.1084 206.28 27.8037C206.052 27.499 205.791 27.2676 205.498 27.1094C205.205 26.9512 204.895 26.8721 204.566 26.8721C204.191 26.8721 203.854 26.9482 203.556 27.1006C203.263 27.2471 203.014 27.4551 202.809 27.7246C202.609 27.9941 202.457 28.3105 202.352 28.6738C202.246 29.0371 202.193 29.4326 202.193 29.8604C202.193 30.2412 202.24 30.6104 202.334 30.9678C202.428 31.3252 202.571 31.6475 202.765 31.9346C202.958 32.2217 203.198 32.4502 203.485 32.6201C203.778 32.7842 204.121 32.8662 204.514 32.8662C204.877 32.8662 205.217 32.7959 205.533 32.6553C205.855 32.5088 206.14 32.3125 206.386 32.0664C206.638 31.8145 206.837 31.5303 206.983 31.2139C207.136 30.8975 207.224 30.5664 207.247 30.2207H208.021C208.021 30.707 207.924 31.1875 207.73 31.6621C207.543 32.1309 207.279 32.5586 206.939 32.9453C206.6 33.332 206.201 33.6426 205.744 33.877C205.287 34.1055 204.789 34.2197 204.25 34.2197C203.617 34.2197 203.069 34.0967 202.606 33.8506C202.144 33.6045 201.763 33.2764 201.464 32.8662C201.171 32.4561 200.951 31.999 200.805 31.4951C200.664 30.9854 200.594 30.4697 200.594 29.9482C200.594 29.3389 200.679 28.7676 200.849 28.2344C201.019 27.7012 201.271 27.2324 201.604 26.8281C201.938 26.418 202.352 26.0986 202.844 25.8701C203.342 25.6416 203.916 25.5273 204.566 25.5273C205.299 25.5273 205.923 25.6738 206.438 25.9668C206.954 26.2598 207.373 26.6523 207.695 27.1445C208.023 27.6367 208.264 28.1904 208.416 28.8057C208.568 29.4209 208.645 30.0537 208.645 30.7041V31.293C208.645 31.9551 208.601 32.6289 208.513 33.3145C208.431 33.9941 208.27 34.6445 208.029 35.2656C207.795 35.8867 207.452 36.4434 207.001 36.9355C206.55 37.4219 205.961 37.8086 205.234 38.0957C204.514 38.377 203.623 38.5176 202.562 38.5176H202.396V37.1377ZM211.105 37.6387C211.105 37.3633 211.19 37.1318 211.36 36.9443C211.536 36.751 211.788 36.6543 212.116 36.6543C212.444 36.6543 212.693 36.751 212.863 36.9443C213.039 37.1318 213.127 37.3633 213.127 37.6387C213.127 37.9082 213.039 38.1367 212.863 38.3242C212.693 38.5117 212.444 38.6055 212.116 38.6055C211.788 38.6055 211.536 38.5117 211.36 38.3242C211.19 38.1367 211.105 37.9082 211.105 37.6387ZM217.267 37.1377H217.434C218.371 37.1377 219.133 37.0059 219.719 36.7422C220.305 36.4785 220.756 36.124 221.072 35.6787C221.389 35.2334 221.605 34.7324 221.723 34.1758C221.84 33.6133 221.898 33.0361 221.898 32.4443V30.4844C221.898 29.9043 221.831 29.3887 221.696 28.9375C221.567 28.4863 221.386 28.1084 221.151 27.8037C220.923 27.499 220.662 27.2676 220.369 27.1094C220.076 26.9512 219.766 26.8721 219.438 26.8721C219.062 26.8721 218.726 26.9482 218.427 27.1006C218.134 27.2471 217.885 27.4551 217.68 27.7246C217.48 27.9941 217.328 28.3105 217.223 28.6738C217.117 29.0371 217.064 29.4326 217.064 29.8604C217.064 30.2412 217.111 30.6104 217.205 30.9678C217.299 31.3252 217.442 31.6475 217.636 31.9346C217.829 32.2217 218.069 32.4502 218.356 32.6201C218.649 32.7842 218.992 32.8662 219.385 32.8662C219.748 32.8662 220.088 32.7959 220.404 32.6553C220.727 32.5088 221.011 32.3125 221.257 32.0664C221.509 31.8145 221.708 31.5303 221.854 31.2139C222.007 30.8975 222.095 30.5664 222.118 30.2207H222.892C222.892 30.707 222.795 31.1875 222.602 31.6621C222.414 32.1309 222.15 32.5586 221.811 32.9453C221.471 33.332 221.072 33.6426 220.615 33.877C220.158 34.1055 219.66 34.2197 219.121 34.2197C218.488 34.2197 217.94 34.0967 217.478 33.8506C217.015 33.6045 216.634 33.2764 216.335 32.8662C216.042 32.4561 215.822 31.999 215.676 31.4951C215.535 30.9854 215.465 30.4697 215.465 29.9482C215.465 29.3389 215.55 28.7676 215.72 28.2344C215.89 27.7012 216.142 27.2324 216.476 26.8281C216.81 26.418 217.223 26.0986 217.715 25.8701C218.213 25.6416 218.787 25.5273 219.438 25.5273C220.17 25.5273 220.794 25.6738 221.31 25.9668C221.825 26.2598 222.244 26.6523 222.566 27.1445C222.895 27.6367 223.135 28.1904 223.287 28.8057C223.439 29.4209 223.516 30.0537 223.516 30.7041V31.293C223.516 31.9551 223.472 32.6289 223.384 33.3145C223.302 33.9941 223.141 34.6445 222.9 35.2656C222.666 35.8867 222.323 36.4434 221.872 36.9355C221.421 37.4219 220.832 37.8086 220.105 38.0957C219.385 38.377 218.494 38.5176 217.434 38.5176H217.267V37.1377ZM227.831 32.4092L226.53 32.0752L227.172 25.7031H233.737V27.2061H228.552L228.165 30.6865C228.399 30.5518 228.695 30.4258 229.053 30.3086C229.416 30.1914 229.832 30.1328 230.301 30.1328C230.893 30.1328 231.423 30.2354 231.892 30.4404C232.36 30.6396 232.759 30.9268 233.087 31.3018C233.421 31.6768 233.676 32.1279 233.852 32.6553C234.027 33.1826 234.115 33.7715 234.115 34.4219C234.115 35.0371 234.03 35.6025 233.86 36.1182C233.696 36.6338 233.447 37.085 233.113 37.4717C232.779 37.8525 232.357 38.1484 231.848 38.3594C231.344 38.5703 230.749 38.6758 230.063 38.6758C229.548 38.6758 229.059 38.6055 228.596 38.4648C228.139 38.3184 227.729 38.0986 227.365 37.8057C227.008 37.5068 226.715 37.1377 226.486 36.6982C226.264 36.2529 226.123 35.7314 226.064 35.1338H227.611C227.682 35.6143 227.822 36.0186 228.033 36.3467C228.244 36.6748 228.52 36.9238 228.859 37.0938C229.205 37.2578 229.606 37.3398 230.063 37.3398C230.45 37.3398 230.793 37.2725 231.092 37.1377C231.391 37.0029 231.643 36.8096 231.848 36.5576C232.053 36.3057 232.208 36.001 232.313 35.6436C232.425 35.2861 232.48 34.8848 232.48 34.4395C232.48 34.0352 232.425 33.6602 232.313 33.3145C232.202 32.9688 232.035 32.667 231.812 32.4092C231.596 32.1514 231.329 31.9521 231.013 31.8115C230.696 31.665 230.333 31.5918 229.923 31.5918C229.378 31.5918 228.965 31.665 228.684 31.8115C228.408 31.958 228.124 32.1572 227.831 32.4092Z" fill="#30364D"/>
<path d="M326.748 30.8916V32.2275H322.459V30.8916H326.748ZM333.507 24.1328V37H331.881V26.1631L328.603 27.3584V25.8906L333.252 24.1328H333.507ZM338.49 36.1387C338.49 35.8633 338.575 35.6318 338.745 35.4443C338.921 35.251 339.173 35.1543 339.501 35.1543C339.829 35.1543 340.078 35.251 340.248 35.4443C340.424 35.6318 340.512 35.8633 340.512 36.1387C340.512 36.4082 340.424 36.6367 340.248 36.8242C340.078 37.0117 339.829 37.1055 339.501 37.1055C339.173 37.1055 338.921 37.0117 338.745 36.8242C338.575 36.6367 338.49 36.4082 338.49 36.1387ZM344.651 35.6377H344.818C345.756 35.6377 346.518 35.5059 347.104 35.2422C347.689 34.9785 348.141 34.624 348.457 34.1787C348.773 33.7334 348.99 33.2324 349.107 32.6758C349.225 32.1133 349.283 31.5361 349.283 30.9443V28.9844C349.283 28.4043 349.216 27.8887 349.081 27.4375C348.952 26.9863 348.771 26.6084 348.536 26.3037C348.308 25.999 348.047 25.7676 347.754 25.6094C347.461 25.4512 347.15 25.3721 346.822 25.3721C346.447 25.3721 346.11 25.4482 345.812 25.6006C345.519 25.7471 345.27 25.9551 345.064 26.2246C344.865 26.4941 344.713 26.8105 344.607 27.1738C344.502 27.5371 344.449 27.9326 344.449 28.3604C344.449 28.7412 344.496 29.1104 344.59 29.4678C344.684 29.8252 344.827 30.1475 345.021 30.4346C345.214 30.7217 345.454 30.9502 345.741 31.1201C346.034 31.2842 346.377 31.3662 346.77 31.3662C347.133 31.3662 347.473 31.2959 347.789 31.1553C348.111 31.0088 348.396 30.8125 348.642 30.5664C348.894 30.3145 349.093 30.0303 349.239 29.7139C349.392 29.3975 349.479 29.0664 349.503 28.7207H350.276C350.276 29.207 350.18 29.6875 349.986 30.1621C349.799 30.6309 349.535 31.0586 349.195 31.4453C348.855 31.832 348.457 32.1426 348 32.377C347.543 32.6055 347.045 32.7197 346.506 32.7197C345.873 32.7197 345.325 32.5967 344.862 32.3506C344.399 32.1045 344.019 31.7764 343.72 31.3662C343.427 30.9561 343.207 30.499 343.061 29.9951C342.92 29.4854 342.85 28.9697 342.85 28.4482C342.85 27.8389 342.935 27.2676 343.104 26.7344C343.274 26.2012 343.526 25.7324 343.86 25.3281C344.194 24.918 344.607 24.5986 345.1 24.3701C345.598 24.1416 346.172 24.0273 346.822 24.0273C347.555 24.0273 348.179 24.1738 348.694 24.4668C349.21 24.7598 349.629 25.1523 349.951 25.6445C350.279 26.1367 350.52 26.6904 350.672 27.3057C350.824 27.9209 350.9 28.5537 350.9 29.2041V29.793C350.9 30.4551 350.856 31.1289 350.769 31.8145C350.687 32.4941 350.525 33.1445 350.285 33.7656C350.051 34.3867 349.708 34.9434 349.257 35.4355C348.806 35.9219 348.217 36.3086 347.49 36.5957C346.77 36.877 345.879 37.0176 344.818 37.0176H344.651V35.6377ZM361.43 24.2031V25.1172L356.13 37H354.416L359.707 25.5391H352.781V24.2031H361.43ZM363.144 27.3408V26.6641C363.144 26.1777 363.249 25.7354 363.46 25.3369C363.671 24.9385 363.973 24.6191 364.365 24.3789C364.758 24.1387 365.224 24.0186 365.763 24.0186C366.313 24.0186 366.782 24.1387 367.169 24.3789C367.562 24.6191 367.863 24.9385 368.074 25.3369C368.285 25.7354 368.391 26.1777 368.391 26.6641V27.3408C368.391 27.8154 368.285 28.252 368.074 28.6504C367.869 29.0488 367.57 29.3682 367.178 29.6084C366.791 29.8486 366.325 29.9688 365.78 29.9688C365.235 29.9688 364.764 29.8486 364.365 29.6084C363.973 29.3682 363.671 29.0488 363.46 28.6504C363.249 28.252 363.144 27.8154 363.144 27.3408ZM364.365 26.6641V27.3408C364.365 27.6104 364.415 27.8652 364.515 28.1055C364.62 28.3457 364.778 28.542 364.989 28.6943C365.2 28.8408 365.464 28.9141 365.78 28.9141C366.097 28.9141 366.357 28.8408 366.562 28.6943C366.768 28.542 366.92 28.3457 367.02 28.1055C367.119 27.8652 367.169 27.6104 367.169 27.3408V26.6641C367.169 26.3887 367.116 26.1309 367.011 25.8906C366.911 25.6445 366.756 25.4482 366.545 25.3018C366.34 25.1494 366.079 25.0732 365.763 25.0732C365.452 25.0732 365.191 25.1494 364.98 25.3018C364.775 25.4482 364.62 25.6445 364.515 25.8906C364.415 26.1309 364.365 26.3887 364.365 26.6641ZM369.375 34.5479V33.8623C369.375 33.3818 369.48 32.9424 369.691 32.5439C369.902 32.1455 370.204 31.8262 370.597 31.5859C370.989 31.3457 371.455 31.2256 371.994 31.2256C372.545 31.2256 373.014 31.3457 373.4 31.5859C373.793 31.8262 374.095 32.1455 374.306 32.5439C374.517 32.9424 374.622 33.3818 374.622 33.8623V34.5479C374.622 35.0283 374.517 35.4678 374.306 35.8662C374.101 36.2646 373.802 36.584 373.409 36.8242C373.022 37.0645 372.557 37.1846 372.012 37.1846C371.467 37.1846 370.998 37.0645 370.605 36.8242C370.213 36.584 369.908 36.2646 369.691 35.8662C369.48 35.4678 369.375 35.0283 369.375 34.5479ZM370.597 33.8623V34.5479C370.597 34.8174 370.646 35.0752 370.746 35.3213C370.852 35.5615 371.01 35.7578 371.221 35.9102C371.432 36.0566 371.695 36.1299 372.012 36.1299C372.328 36.1299 372.589 36.0566 372.794 35.9102C373.005 35.7578 373.16 35.5615 373.26 35.3213C373.359 35.0811 373.409 34.8232 373.409 34.5479V33.8623C373.409 33.5869 373.356 33.3291 373.251 33.0889C373.151 32.8486 372.996 32.6553 372.785 32.5088C372.58 32.3564 372.316 32.2803 371.994 32.2803C371.684 32.2803 371.423 32.3564 371.212 32.5088C371.007 32.6553 370.852 32.8486 370.746 33.0889C370.646 33.3291 370.597 33.5869 370.597 33.8623ZM372.398 26.0225L366.149 36.0244L365.235 35.4443L371.484 25.4424L372.398 26.0225Z" fill="#DE3434"/>
<path d="M383.375 24.0833V36.9166" stroke="#DE3434" stroke-width="2" stroke-linecap="round" stroke-linejoin="round"/>
<path d="M386.542 33.25L383.375 36.9167" stroke="#DE3434" stroke-width="2" stroke-linecap="round" stroke-linejoin="round"/>
<path d="M380.208 33.25L383.375 36.9167" stroke="#DE3434" stroke-width="2" stroke-linecap="round" stroke-linejoin="round"/>
<line x1="4.4622e-08" y1="67.5" x2="406" y2="67.5" stroke="#E3E8EE"/>
</svg>
