<svg width="406" height="68" viewBox="0 0 406 68" fill="none" xmlns="http://www.w3.org/2000/svg">
<rect width="406" height="68" fill="#F8F8FE"/>
<circle cx="28.125" cy="31.5" r="15" fill="black"/>
<path d="M22.4238 35.0536C22.5277 34.9497 22.6706 34.889 22.8222 34.889H36.5691C36.8203 34.889 36.9459 35.1922 36.7683 35.3698L34.0527 38.0854C33.9488 38.1893 33.8059 38.25 33.6543 38.25H19.9074C19.6562 38.25 19.5306 37.9468 19.7082 37.7692L22.4238 35.0536Z" fill="url(#paint0_linear_42_645)"/>
<path d="M22.4238 24.9146C22.532 24.8106 22.675 24.75 22.8222 24.75H36.5691C36.8203 24.75 36.9459 25.0532 36.7683 25.2308L34.0527 27.9463C33.9488 28.0503 33.8059 28.1109 33.6543 28.1109H19.9074C19.6562 28.1109 19.5306 27.8077 19.7082 27.6302L22.4238 24.9146Z" fill="url(#paint1_linear_42_645)"/>
<path d="M34.0527 29.9516C33.9488 29.8477 33.8059 29.787 33.6543 29.787H19.9074C19.6562 29.787 19.5306 30.0902 19.7082 30.2678L22.4238 32.9834C22.5277 33.0873 22.6706 33.148 22.8222 33.148H36.5691C36.8203 33.148 36.9459 32.8448 36.7683 32.6672L34.0527 29.9516Z" fill="url(#paint2_linear_42_645)"/>
<path d="M105.647 34.7656C105.647 34.4668 105.601 34.2031 105.507 33.9746C105.419 33.7402 105.261 33.5293 105.032 33.3418C104.81 33.1543 104.499 32.9756 104.101 32.8057C103.708 32.6357 103.21 32.4629 102.606 32.2871C101.974 32.0996 101.402 31.8916 100.893 31.6631C100.383 31.4287 99.9463 31.1621 99.583 30.8633C99.2197 30.5645 98.9414 30.2217 98.748 29.835C98.5547 29.4482 98.458 29.0059 98.458 28.5078C98.458 28.0098 98.5605 27.5498 98.7656 27.1279C98.9707 26.7061 99.2637 26.3398 99.6445 26.0293C100.031 25.7129 100.491 25.4668 101.024 25.291C101.558 25.1152 102.152 25.0273 102.809 25.0273C103.77 25.0273 104.584 25.2119 105.252 25.5811C105.926 25.9443 106.438 26.4219 106.79 27.0137C107.142 27.5996 107.317 28.2266 107.317 28.8945H105.63C105.63 28.4141 105.527 27.9893 105.322 27.6201C105.117 27.2451 104.807 26.9521 104.391 26.7412C103.975 26.5244 103.447 26.416 102.809 26.416C102.205 26.416 101.707 26.5068 101.314 26.6885C100.922 26.8701 100.629 27.1162 100.436 27.4268C100.248 27.7373 100.154 28.0918 100.154 28.4902C100.154 28.7598 100.21 29.0059 100.321 29.2285C100.438 29.4453 100.617 29.6475 100.857 29.835C101.104 30.0225 101.414 30.1953 101.789 30.3535C102.17 30.5117 102.624 30.6641 103.151 30.8105C103.878 31.0156 104.505 31.2441 105.032 31.4961C105.56 31.748 105.993 32.0322 106.333 32.3486C106.679 32.6592 106.934 33.0137 107.098 33.4121C107.268 33.8047 107.353 34.25 107.353 34.748C107.353 35.2695 107.247 35.7412 107.036 36.1631C106.825 36.585 106.523 36.9453 106.131 37.2441C105.738 37.543 105.267 37.7744 104.716 37.9385C104.171 38.0967 103.562 38.1758 102.888 38.1758C102.296 38.1758 101.713 38.0938 101.139 37.9297C100.57 37.7656 100.052 37.5195 99.583 37.1914C99.1201 36.8633 98.748 36.459 98.4668 35.9785C98.1914 35.4922 98.0537 34.9297 98.0537 34.291H99.7412C99.7412 34.7305 99.8262 35.1084 99.9961 35.4248C100.166 35.7354 100.397 35.9932 100.69 36.1982C100.989 36.4033 101.326 36.5557 101.701 36.6553C102.082 36.749 102.478 36.7959 102.888 36.7959C103.479 36.7959 103.98 36.7139 104.391 36.5498C104.801 36.3857 105.111 36.1514 105.322 35.8467C105.539 35.542 105.647 35.1816 105.647 34.7656ZM119.367 31.1973V32.0059C119.367 32.9668 119.247 33.8281 119.007 34.5898C118.767 35.3516 118.421 35.999 117.97 36.5322C117.519 37.0654 116.977 37.4727 116.344 37.7539C115.717 38.0352 115.014 38.1758 114.234 38.1758C113.479 38.1758 112.784 38.0352 112.151 37.7539C111.524 37.4727 110.979 37.0654 110.517 36.5322C110.06 35.999 109.705 35.3516 109.453 34.5898C109.201 33.8281 109.075 32.9668 109.075 32.0059V31.1973C109.075 30.2363 109.198 29.3779 109.444 28.6221C109.696 27.8604 110.051 27.2129 110.508 26.6797C110.965 26.1406 111.507 25.7305 112.134 25.4492C112.767 25.168 113.461 25.0273 114.217 25.0273C114.996 25.0273 115.699 25.168 116.326 25.4492C116.959 25.7305 117.501 26.1406 117.952 26.6797C118.409 27.2129 118.758 27.8604 118.998 28.6221C119.244 29.3779 119.367 30.2363 119.367 31.1973ZM117.688 32.0059V31.1797C117.688 30.418 117.609 29.7441 117.451 29.1582C117.299 28.5723 117.073 28.0801 116.774 27.6816C116.476 27.2832 116.109 26.9814 115.676 26.7764C115.248 26.5713 114.762 26.4688 114.217 26.4688C113.689 26.4688 113.212 26.5713 112.784 26.7764C112.362 26.9814 111.999 27.2832 111.694 27.6816C111.396 28.0801 111.164 28.5723 111 29.1582C110.836 29.7441 110.754 30.418 110.754 31.1797V32.0059C110.754 32.7734 110.836 33.4531 111 34.0449C111.164 34.6309 111.398 35.126 111.703 35.5303C112.014 35.9287 112.38 36.2305 112.802 36.4355C113.229 36.6406 113.707 36.7432 114.234 36.7432C114.785 36.7432 115.274 36.6406 115.702 36.4355C116.13 36.2305 116.49 35.9287 116.783 35.5303C117.082 35.126 117.308 34.6309 117.46 34.0449C117.612 33.4531 117.688 32.7734 117.688 32.0059ZM129.668 36.6201V38H123.27V36.6201H129.668ZM123.604 25.2031V38H121.907V25.2031H123.604Z" fill="#30364D"/>
<path d="M190.049 23.6289V26.3096H188.73V23.6289H190.049ZM189.891 37.9814V40.3281H188.581V37.9814H189.891ZM191.648 35.2041C191.648 34.8525 191.569 34.5361 191.411 34.2549C191.253 33.9736 190.992 33.7158 190.629 33.4814C190.266 33.2471 189.779 33.0303 189.17 32.8311C188.432 32.6025 187.793 32.3242 187.254 31.9961C186.721 31.668 186.308 31.2607 186.015 30.7744C185.728 30.2881 185.584 29.6992 185.584 29.0078C185.584 28.2871 185.739 27.666 186.05 27.1445C186.36 26.623 186.8 26.2217 187.368 25.9404C187.937 25.6592 188.604 25.5186 189.372 25.5186C189.97 25.5186 190.503 25.6094 190.972 25.791C191.44 25.9668 191.836 26.2305 192.158 26.582C192.486 26.9336 192.735 27.3643 192.905 27.874C193.081 28.3838 193.169 28.9727 193.169 29.6406H191.552C191.552 29.248 191.505 28.8877 191.411 28.5596C191.317 28.2314 191.177 27.9473 190.989 27.707C190.802 27.4609 190.573 27.2734 190.304 27.1445C190.034 27.0098 189.724 26.9424 189.372 26.9424C188.88 26.9424 188.473 27.0273 188.15 27.1973C187.834 27.3672 187.6 27.6074 187.447 27.918C187.295 28.2227 187.219 28.5771 187.219 28.9814C187.219 29.3564 187.295 29.6846 187.447 29.9658C187.6 30.2471 187.857 30.502 188.221 30.7305C188.59 30.9531 189.097 31.1729 189.741 31.3896C190.497 31.6299 191.139 31.9141 191.666 32.2422C192.193 32.5645 192.595 32.9629 192.87 33.4375C193.146 33.9062 193.283 34.4893 193.283 35.1865C193.283 35.9424 193.113 36.5811 192.773 37.1025C192.434 37.6182 191.956 38.0107 191.341 38.2803C190.726 38.5498 190.005 38.6846 189.179 38.6846C188.681 38.6846 188.188 38.6172 187.702 38.4824C187.216 38.3477 186.776 38.1279 186.384 37.8232C185.991 37.5127 185.678 37.1055 185.443 36.6016C185.209 36.0918 185.092 35.4678 185.092 34.7295H186.727C186.727 35.2275 186.797 35.6406 186.938 35.9688C187.084 36.291 187.277 36.5488 187.518 36.7422C187.758 36.9297 188.021 37.0645 188.309 37.1465C188.602 37.2227 188.892 37.2607 189.179 37.2607C189.706 37.2607 190.151 37.1787 190.515 37.0146C190.884 36.8447 191.165 36.6045 191.358 36.2939C191.552 35.9834 191.648 35.6201 191.648 35.2041ZM201.835 32.4092L200.534 32.0752L201.176 25.7031H207.741V27.2061H202.556L202.169 30.6865C202.403 30.5518 202.699 30.4258 203.057 30.3086C203.42 30.1914 203.836 30.1328 204.305 30.1328C204.896 30.1328 205.427 30.2354 205.896 30.4404C206.364 30.6396 206.763 30.9268 207.091 31.3018C207.425 31.6768 207.68 32.1279 207.855 32.6553C208.031 33.1826 208.119 33.7715 208.119 34.4219C208.119 35.0371 208.034 35.6025 207.864 36.1182C207.7 36.6338 207.451 37.085 207.117 37.4717C206.783 37.8525 206.361 38.1484 205.852 38.3594C205.348 38.5703 204.753 38.6758 204.067 38.6758C203.552 38.6758 203.062 38.6055 202.6 38.4648C202.143 38.3184 201.732 38.0986 201.369 37.8057C201.012 37.5068 200.719 37.1377 200.49 36.6982C200.268 36.2529 200.127 35.7314 200.068 35.1338H201.615C201.686 35.6143 201.826 36.0186 202.037 36.3467C202.248 36.6748 202.523 36.9238 202.863 37.0938C203.209 37.2578 203.61 37.3398 204.067 37.3398C204.454 37.3398 204.797 37.2725 205.096 37.1377C205.395 37.0029 205.646 36.8096 205.852 36.5576C206.057 36.3057 206.212 36.001 206.317 35.6436C206.429 35.2861 206.484 34.8848 206.484 34.4395C206.484 34.0352 206.429 33.6602 206.317 33.3145C206.206 32.9688 206.039 32.667 205.816 32.4092C205.6 32.1514 205.333 31.9521 205.017 31.8115C204.7 31.665 204.337 31.5918 203.927 31.5918C203.382 31.5918 202.969 31.665 202.688 31.8115C202.412 31.958 202.128 32.1572 201.835 32.4092ZM215.247 25.6328V38.5H213.621V27.6631L210.343 28.8584V27.3906L214.992 25.6328H215.247ZM220.23 37.6387C220.23 37.3633 220.315 37.1318 220.485 36.9443C220.661 36.751 220.913 36.6543 221.241 36.6543C221.569 36.6543 221.818 36.751 221.988 36.9443C222.164 37.1318 222.252 37.3633 222.252 37.6387C222.252 37.9082 222.164 38.1367 221.988 38.3242C221.818 38.5117 221.569 38.6055 221.241 38.6055C220.913 38.6055 220.661 38.5117 220.485 38.3242C220.315 38.1367 220.23 37.9082 220.23 37.6387ZM233.045 25.7031V26.6172L227.745 38.5H226.031L231.322 27.0391H224.396V25.7031H233.045ZM241.14 25.6855H241.28V27.0654H241.14C240.278 27.0654 239.558 27.2061 238.978 27.4873C238.397 27.7627 237.938 28.1348 237.598 28.6035C237.258 29.0664 237.012 29.5879 236.859 30.168C236.713 30.748 236.64 31.3369 236.64 31.9346V33.8154C236.64 34.3838 236.707 34.8877 236.842 35.3271C236.977 35.7607 237.161 36.127 237.396 36.4258C237.63 36.7246 237.894 36.9502 238.187 37.1025C238.485 37.2549 238.796 37.3311 239.118 37.3311C239.493 37.3311 239.827 37.2607 240.12 37.1201C240.413 36.9736 240.659 36.7715 240.858 36.5137C241.063 36.25 241.219 35.9395 241.324 35.582C241.43 35.2246 241.482 34.832 241.482 34.4043C241.482 34.0234 241.436 33.6572 241.342 33.3057C241.248 32.9482 241.104 32.6318 240.911 32.3564C240.718 32.0752 240.475 31.8555 240.182 31.6973C239.895 31.5332 239.552 31.4512 239.153 31.4512C238.702 31.4512 238.28 31.5625 237.888 31.7852C237.501 32.002 237.182 32.2891 236.93 32.6465C236.684 32.998 236.543 33.3818 236.508 33.7979L235.646 33.7891C235.729 33.1328 235.881 32.5732 236.104 32.1104C236.332 31.6416 236.613 31.2607 236.947 30.9678C237.287 30.6689 237.665 30.4521 238.081 30.3174C238.503 30.1768 238.948 30.1064 239.417 30.1064C240.056 30.1064 240.606 30.2266 241.069 30.4668C241.532 30.707 241.913 31.0293 242.212 31.4336C242.511 31.832 242.73 32.2832 242.871 32.7871C243.018 33.2852 243.091 33.7979 243.091 34.3252C243.091 34.9287 243.006 35.4941 242.836 36.0215C242.666 36.5488 242.411 37.0117 242.071 37.4102C241.737 37.8086 241.324 38.1191 240.832 38.3418C240.34 38.5645 239.769 38.6758 239.118 38.6758C238.427 38.6758 237.823 38.5352 237.308 38.2539C236.792 37.9668 236.364 37.5859 236.024 37.1113C235.685 36.6367 235.43 36.1094 235.26 35.5293C235.09 34.9492 235.005 34.3604 235.005 33.7627V32.998C235.005 32.0957 235.096 31.2109 235.277 30.3438C235.459 29.4766 235.772 28.6914 236.218 27.9883C236.669 27.2852 237.293 26.7256 238.09 26.3096C238.887 25.8936 239.903 25.6855 241.14 25.6855Z" fill="#30364D"/>
<path d="M325.748 30.8916V32.2275H321.459V30.8916H325.748ZM332.507 24.1328V37H330.881V26.1631L327.603 27.3584V25.8906L332.252 24.1328H332.507ZM337.49 36.1387C337.49 35.8633 337.575 35.6318 337.745 35.4443C337.921 35.251 338.173 35.1543 338.501 35.1543C338.829 35.1543 339.078 35.251 339.248 35.4443C339.424 35.6318 339.512 35.8633 339.512 36.1387C339.512 36.4082 339.424 36.6367 339.248 36.8242C339.078 37.0117 338.829 37.1055 338.501 37.1055C338.173 37.1055 337.921 37.0117 337.745 36.8242C337.575 36.6367 337.49 36.4082 337.49 36.1387ZM344.407 29.8018H345.567C346.136 29.8018 346.604 29.708 346.974 29.5205C347.349 29.3271 347.627 29.0664 347.809 28.7383C347.996 28.4043 348.09 28.0293 348.09 27.6133C348.09 27.1211 348.008 26.708 347.844 26.374C347.68 26.04 347.434 25.7881 347.105 25.6182C346.777 25.4482 346.361 25.3633 345.857 25.3633C345.4 25.3633 344.996 25.4541 344.645 25.6357C344.299 25.8115 344.026 26.0635 343.827 26.3916C343.634 26.7197 343.537 27.1064 343.537 27.5518H341.911C341.911 26.9014 342.075 26.3096 342.403 25.7764C342.731 25.2432 343.191 24.8184 343.783 24.502C344.381 24.1855 345.072 24.0273 345.857 24.0273C346.631 24.0273 347.308 24.165 347.888 24.4404C348.468 24.71 348.919 25.1143 349.241 25.6533C349.563 26.1865 349.725 26.8516 349.725 27.6484C349.725 27.9707 349.648 28.3164 349.496 28.6855C349.35 29.0488 349.118 29.3887 348.802 29.7051C348.491 30.0215 348.087 30.2822 347.589 30.4873C347.091 30.6865 346.493 30.7861 345.796 30.7861H344.407V29.8018ZM344.407 31.1377V30.1621H345.796C346.61 30.1621 347.284 30.2588 347.817 30.4521C348.351 30.6455 348.77 30.9033 349.074 31.2256C349.385 31.5479 349.602 31.9023 349.725 32.2891C349.854 32.6699 349.918 33.0508 349.918 33.4316C349.918 34.0293 349.815 34.5596 349.61 35.0225C349.411 35.4854 349.127 35.8779 348.758 36.2002C348.395 36.5225 347.967 36.7656 347.475 36.9297C346.982 37.0938 346.446 37.1758 345.866 37.1758C345.31 37.1758 344.785 37.0967 344.293 36.9385C343.807 36.7803 343.376 36.5518 343.001 36.2529C342.626 35.9482 342.333 35.5762 342.122 35.1367C341.911 34.6914 341.806 34.1846 341.806 33.6162H343.432C343.432 34.0615 343.528 34.4512 343.722 34.7852C343.921 35.1191 344.202 35.3799 344.565 35.5674C344.935 35.749 345.368 35.8398 345.866 35.8398C346.364 35.8398 346.792 35.7549 347.149 35.585C347.513 35.4092 347.791 35.1455 347.984 34.7939C348.184 34.4424 348.283 34 348.283 33.4668C348.283 32.9336 348.172 32.4971 347.949 32.1572C347.727 31.8115 347.41 31.5566 347 31.3926C346.596 31.2227 346.118 31.1377 345.567 31.1377H344.407ZM360.808 32.6934V34.0293H351.562V33.0713L357.292 24.2031H358.619L357.195 26.7695L353.407 32.6934H360.808ZM359.023 24.2031V37H357.397V24.2031H359.023ZM362.144 27.3408V26.6641C362.144 26.1777 362.249 25.7354 362.46 25.3369C362.671 24.9385 362.973 24.6191 363.365 24.3789C363.758 24.1387 364.224 24.0186 364.763 24.0186C365.313 24.0186 365.782 24.1387 366.169 24.3789C366.562 24.6191 366.863 24.9385 367.074 25.3369C367.285 25.7354 367.391 26.1777 367.391 26.6641V27.3408C367.391 27.8154 367.285 28.252 367.074 28.6504C366.869 29.0488 366.57 29.3682 366.178 29.6084C365.791 29.8486 365.325 29.9688 364.78 29.9688C364.235 29.9688 363.764 29.8486 363.365 29.6084C362.973 29.3682 362.671 29.0488 362.46 28.6504C362.249 28.252 362.144 27.8154 362.144 27.3408ZM363.365 26.6641V27.3408C363.365 27.6104 363.415 27.8652 363.515 28.1055C363.62 28.3457 363.778 28.542 363.989 28.6943C364.2 28.8408 364.464 28.9141 364.78 28.9141C365.097 28.9141 365.357 28.8408 365.562 28.6943C365.768 28.542 365.92 28.3457 366.02 28.1055C366.119 27.8652 366.169 27.6104 366.169 27.3408V26.6641C366.169 26.3887 366.116 26.1309 366.011 25.8906C365.911 25.6445 365.756 25.4482 365.545 25.3018C365.34 25.1494 365.079 25.0732 364.763 25.0732C364.452 25.0732 364.191 25.1494 363.98 25.3018C363.775 25.4482 363.62 25.6445 363.515 25.8906C363.415 26.1309 363.365 26.3887 363.365 26.6641ZM368.375 34.5479V33.8623C368.375 33.3818 368.48 32.9424 368.691 32.5439C368.902 32.1455 369.204 31.8262 369.597 31.5859C369.989 31.3457 370.455 31.2256 370.994 31.2256C371.545 31.2256 372.014 31.3457 372.4 31.5859C372.793 31.8262 373.095 32.1455 373.306 32.5439C373.517 32.9424 373.622 33.3818 373.622 33.8623V34.5479C373.622 35.0283 373.517 35.4678 373.306 35.8662C373.101 36.2646 372.802 36.584 372.409 36.8242C372.022 37.0645 371.557 37.1846 371.012 37.1846C370.467 37.1846 369.998 37.0645 369.605 36.8242C369.213 36.584 368.908 36.2646 368.691 35.8662C368.48 35.4678 368.375 35.0283 368.375 34.5479ZM369.597 33.8623V34.5479C369.597 34.8174 369.646 35.0752 369.746 35.3213C369.852 35.5615 370.01 35.7578 370.221 35.9102C370.432 36.0566 370.695 36.1299 371.012 36.1299C371.328 36.1299 371.589 36.0566 371.794 35.9102C372.005 35.7578 372.16 35.5615 372.26 35.3213C372.359 35.0811 372.409 34.8232 372.409 34.5479V33.8623C372.409 33.5869 372.356 33.3291 372.251 33.0889C372.151 32.8486 371.996 32.6553 371.785 32.5088C371.58 32.3564 371.316 32.2803 370.994 32.2803C370.684 32.2803 370.423 32.3564 370.212 32.5088C370.007 32.6553 369.852 32.8486 369.746 33.0889C369.646 33.3291 369.597 33.5869 369.597 33.8623ZM371.398 26.0225L365.149 36.0244L364.235 35.4443L370.484 25.4424L371.398 26.0225Z" fill="#DE3434"/>
<path d="M382.375 24.0833V36.9166" stroke="#DE3434" stroke-width="2" stroke-linecap="round" stroke-linejoin="round"/>
<path d="M385.542 33.25L382.375 36.9167" stroke="#DE3434" stroke-width="2" stroke-linecap="round" stroke-linejoin="round"/>
<path d="M379.208 33.25L382.375 36.9167" stroke="#DE3434" stroke-width="2" stroke-linecap="round" stroke-linejoin="round"/>
<line x1="4.4622e-08" y1="67.5" x2="406" y2="67.5" stroke="#E3E8EE"/>
<defs>
<linearGradient id="paint0_linear_42_645" x1="-11.4453" y1="22.1996" x2="-11.8111" y2="40.6045" gradientUnits="userSpaceOnUse">
<stop stop-color="#00FFA3"/>
<stop offset="1" stop-color="#DC1FFF"/>
</linearGradient>
<linearGradient id="paint1_linear_42_645" x1="-15.6053" y1="20.0278" x2="-15.9711" y2="38.4326" gradientUnits="userSpaceOnUse">
<stop stop-color="#00FFA3"/>
<stop offset="1" stop-color="#DC1FFF"/>
</linearGradient>
<linearGradient id="paint2_linear_42_645" x1="-13.5386" y1="21.1068" x2="-13.9043" y2="39.5116" gradientUnits="userSpaceOnUse">
<stop stop-color="#00FFA3"/>
<stop offset="1" stop-color="#DC1FFF"/>
</linearGradient>
</defs>
</svg>
