<svg width="138" height="138" viewBox="0 0 138 138" fill="none" xmlns="http://www.w3.org/2000/svg">
<mask id="path-1-inside-1_48_134" fill="white">
<path d="M138 69C138 54.4286 133.387 40.2313 124.822 28.4428L91.3289 52.7771C94.7548 57.4925 96.6 63.1715 96.6 69H138Z"/>
</mask>
<path d="M138 69C138 54.4286 133.387 40.2313 124.822 28.4428L91.3289 52.7771C94.7548 57.4925 96.6 63.1715 96.6 69H138Z" fill="#00AA90" stroke="white" stroke-width="2" mask="url(#path-1-inside-1_48_134)"/>
<mask id="path-2-inside-2_48_134" fill="white">
<path d="M124.822 28.4428C116.257 16.6543 104.18 7.8799 90.3222 3.37711L77.5289 42.7508C83.0721 44.552 87.9029 48.0617 91.3289 52.7771L124.822 28.4428Z"/>
</mask>
<path d="M124.822 28.4428C116.257 16.6543 104.18 7.8799 90.3222 3.37711L77.5289 42.7508C83.0721 44.552 87.9029 48.0617 91.3289 52.7771L124.822 28.4428Z" fill="#00FF79" stroke="white" stroke-width="2" mask="url(#path-2-inside-2_48_134)"/>
<mask id="path-3-inside-3_48_134" fill="white">
<path d="M90.3222 3.37711C76.464 -1.1257 61.536 -1.1257 47.6778 3.37711L60.4711 42.7508C66.0144 40.9497 71.9856 40.9497 77.5289 42.7508L90.3222 3.37711Z"/>
</mask>
<path d="M90.3222 3.37711C76.464 -1.1257 61.536 -1.1257 47.6778 3.37711L60.4711 42.7508C66.0144 40.9497 71.9856 40.9497 77.5289 42.7508L90.3222 3.37711Z" fill="#ECEF3F" stroke="white" stroke-width="2" mask="url(#path-3-inside-3_48_134)"/>
<mask id="path-4-inside-4_48_134" fill="white">
<path d="M47.6778 3.37711C33.8196 7.8799 21.7427 16.6543 13.1778 28.4428L46.6711 52.7771C50.0971 48.0617 54.9279 44.552 60.4711 42.7508L47.6778 3.37711Z"/>
</mask>
<path d="M47.6778 3.37711C33.8196 7.8799 21.7427 16.6543 13.1778 28.4428L46.6711 52.7771C50.0971 48.0617 54.9279 44.552 60.4711 42.7508L47.6778 3.37711Z" fill="#E98830" stroke="white" stroke-width="2" mask="url(#path-4-inside-4_48_134)"/>
<mask id="path-5-inside-5_48_134" fill="white">
<path d="M13.1778 28.4428C4.61299 40.2313 -1.27387e-06 54.4286 0 69L41.4 69C41.4 63.1715 43.2452 57.4925 46.6711 52.7771L13.1778 28.4428Z"/>
</mask>
<path d="M13.1778 28.4428C4.61299 40.2313 -1.27387e-06 54.4286 0 69L41.4 69C41.4 63.1715 43.2452 57.4925 46.6711 52.7771L13.1778 28.4428Z" fill="#DE3434" stroke="white" stroke-width="2" mask="url(#path-5-inside-5_48_134)"/>
</svg>
