<svg width="47" height="21" viewBox="0 0 47 21" fill="none" xmlns="http://www.w3.org/2000/svg">
<path d="M13.7494 10.232C13.365 8.15085 11.3662 6.77535 9.28506 7.15977C7.20388 7.5442 5.82838 9.54296 6.2128 11.6241C6.59722 13.7053 8.59599 15.0808 10.6772 14.6964C12.7584 14.312 14.1339 12.3132 13.7494 10.232ZM8.35699 2.13535C3.50089 3.03233 0.291388 7.69612 1.18837 12.5522C2.08535 17.4083 6.74915 20.6178 11.6052 19.7208C14.0333 19.2723 15.2576 18.3967 17.4217 16.0485C19.5859 13.7003 21.1221 11.4682 24.2623 10.8881L29.0039 9.47166L46.4455 4.25452L28.5834 5.32928L23.3343 5.86368C20.194 6.44372 17.9618 4.90759 15.1016 3.48747C12.2413 2.06735 10.785 1.68686 8.35699 2.13535Z" fill="black" stroke="black" stroke-width="2"/>
</svg>
