<svg width="18" height="17" viewBox="0 0 18 17" fill="none" xmlns="http://www.w3.org/2000/svg">
<path fill-rule="evenodd" clip-rule="evenodd" d="M15.1881 12.9686C16.3549 11.6113 17.0526 9.88966 17.0526 8.01634C17.0526 3.63451 13.2353 0.0823364 8.52632 0.0823364C3.81736 0.0823364 0 3.63451 0 8.01634C0 12.3982 3.81736 15.9504 8.52632 15.9504C10.5395 15.9504 12.3897 15.3011 13.8483 14.2154L16.3827 16.5737C16.7527 16.918 17.3526 16.918 17.7225 16.5737C18.0925 16.2294 18.0925 15.6713 17.7225 15.327L15.1881 12.9686ZM15.1579 8.01634C15.1579 11.4244 12.1888 14.1872 8.52632 14.1872C4.8638 14.1872 1.89474 11.4244 1.89474 8.01634C1.89474 4.60825 4.8638 1.84545 8.52632 1.84545C12.1888 1.84545 15.1579 4.60825 15.1579 8.01634Z" fill="#9DA6BA"/>
</svg>
