<svg width="34" height="32" viewBox="0 0 34 32" fill="none" xmlns="http://www.w3.org/2000/svg">
<path d="M32.0981 12.7647H31.0196V6.29412C31.0196 6.0081 30.906 5.7338 30.7038 5.53155C30.5015 5.32931 30.2272 5.21569 29.9412 5.21569H4.05884C3.80348 5.21985 3.55493 5.13326 3.35744 4.97132C3.15995 4.80938 3.02635 4.5826 2.98041 4.33137V3.94314C3.02635 3.69191 3.15995 3.46514 3.35744 3.3032C3.55493 3.14126 3.80348 3.05466 4.05884 3.05883H29.4883C29.7743 3.05883 30.0486 2.9452 30.2508 2.74296C30.4531 2.54071 30.5667 2.26641 30.5667 1.98039C30.5667 1.69438 30.4531 1.42007 30.2508 1.21783C30.0486 1.01558 29.7743 0.901962 29.4883 0.901962H4.05884C3.20079 0.901962 2.37788 1.24282 1.77114 1.84956C1.16441 2.45629 0.823548 3.2792 0.823548 4.13726C0.815979 4.26656 0.815979 4.39619 0.823548 4.52549V26.7088C0.827781 27.2895 0.946345 27.8636 1.17247 28.3984C1.39859 28.9333 1.72785 29.4183 2.14144 29.8259C2.55503 30.2335 3.04485 30.5556 3.58293 30.7739C4.12101 30.9922 4.69682 31.1023 5.27747 31.098H29.9412C30.2272 31.098 30.5015 30.9844 30.7038 30.7822C30.906 30.5799 31.0196 30.3056 31.0196 30.0196V23.549H32.0981C32.3841 23.549 32.6584 23.4354 32.8606 23.2332C33.0629 23.0309 33.1765 22.7566 33.1765 22.4706V13.8431C33.1765 13.5571 33.0629 13.2828 32.8606 13.0806C32.6584 12.8783 32.3841 12.7647 32.0981 12.7647ZM28.8628 28.9412H5.27747C4.67765 28.947 4.0998 28.7157 3.66963 28.2976C3.23945 27.8796 2.99175 27.3086 2.98041 26.7088V7.24314C3.33047 7.34458 3.69472 7.38829 4.05884 7.37255H28.8628V12.7647H21.3137C19.8837 12.7647 18.5121 13.3328 17.5009 14.344C16.4897 15.3553 15.9216 16.7268 15.9216 18.1569C15.9216 19.587 16.4897 20.9585 17.5009 21.9697C18.5121 22.9809 19.8837 23.549 21.3137 23.549H28.8628V28.9412ZM31.0196 21.3922H21.3137C20.4557 21.3922 19.6328 21.0513 19.026 20.4446C18.4193 19.8378 18.0784 19.0149 18.0784 18.1569C18.0784 17.2988 18.4193 16.4759 19.026 15.8692C19.6328 15.2624 20.4557 14.9216 21.3137 14.9216H31.0196V21.3922Z" fill="url(#paint0_linear_39_7)"/>
<defs>
<linearGradient id="paint0_linear_39_7" x1="0.817871" y1="16.0001" x2="33.1765" y2="16.0001" gradientUnits="userSpaceOnUse">
<stop stop-color="#B279F7"/>
<stop offset="1" stop-color="#6E51E2"/>
</linearGradient>
</defs>
</svg>
